<?xml version="1.0" encoding="UTF-8" standalone="no"?>
<!DOCTYPE svg PUBLIC "-//W3C//DTD SVG 1.1//EN"
 "http://www.w3.org/Graphics/SVG/1.1/DTD/svg11.dtd">
<!-- Generated by graphviz version 12.2.0 (20241103.1931)
 -->
<!-- Title: src/AnalysisModule.h Pages: 1 -->
<svg width="1392pt" height="248pt"
 viewBox="0.00 0.00 1392.25 248.25" xmlns="http://www.w3.org/2000/svg" xmlns:xlink="http://www.w3.org/1999/xlink">
<g id="graph0" class="graph" transform="scale(1 1) rotate(0) translate(4 244.25)">
<title>src/AnalysisModule.h</title>
<!-- Node1 -->
<g id="Node000001" class="node">
<title>Node1</title>
<g id="a_Node000001"><a xlink:title=" ">
<polygon fill="#999999" stroke="#666666" points="735.5,-240.25 627.25,-240.25 627.25,-221 735.5,-221 735.5,-240.25"/>
<text text-anchor="middle" x="681.38" y="-226.75" font-family="Helvetica,sans-Serif" font-size="10.00">src/AnalysisModule.h</text>
</a>
</g>
</g>
<!-- Node2 -->
<g id="Node000002" class="node">
<title>Node2</title>
<g id="a_Node000002"><a xlink:href="_analysis_module_8cpp.html" target="_top" xlink:title=" ">
<polygon fill="white" stroke="#666666" points="118.75,-185 0,-185 0,-165.75 118.75,-165.75 118.75,-185"/>
<text text-anchor="middle" x="59.38" y="-171.5" font-family="Helvetica,sans-Serif" font-size="10.00">src/AnalysisModule.cpp</text>
</a>
</g>
</g>
<!-- Node1&#45;&gt;Node2 -->
<g id="edge1_Node000001_Node000002" class="edge">
<title>Node1&#45;&gt;Node2</title>
<g id="a_edge1_Node000001_Node000002"><a xlink:title=" ">
<path fill="none" stroke="#63b8ff" d="M615.3,-225.04C512.11,-217.69 306.46,-202.35 132.38,-185 128.06,-184.57 123.6,-184.1 119.11,-183.61"/>
<polygon fill="#63b8ff" stroke="#63b8ff" points="615.04,-228.53 625.26,-225.74 615.53,-221.54 615.04,-228.53"/>
</a>
</g>
</g>
<!-- Node3 -->
<g id="Node000003" class="node">
<title>Node3</title>
<g id="a_Node000003"><a xlink:href="_audio_prism_8h.html" target="_top" xlink:title=" ">
<polygon fill="white" stroke="#666666" points="739.5,-19.25 649.25,-19.25 649.25,0 739.5,0 739.5,-19.25"/>
<text text-anchor="middle" x="694.38" y="-5.75" font-family="Helvetica,sans-Serif" font-size="10.00">src/AudioPrism.h</text>
</a>
</g>
</g>
<!-- Node1&#45;&gt;Node3 -->
<g id="edge2_Node000001_Node000003" class="edge">
<title>Node1&#45;&gt;Node3</title>
<g id="a_edge2_Node000001_Node000003"><a xlink:title=" ">
<path fill="none" stroke="#63b8ff" d="M615.48,-226.91C496.47,-221.46 255.12,-207.74 224.38,-185 176.35,-149.48 149.04,-99.3 189.38,-55.25 220.09,-21.7 530.58,-13.23 648.91,-11.22"/>
<polygon fill="#63b8ff" stroke="#63b8ff" points="615.29,-230.4 625.44,-227.36 615.6,-223.41 615.29,-230.4"/>
</a>
</g>
</g>
<!-- Node4 -->
<g id="Node000004" class="node">
<title>Node4</title>
<g id="a_Node000004"><a xlink:href="_module_group_8h.html" target="_top" xlink:title=" ">
<polygon fill="white" stroke="#666666" points="331.25,-185 233.5,-185 233.5,-165.75 331.25,-165.75 331.25,-185"/>
<text text-anchor="middle" x="282.38" y="-171.5" font-family="Helvetica,sans-Serif" font-size="10.00">src/ModuleGroup.h</text>
</a>
</g>
</g>
<!-- Node1&#45;&gt;Node4 -->
<g id="edge3_Node000001_Node000004" class="edge">
<title>Node1&#45;&gt;Node4</title>
<g id="a_edge3_Node000001_Node000004"><a xlink:title=" ">
<path fill="none" stroke="#63b8ff" d="M615.77,-220.87C535.94,-210.22 402.98,-192.47 331.47,-182.93"/>
<polygon fill="#63b8ff" stroke="#63b8ff" points="615.27,-224.33 625.65,-222.19 616.2,-217.4 615.27,-224.33"/>
</a>
</g>
</g>
<!-- Node6 -->
<g id="Node000006" class="node">
<title>Node6</title>
<g id="a_Node000006"><a xlink:href="_bread_slicer_8h.html" target="_top" xlink:title=" ">
<polygon fill="white" stroke="#666666" points="342.38,-74.5 212.38,-74.5 212.38,-55.25 342.38,-55.25 342.38,-74.5"/>
<text text-anchor="middle" x="277.38" y="-61" font-family="Helvetica,sans-Serif" font-size="10.00">src/modules/BreadSlicer.h</text>
</a>
</g>
</g>
<!-- Node1&#45;&gt;Node6 -->
<g id="edge6_Node000001_Node000006" class="edge">
<title>Node1&#45;&gt;Node6</title>
<g id="a_edge6_Node000001_Node000006"><a xlink:title=" ">
<path fill="none" stroke="#63b8ff" d="M616.01,-218.49C579.5,-211.18 533.6,-200.13 494.38,-185 412.58,-153.45 323.35,-96.54 290.47,-74.72"/>
<polygon fill="#63b8ff" stroke="#63b8ff" points="615.05,-221.87 625.54,-220.35 616.39,-215 615.05,-221.87"/>
</a>
</g>
</g>
<!-- Node7 -->
<g id="Node000007" class="node">
<title>Node7</title>
<g id="a_Node000007"><a xlink:href="_centroid_8h.html" target="_top" xlink:title=" ">
<polygon fill="white" stroke="#666666" points="476.25,-74.5 360.5,-74.5 360.5,-55.25 476.25,-55.25 476.25,-74.5"/>
<text text-anchor="middle" x="418.38" y="-61" font-family="Helvetica,sans-Serif" font-size="10.00">src/modules/Centroid.h</text>
</a>
</g>
</g>
<!-- Node1&#45;&gt;Node7 -->
<g id="edge8_Node000001_Node000007" class="edge">
<title>Node1&#45;&gt;Node7</title>
<g id="a_edge8_Node000001_Node000007"><a xlink:title=" ">
<path fill="none" stroke="#63b8ff" d="M615.84,-219.86C585.98,-213.29 551.18,-202.5 523.38,-185 475.78,-155.04 437.36,-97.18 423.72,-74.92"/>
<polygon fill="#63b8ff" stroke="#63b8ff" points="615.03,-223.27 625.53,-221.87 616.45,-216.42 615.03,-223.27"/>
</a>
</g>
</g>
<!-- Node8 -->
<g id="Node000008" class="node">
<title>Node8</title>
<g id="a_Node000008"><a xlink:href="_delta_amplitudes_8h.html" target="_top" xlink:title=" ">
<polygon fill="white" stroke="#666666" points="655.88,-129.75 504.88,-129.75 504.88,-110.5 655.88,-110.5 655.88,-129.75"/>
<text text-anchor="middle" x="580.38" y="-116.25" font-family="Helvetica,sans-Serif" font-size="10.00">src/modules/DeltaAmplitudes.h</text>
</a>
</g>
</g>
<!-- Node1&#45;&gt;Node8 -->
<g id="edge10_Node000001_Node000008" class="edge">
<title>Node1&#45;&gt;Node8</title>
<g id="a_edge10_Node000001_Node000008"><a xlink:title=" ">
<path fill="none" stroke="#63b8ff" d="M647.94,-215.65C633.59,-208.28 617.58,-198.03 606.38,-185 592.17,-168.48 585.02,-143.16 582.07,-129.91"/>
<polygon fill="#63b8ff" stroke="#63b8ff" points="646.11,-218.65 656.64,-219.85 649.15,-212.35 646.11,-218.65"/>
</a>
</g>
</g>
<!-- Node9 -->
<g id="Node000009" class="node">
<title>Node9</title>
<g id="a_Node000009"><a xlink:href="_percussion_detection_8h.html" target="_top" xlink:title=" ">
<polygon fill="white" stroke="#666666" points="1052.25,-74.5 882.5,-74.5 882.5,-55.25 1052.25,-55.25 1052.25,-74.5"/>
<text text-anchor="middle" x="967.38" y="-61" font-family="Helvetica,sans-Serif" font-size="10.00">src/modules/PercussionDetection.h</text>
</a>
</g>
</g>
<!-- Node1&#45;&gt;Node9 -->
<g id="edge27_Node000001_Node000009" class="edge">
<title>Node1&#45;&gt;Node9</title>
<g id="a_edge27_Node000001_Node000009"><a xlink:title=" ">
<path fill="none" stroke="#63b8ff" d="M733.54,-217.6C760.17,-210.27 792.53,-199.5 819.38,-185 849.7,-168.62 929.16,-99.59 957.31,-74.79"/>
<polygon fill="#63b8ff" stroke="#63b8ff" points="732.74,-214.19 723.97,-220.14 734.54,-220.95 732.74,-214.19"/>
</a>
</g>
</g>
<!-- Node10 -->
<g id="Node000010" class="node">
<title>Node10</title>
<g id="a_Node000010"><a xlink:href="_salient_freqs_8h.html" target="_top" xlink:title=" ">
<polygon fill="white" stroke="#666666" points="628.62,-74.5 494.12,-74.5 494.12,-55.25 628.62,-55.25 628.62,-74.5"/>
<text text-anchor="middle" x="561.38" y="-61" font-family="Helvetica,sans-Serif" font-size="10.00">src/modules/SalientFreqs.h</text>
</a>
</g>
</g>
<!-- Node1&#45;&gt;Node10 -->
<g id="edge28_Node000001_Node000010" class="edge">
<title>Node1&#45;&gt;Node10</title>
<g id="a_edge28_Node000001_Node000010"><a xlink:title=" ">
<path fill="none" stroke="#63b8ff" d="M628.32,-217.44C584.07,-204.12 523.95,-177.94 496.38,-129.75 483.1,-106.54 515.68,-86.14 539.36,-74.95"/>
<polygon fill="#63b8ff" stroke="#63b8ff" points="627.17,-220.75 637.75,-220.14 629.1,-214.02 627.17,-220.75"/>
</a>
</g>
</g>
<!-- Node11 -->
<g id="Node000011" class="node">
<title>Node11</title>
<g id="a_Node000011"><a xlink:href="_formants_8h.html" target="_top" xlink:title=" ">
<polygon fill="white" stroke="#666666" points="833.88,-129.75 712.88,-129.75 712.88,-110.5 833.88,-110.5 833.88,-129.75"/>
<text text-anchor="middle" x="773.38" y="-116.25" font-family="Helvetica,sans-Serif" font-size="10.00">src/modules/Formants.h</text>
</a>
</g>
</g>
<!-- Node1&#45;&gt;Node11 -->
<g id="edge16_Node000001_Node000011" class="edge">
<title>Node1&#45;&gt;Node11</title>
<g id="a_edge16_Node000001_Node000011"><a xlink:title=" ">
<path fill="none" stroke="#63b8ff" d="M716.53,-215.82C730.78,-208.6 746.23,-198.42 756.38,-185 768.97,-168.34 772.25,-143.08 773.09,-129.87"/>
<polygon fill="#63b8ff" stroke="#63b8ff" points="715.38,-212.49 707.82,-219.91 718.36,-218.82 715.38,-212.49"/>
</a>
</g>
</g>
<!-- Node12 -->
<g id="Node000012" class="node">
<title>Node12</title>
<g id="a_Node000012"><a xlink:href="_major_peaks_8h.html" target="_top" xlink:title=" ">
<polygon fill="white" stroke="#666666" points="747.12,-185 615.62,-185 615.62,-165.75 747.12,-165.75 747.12,-185"/>
<text text-anchor="middle" x="681.38" y="-171.5" font-family="Helvetica,sans-Serif" font-size="10.00">src/modules/MajorPeaks.h</text>
</a>
</g>
</g>
<!-- Node1&#45;&gt;Node12 -->
<g id="edge17_Node000001_Node000012" class="edge">
<title>Node1&#45;&gt;Node12</title>
<g id="a_edge17_Node000001_Node000012"><a xlink:title=" ">
<path fill="none" stroke="#63b8ff" d="M681.38,-209.38C681.38,-201.09 681.38,-191.92 681.38,-185.36"/>
<polygon fill="#63b8ff" stroke="#63b8ff" points="677.88,-209.32 681.38,-219.32 684.88,-209.32 677.88,-209.32"/>
</a>
</g>
</g>
<!-- Node13 -->
<g id="Node000013" class="node">
<title>Node13</title>
<g id="a_Node000013"><a xlink:href="_max_amplitude_8h.html" target="_top" xlink:title=" ">
<polygon fill="white" stroke="#666666" points="864,-74.5 722.75,-74.5 722.75,-55.25 864,-55.25 864,-74.5"/>
<text text-anchor="middle" x="793.38" y="-61" font-family="Helvetica,sans-Serif" font-size="10.00">src/modules/MaxAmplitude.h</text>
</a>
</g>
</g>
<!-- Node1&#45;&gt;Node13 -->
<g id="edge20_Node000001_Node000013" class="edge">
<title>Node1&#45;&gt;Node13</title>
<g id="a_edge20_Node000001_Node000013"><a xlink:title=" ">
<path fill="none" stroke="#63b8ff" d="M726.55,-216.95C766.34,-202.99 821.31,-176.11 843.38,-129.75 853.79,-107.88 827.64,-86.56 809.35,-74.93"/>
<polygon fill="#63b8ff" stroke="#63b8ff" points="725.58,-213.59 717.2,-220.08 727.8,-220.23 725.58,-213.59"/>
</a>
</g>
</g>
<!-- Node14 -->
<g id="Node000014" class="node">
<title>Node14</title>
<g id="a_Node000014"><a xlink:href="_mean_amplitude_8h.html" target="_top" xlink:title=" ">
<polygon fill="white" stroke="#666666" points="1294,-129.75 1146.75,-129.75 1146.75,-110.5 1294,-110.5 1294,-129.75"/>
<text text-anchor="middle" x="1220.38" y="-116.25" font-family="Helvetica,sans-Serif" font-size="10.00">src/modules/MeanAmplitude.h</text>
</a>
</g>
</g>
<!-- Node1&#45;&gt;Node14 -->
<g id="edge22_Node000001_Node000014" class="edge">
<title>Node1&#45;&gt;Node14</title>
<g id="a_edge22_Node000001_Node000014"><a xlink:title=" ">
<path fill="none" stroke="#63b8ff" d="M747.07,-229.35C861.31,-227.91 1091.19,-220.54 1162.38,-185 1187.3,-172.56 1206.62,-144.48 1215.33,-130.05"/>
<polygon fill="#63b8ff" stroke="#63b8ff" points="747.19,-225.84 737.23,-229.46 747.27,-232.84 747.19,-225.84"/>
</a>
</g>
</g>
<!-- Node15 -->
<g id="Node000015" class="node">
<title>Node15</title>
<g id="a_Node000015"><a xlink:href="_noisiness_8h.html" target="_top" xlink:title=" ">
<polygon fill="white" stroke="#666666" points="1052,-129.75 928.75,-129.75 928.75,-110.5 1052,-110.5 1052,-129.75"/>
<text text-anchor="middle" x="990.38" y="-116.25" font-family="Helvetica,sans-Serif" font-size="10.00">src/modules/Noisiness.h</text>
</a>
</g>
</g>
<!-- Node1&#45;&gt;Node15 -->
<g id="edge24_Node000001_Node000015" class="edge">
<title>Node1&#45;&gt;Node15</title>
<g id="a_edge24_Node000001_Node000015"><a xlink:title=" ">
<path fill="none" stroke="#63b8ff" d="M746.84,-225.96C795.12,-221.2 861.35,-210.23 914.38,-185 943.01,-171.37 969.75,-144.34 982.52,-130.21"/>
<polygon fill="#63b8ff" stroke="#63b8ff" points="746.74,-222.46 737.1,-226.86 747.37,-229.43 746.74,-222.46"/>
</a>
</g>
</g>
<!-- Node16 -->
<g id="Node000016" class="node">
<title>Node16</title>
<g id="a_Node000016"><a xlink:href="_total_amplitude_8h.html" target="_top" xlink:title=" ">
<polygon fill="white" stroke="#666666" points="1152.88,-185 1007.88,-185 1007.88,-165.75 1152.88,-165.75 1152.88,-185"/>
<text text-anchor="middle" x="1080.38" y="-171.5" font-family="Helvetica,sans-Serif" font-size="10.00">src/modules/TotalAmplitude.h</text>
</a>
</g>
</g>
<!-- Node1&#45;&gt;Node16 -->
<g id="edge29_Node000001_Node000016" class="edge">
<title>Node1&#45;&gt;Node16</title>
<g id="a_edge29_Node000001_Node000016"><a xlink:title=" ">
<path fill="none" stroke="#63b8ff" d="M746.95,-220.87C820.14,-211.1 938.02,-195.37 1012.24,-185.47"/>
<polygon fill="#63b8ff" stroke="#63b8ff" points="746.55,-217.4 737.1,-222.19 747.48,-224.33 746.55,-217.4"/>
</a>
</g>
</g>
<!-- Node17 -->
<g id="Node000017" class="node">
<title>Node17</title>
<g id="a_Node000017"><a xlink:href="_vocal_detection_8h.html" target="_top" xlink:title=" ">
<polygon fill="white" stroke="#666666" points="1384.25,-185 1238.5,-185 1238.5,-165.75 1384.25,-165.75 1384.25,-185"/>
<text text-anchor="middle" x="1311.38" y="-171.5" font-family="Helvetica,sans-Serif" font-size="10.00">src/modules/VocalDetection.h</text>
</a>
</g>
</g>
<!-- Node1&#45;&gt;Node17 -->
<g id="edge34_Node000001_Node000017" class="edge">
<title>Node1&#45;&gt;Node17</title>
<g id="a_edge34_Node000001_Node000017"><a xlink:title=" ">
<path fill="none" stroke="#63b8ff" d="M747.05,-224.24C847.67,-215.96 1046.01,-199.53 1214.38,-185 1222.04,-184.34 1230.04,-183.64 1238.02,-182.94"/>
<polygon fill="#63b8ff" stroke="#63b8ff" points="747.05,-220.72 737.37,-225.03 747.62,-227.7 747.05,-220.72"/>
</a>
</g>
</g>
<!-- Node4&#45;&gt;Node3 -->
<g id="edge4_Node000004_Node000003" class="edge">
<title>Node4&#45;&gt;Node3</title>
<g id="a_edge4_Node000004_Node000003"><a xlink:title=" ">
<path fill="none" stroke="#63b8ff" d="M253.42,-159.61C241.34,-152.14 228.11,-142.04 219.38,-129.75 199.75,-102.15 180.54,-80.26 203.38,-55.25 233.1,-22.7 532.92,-13.64 648.9,-11.34"/>
<polygon fill="#63b8ff" stroke="#63b8ff" points="251.46,-162.52 261.86,-164.5 254.96,-156.46 251.46,-162.52"/>
</a>
</g>
</g>
<!-- Node5 -->
<g id="Node000005" class="node">
<title>Node5</title>
<g id="a_Node000005"><a xlink:href="_module_group_8cpp.html" target="_top" xlink:title=" ">
<polygon fill="white" stroke="#666666" points="336.5,-129.75 228.25,-129.75 228.25,-110.5 336.5,-110.5 336.5,-129.75"/>
<text text-anchor="middle" x="282.38" y="-116.25" font-family="Helvetica,sans-Serif" font-size="10.00">src/ModuleGroup.cpp</text>
</a>
</g>
</g>
<!-- Node4&#45;&gt;Node5 -->
<g id="edge5_Node000004_Node000005" class="edge">
<title>Node4&#45;&gt;Node5</title>
<g id="a_edge5_Node000004_Node000005"><a xlink:title=" ">
<path fill="none" stroke="#63b8ff" d="M282.38,-154.13C282.38,-145.84 282.38,-136.67 282.38,-130.11"/>
<polygon fill="#63b8ff" stroke="#63b8ff" points="278.88,-154.07 282.38,-164.07 285.88,-154.07 278.88,-154.07"/>
</a>
</g>
</g>
<!-- Node6&#45;&gt;Node3 -->
<g id="edge7_Node000006_Node000003" class="edge">
<title>Node6&#45;&gt;Node3</title>
<g id="a_edge7_Node000006_Node000003"><a xlink:title=" ">
<path fill="none" stroke="#63b8ff" d="M353.85,-54.11C440.25,-43.08 578.05,-25.48 648.95,-16.43"/>
<polygon fill="#63b8ff" stroke="#63b8ff" points="353.51,-50.62 344.03,-55.36 354.4,-57.57 353.51,-50.62"/>
</a>
</g>
</g>
<!-- Node7&#45;&gt;Node3 -->
<g id="edge9_Node000007_Node000003" class="edge">
<title>Node7&#45;&gt;Node3</title>
<g id="a_edge9_Node000007_Node000003"><a xlink:title=" ">
<path fill="none" stroke="#63b8ff" d="M476.75,-52.61C528.07,-42.71 601.73,-28.5 648.81,-19.42"/>
<polygon fill="#63b8ff" stroke="#63b8ff" points="476.15,-49.16 466.99,-54.49 477.48,-56.04 476.15,-49.16"/>
</a>
</g>
</g>
<!-- Node8&#45;&gt;Node3 -->
<g id="edge11_Node000008_Node000003" class="edge">
<title>Node8&#45;&gt;Node3</title>
<g id="a_edge11_Node000008_Node000003"><a xlink:title=" ">
<path fill="none" stroke="#63b8ff" d="M602.38,-103.34C613.29,-95.17 626.42,-84.77 637.38,-74.5 656.89,-56.2 677.14,-32.06 687.45,-19.33"/>
<polygon fill="#63b8ff" stroke="#63b8ff" points="600.32,-100.51 594.34,-109.26 604.47,-106.15 600.32,-100.51"/>
</a>
</g>
</g>
<!-- Node8&#45;&gt;Node9 -->
<g id="edge12_Node000008_Node000009" class="edge">
<title>Node8&#45;&gt;Node9</title>
<g id="a_edge12_Node000008_Node000009"><a xlink:title=" ">
<path fill="none" stroke="#63b8ff" d="M657.61,-108.5C728.91,-98.69 833.7,-84.27 901.24,-74.98"/>
<polygon fill="#63b8ff" stroke="#63b8ff" points="657.39,-104.99 647.96,-109.83 658.35,-111.93 657.39,-104.99"/>
</a>
</g>
</g>
<!-- Node8&#45;&gt;Node10 -->
<g id="edge14_Node000008_Node000010" class="edge">
<title>Node8&#45;&gt;Node10</title>
<g id="a_edge14_Node000008_Node000010"><a xlink:title=" ">
<path fill="none" stroke="#63b8ff" d="M573.46,-99.75C570.42,-91.24 567.01,-81.65 564.58,-74.86"/>
<polygon fill="#63b8ff" stroke="#63b8ff" points="570.07,-100.66 576.73,-108.91 576.66,-98.31 570.07,-100.66"/>
</a>
</g>
</g>
<!-- Node9&#45;&gt;Node3 -->
<g id="edge13_Node000009_Node000003" class="edge">
<title>Node9&#45;&gt;Node3</title>
<g id="a_edge13_Node000009_Node000003"><a xlink:title=" ">
<path fill="none" stroke="#63b8ff" d="M909.67,-52.62C859.07,-42.75 786.49,-28.59 739.89,-19.5"/>
<polygon fill="#63b8ff" stroke="#63b8ff" points="908.78,-56.01 919.27,-54.49 910.12,-49.14 908.78,-56.01"/>
</a>
</g>
</g>
<!-- Node10&#45;&gt;Node3 -->
<g id="edge15_Node000010_Node000003" class="edge">
<title>Node10&#45;&gt;Node3</title>
<g id="a_edge15_Node000010_Node000003"><a xlink:title=" ">
<path fill="none" stroke="#63b8ff" d="M594.37,-50.66C618.45,-41.02 650.46,-28.21 671.7,-19.7"/>
<polygon fill="#63b8ff" stroke="#63b8ff" points="593.32,-47.31 585.34,-54.28 595.93,-53.81 593.32,-47.31"/>
</a>
</g>
</g>
<!-- Node12&#45;&gt;Node3 -->
<g id="edge18_Node000012_Node000003" class="edge">
<title>Node12&#45;&gt;Node3</title>
<g id="a_edge18_Node000012_Node000003"><a xlink:title=" ">
<path fill="none" stroke="#63b8ff" d="M682.98,-154.22C685.82,-118.36 691.66,-44.85 693.67,-19.47"/>
<polygon fill="#63b8ff" stroke="#63b8ff" points="679.5,-153.82 682.19,-164.06 686.47,-154.37 679.5,-153.82"/>
</a>
</g>
</g>
<!-- Node12&#45;&gt;Node11 -->
<g id="edge19_Node000012_Node000011" class="edge">
<title>Node12&#45;&gt;Node11</title>
<g id="a_edge19_Node000012_Node000011"><a xlink:title=" ">
<path fill="none" stroke="#63b8ff" d="M706.48,-159.84C722.83,-150.38 743.66,-138.33 757.69,-130.2"/>
<polygon fill="#63b8ff" stroke="#63b8ff" points="705.19,-156.54 698.29,-164.58 708.7,-162.6 705.19,-156.54"/>
</a>
</g>
</g>
<!-- Node13&#45;&gt;Node3 -->
<g id="edge21_Node000013_Node000003" class="edge">
<title>Node13&#45;&gt;Node3</title>
<g id="a_edge21_Node000013_Node000003"><a xlink:title=" ">
<path fill="none" stroke="#63b8ff" d="M766.85,-49.61C749.18,-40.11 726.5,-27.9 711.25,-19.7"/>
<polygon fill="#63b8ff" stroke="#63b8ff" points="764.78,-52.47 775.25,-54.12 768.1,-46.31 764.78,-52.47"/>
</a>
</g>
</g>
<!-- Node14&#45;&gt;Node3 -->
<g id="edge23_Node000014_Node000003" class="edge">
<title>Node14&#45;&gt;Node3</title>
<g id="a_edge23_Node000014_Node000003"><a xlink:title=" ">
<path fill="none" stroke="#63b8ff" d="M1203.48,-102.58C1186.87,-87.43 1160.05,-65.82 1132.38,-55.25 1061.41,-28.16 836.63,-16.24 739.65,-12.26"/>
<polygon fill="#63b8ff" stroke="#63b8ff" points="1200.81,-104.88 1210.49,-109.18 1205.61,-99.78 1200.81,-104.88"/>
</a>
</g>
</g>
<!-- Node15&#45;&gt;Node3 -->
<g id="edge25_Node000015_Node000003" class="edge">
<title>Node15&#45;&gt;Node3</title>
<g id="a_edge25_Node000015_Node000003"><a xlink:title=" ">
<path fill="none" stroke="#63b8ff" d="M1024.26,-105.42C1049.9,-93.11 1078.09,-74.12 1061.38,-55.25 1040.36,-31.53 833.34,-17.85 739.82,-12.83"/>
<polygon fill="#63b8ff" stroke="#63b8ff" points="1022.96,-102.16 1015.3,-109.48 1025.85,-108.54 1022.96,-102.16"/>
</a>
</g>
</g>
<!-- Node15&#45;&gt;Node9 -->
<g id="edge26_Node000015_Node000009" class="edge">
<title>Node15&#45;&gt;Node9</title>
<g id="a_edge26_Node000015_Node000009"><a xlink:title=" ">
<path fill="none" stroke="#63b8ff" d="M982.13,-100.04C978.42,-91.46 974.22,-81.73 971.26,-74.86"/>
<polygon fill="#63b8ff" stroke="#63b8ff" points="978.8,-101.15 985.98,-108.94 985.22,-98.37 978.8,-101.15"/>
</a>
</g>
</g>
<!-- Node16&#45;&gt;Node3 -->
<g id="edge30_Node000016_Node000003" class="edge">
<title>Node16&#45;&gt;Node3</title>
<g id="a_edge30_Node000016_Node000003"><a xlink:title=" ">
<path fill="none" stroke="#63b8ff" d="M1087.13,-154.63C1094.75,-128.33 1103.09,-82.01 1078.38,-55.25 1055.72,-30.72 836.25,-17.36 739.64,-12.63"/>
<polygon fill="#63b8ff" stroke="#63b8ff" points="1083.84,-153.43 1084.16,-164.02 1090.52,-155.54 1083.84,-153.43"/>
</a>
</g>
</g>
<!-- Node16&#45;&gt;Node9 -->
<g id="edge33_Node000016_Node000009" class="edge">
<title>Node16&#45;&gt;Node9</title>
<g id="a_edge33_Node000016_Node000009"><a xlink:title=" ">
<path fill="none" stroke="#63b8ff" d="M1078.67,-154.3C1076.56,-140.58 1071.86,-122.74 1061.38,-110.5 1046.21,-92.8 1022.46,-81.61 1002.63,-74.86"/>
<polygon fill="#63b8ff" stroke="#63b8ff" points="1075.16,-154.42 1079.79,-163.95 1082.11,-153.62 1075.16,-154.42"/>
</a>
</g>
</g>
<!-- Node16&#45;&gt;Node14 -->
<g id="edge31_Node000016_Node000014" class="edge">
<title>Node16&#45;&gt;Node14</title>
<g id="a_edge31_Node000016_Node000014"><a xlink:title=" ">
<path fill="none" stroke="#63b8ff" d="M1114.77,-161.29C1140.15,-151.64 1174.04,-138.75 1196.51,-130.2"/>
<polygon fill="#63b8ff" stroke="#63b8ff" points="1113.64,-157.98 1105.54,-164.8 1116.13,-164.52 1113.64,-157.98"/>
</a>
</g>
</g>
<!-- Node16&#45;&gt;Node15 -->
<g id="edge32_Node000016_Node000015" class="edge">
<title>Node16&#45;&gt;Node15</title>
<g id="a_edge32_Node000016_Node000015"><a xlink:title=" ">
<path fill="none" stroke="#63b8ff" d="M1055.36,-159.57C1039.43,-150.15 1019.32,-138.25 1005.72,-130.2"/>
<polygon fill="#63b8ff" stroke="#63b8ff" points="1053.42,-162.49 1063.81,-164.57 1056.98,-156.47 1053.42,-162.49"/>
</a>
</g>
</g>
<!-- Node17&#45;&gt;Node3 -->
<g id="edge35_Node000017_Node000003" class="edge">
<title>Node17&#45;&gt;Node3</title>
<g id="a_edge35_Node000017_Node000003"><a xlink:title=" ">
<path fill="none" stroke="#63b8ff" d="M1313.85,-154.34C1314.44,-140.64 1312.92,-122.8 1303.38,-110.5 1262.38,-57.65 1228.42,-70.85 1163.38,-55.25 1011.06,-18.72 824.18,-11.87 739.68,-10.74"/>
<polygon fill="#63b8ff" stroke="#63b8ff" points="1310.39,-153.7 1313.01,-163.97 1317.37,-154.31 1310.39,-153.7"/>
</a>
</g>
</g>
</g>
</svg>
