<?xml version="1.0" encoding="UTF-8" standalone="no"?>
<!DOCTYPE svg PUBLIC "-//W3C//DTD SVG 1.1//EN"
 "http://www.w3.org/Graphics/SVG/1.1/DTD/svg11.dtd">
<!-- Generated by graphviz version 12.2.0 (20241103.1931)
 -->
<!-- Title: src/AudioPrism.h Pages: 1 -->
<svg width="1250pt" height="359pt"
 viewBox="0.00 0.00 1250.25 358.75" xmlns="http://www.w3.org/2000/svg" xmlns:xlink="http://www.w3.org/1999/xlink">
<g id="graph0" class="graph" transform="scale(1 1) rotate(0) translate(4 354.75)">
<title>src/AudioPrism.h</title>
<!-- Node1 -->
<g id="Node000001" class="node">
<title>Node1</title>
<g id="a_Node000001"><a xlink:title=" ">
<polygon fill="#999999" stroke="#666666" points="566.12,-350.75 475.88,-350.75 475.88,-331.5 566.12,-331.5 566.12,-350.75"/>
<text text-anchor="middle" x="521" y="-337.25" font-family="Helvetica,sans-Serif" font-size="10.00">src/AudioPrism.h</text>
</a>
</g>
</g>
<!-- Node2 -->
<g id="Node000002" class="node">
<title>Node2</title>
<g id="a_Node000002"><a xlink:href="_analysis_module_8h.html" target="_top" xlink:title=" ">
<polygon fill="white" stroke="#666666" points="505.88,-129.75 414.12,-129.75 414.12,-110.5 505.88,-110.5 505.88,-129.75"/>
<text text-anchor="middle" x="460" y="-116.25" font-family="Helvetica,sans-Serif" font-size="10.00">AnalysisModule.h</text>
</a>
</g>
</g>
<!-- Node1&#45;&gt;Node2 -->
<g id="edge1_Node000001_Node000002" class="edge">
<title>Node1&#45;&gt;Node2</title>
<g id="a_edge1_Node000001_Node000002"><a xlink:title=" ">
<path fill="none" stroke="#63b8ff" d="M516.86,-331.23C509.01,-314.02 491.84,-274.8 482,-240.25 472.28,-206.13 465.82,-165.25 462.54,-141.34"/>
<polygon fill="#63b8ff" stroke="#63b8ff" points="466.05,-141.19 461.28,-131.73 459.11,-142.1 466.05,-141.19"/>
</a>
</g>
</g>
<!-- Node7 -->
<g id="Node000007" class="node">
<title>Node7</title>
<g id="a_Node000007"><a xlink:href="_spectrogram_8h.html" target="_top" xlink:title=" ">
<polygon fill="white" stroke="#666666" points="203.5,-74.5 124.5,-74.5 124.5,-55.25 203.5,-55.25 203.5,-74.5"/>
<text text-anchor="middle" x="164" y="-61" font-family="Helvetica,sans-Serif" font-size="10.00">Spectrogram.h</text>
</a>
</g>
</g>
<!-- Node1&#45;&gt;Node7 -->
<g id="edge13_Node000001_Node000007" class="edge">
<title>Node1&#45;&gt;Node7</title>
<g id="a_edge13_Node000001_Node000007"><a xlink:title=" ">
<path fill="none" stroke="#63b8ff" d="M475.68,-340.27C348.92,-339.45 0,-328.41 0,-231.62 0,-231.62 0,-231.62 0,-174.38 0,-119.27 65.21,-90.52 113.39,-76.79"/>
<polygon fill="#63b8ff" stroke="#63b8ff" points="114.09,-80.23 122.84,-74.25 112.27,-73.47 114.09,-80.23"/>
</a>
</g>
</g>
<!-- Node10 -->
<g id="Node000010" class="node">
<title>Node10</title>
<g id="a_Node000010"><a xlink:href="_module_group_8h.html" target="_top" xlink:title=" ">
<polygon fill="white" stroke="#666666" points="109.62,-185 28.38,-185 28.38,-165.75 109.62,-165.75 109.62,-185"/>
<text text-anchor="middle" x="69" y="-171.5" font-family="Helvetica,sans-Serif" font-size="10.00">ModuleGroup.h</text>
</a>
</g>
</g>
<!-- Node1&#45;&gt;Node10 -->
<g id="edge9_Node000001_Node000010" class="edge">
<title>Node1&#45;&gt;Node10</title>
<g id="a_edge9_Node000001_Node000010"><a xlink:title=" ">
<path fill="none" stroke="#63b8ff" d="M475.63,-339.88C386.32,-338.6 191.67,-331.62 137,-295.5 101.68,-272.16 82.62,-223.79 74.27,-196.41"/>
<polygon fill="#63b8ff" stroke="#63b8ff" points="77.68,-195.59 71.58,-186.93 70.95,-197.5 77.68,-195.59"/>
</a>
</g>
</g>
<!-- Node11 -->
<g id="Node000011" class="node">
<title>Node11</title>
<g id="a_Node000011"><a xlink:href="_bread_slicer_8h.html" target="_top" xlink:title=" ">
<polygon fill="white" stroke="#666666" points="794.75,-240.25 681.25,-240.25 681.25,-221 794.75,-221 794.75,-240.25"/>
<text text-anchor="middle" x="738" y="-226.75" font-family="Helvetica,sans-Serif" font-size="10.00">modules/BreadSlicer.h</text>
</a>
</g>
</g>
<!-- Node1&#45;&gt;Node11 -->
<g id="edge14_Node000001_Node000011" class="edge">
<title>Node1&#45;&gt;Node11</title>
<g id="a_edge14_Node000001_Node000011"><a xlink:title=" ">
<path fill="none" stroke="#63b8ff" d="M566.58,-333.43C598.87,-327.2 642.26,-315.74 676,-295.5 695.81,-283.62 713.63,-263.83 725.02,-249.42"/>
<polygon fill="#63b8ff" stroke="#63b8ff" points="727.65,-251.75 730.92,-241.67 722.08,-247.51 727.65,-251.75"/>
</a>
</g>
</g>
<!-- Node13 -->
<g id="Node000013" class="node">
<title>Node13</title>
<g id="a_Node000013"><a xlink:href="_centroid_8h.html" target="_top" xlink:title=" ">
<polygon fill="white" stroke="#666666" points="911.62,-240.25 812.38,-240.25 812.38,-221 911.62,-221 911.62,-240.25"/>
<text text-anchor="middle" x="862" y="-226.75" font-family="Helvetica,sans-Serif" font-size="10.00">modules/Centroid.h</text>
</a>
</g>
</g>
<!-- Node1&#45;&gt;Node13 -->
<g id="edge17_Node000001_Node000013" class="edge">
<title>Node1&#45;&gt;Node13</title>
<g id="a_edge17_Node000001_Node000013"><a xlink:title=" ">
<path fill="none" stroke="#63b8ff" d="M564.99,-331.06C601.94,-323.03 655.93,-310.3 702,-295.5 748.11,-280.69 799.89,-259.06 831.73,-245.17"/>
<polygon fill="#63b8ff" stroke="#63b8ff" points="832.99,-248.44 840.73,-241.21 830.17,-242.03 832.99,-248.44"/>
</a>
</g>
</g>
<!-- Node14 -->
<g id="Node000014" class="node">
<title>Node14</title>
<g id="a_Node000014"><a xlink:href="_delta_amplitudes_8h.html" target="_top" xlink:title=" ">
<polygon fill="white" stroke="#666666" points="625.25,-240.25 490.75,-240.25 490.75,-221 625.25,-221 625.25,-240.25"/>
<text text-anchor="middle" x="558" y="-226.75" font-family="Helvetica,sans-Serif" font-size="10.00">modules/DeltaAmplitudes.h</text>
</a>
</g>
</g>
<!-- Node1&#45;&gt;Node14 -->
<g id="edge20_Node000001_Node000014" class="edge">
<title>Node1&#45;&gt;Node14</title>
<g id="a_edge20_Node000001_Node000014"><a xlink:title=" ">
<path fill="none" stroke="#63b8ff" d="M523.32,-331.36C526.67,-318.98 533.2,-295.69 540,-276.25 542.93,-267.87 546.53,-258.76 549.73,-250.97"/>
<polygon fill="#63b8ff" stroke="#63b8ff" points="552.93,-252.39 553.58,-241.82 546.48,-249.68 552.93,-252.39"/>
</a>
</g>
</g>
<!-- Node15 -->
<g id="Node000015" class="node">
<title>Node15</title>
<g id="a_Node000015"><a xlink:href="_major_peaks_8h.html" target="_top" xlink:title=" ">
<polygon fill="white" stroke="#666666" points="886.5,-295.5 771.5,-295.5 771.5,-276.25 886.5,-276.25 886.5,-295.5"/>
<text text-anchor="middle" x="829" y="-282" font-family="Helvetica,sans-Serif" font-size="10.00">modules/MajorPeaks.h</text>
</a>
</g>
</g>
<!-- Node1&#45;&gt;Node15 -->
<g id="edge23_Node000001_Node000015" class="edge">
<title>Node1&#45;&gt;Node15</title>
<g id="a_edge23_Node000001_Node000015"><a xlink:title=" ">
<path fill="none" stroke="#63b8ff" d="M566.45,-332.27C619.03,-323.18 705.97,-308.15 765.29,-297.89"/>
<polygon fill="#63b8ff" stroke="#63b8ff" points="765.65,-301.38 774.9,-296.23 764.45,-294.48 765.65,-301.38"/>
</a>
</g>
</g>
<!-- Node16 -->
<g id="Node000016" class="node">
<title>Node16</title>
<g id="a_Node000016"><a xlink:href="_max_amplitude_8h.html" target="_top" xlink:title=" ">
<polygon fill="white" stroke="#666666" points="1030.38,-295.5 905.62,-295.5 905.62,-276.25 1030.38,-276.25 1030.38,-295.5"/>
<text text-anchor="middle" x="968" y="-282" font-family="Helvetica,sans-Serif" font-size="10.00">modules/MaxAmplitude.h</text>
</a>
</g>
</g>
<!-- Node1&#45;&gt;Node16 -->
<g id="edge25_Node000001_Node000016" class="edge">
<title>Node1&#45;&gt;Node16</title>
<g id="a_edge25_Node000001_Node000016"><a xlink:title=" ">
<path fill="none" stroke="#63b8ff" d="M566.6,-334.71C635.13,-326.57 769.05,-310.65 893.89,-295.75"/>
<polygon fill="#63b8ff" stroke="#63b8ff" points="894.15,-299.24 903.67,-294.58 893.32,-292.29 894.15,-299.24"/>
</a>
</g>
</g>
<!-- Node17 -->
<g id="Node000017" class="node">
<title>Node17</title>
<g id="a_Node000017"><a xlink:href="_mean_amplitude_8h.html" target="_top" xlink:title=" ">
<polygon fill="white" stroke="#666666" points="435.38,-240.25 304.62,-240.25 304.62,-221 435.38,-221 435.38,-240.25"/>
<text text-anchor="middle" x="370" y="-226.75" font-family="Helvetica,sans-Serif" font-size="10.00">modules/MeanAmplitude.h</text>
</a>
</g>
</g>
<!-- Node1&#45;&gt;Node17 -->
<g id="edge27_Node000001_Node000017" class="edge">
<title>Node1&#45;&gt;Node17</title>
<g id="a_edge27_Node000001_Node000017"><a xlink:title=" ">
<path fill="none" stroke="#63b8ff" d="M505.19,-331.1C490.35,-322.45 467.71,-308.78 449,-295.5 427.8,-280.45 404.82,-261.55 389.14,-248.23"/>
<polygon fill="#63b8ff" stroke="#63b8ff" points="391.42,-245.58 381.55,-241.72 386.87,-250.89 391.42,-245.58"/>
</a>
</g>
</g>
<!-- Node18 -->
<g id="Node000018" class="node">
<title>Node18</title>
<g id="a_Node000018"><a xlink:href="_total_amplitude_8h.html" target="_top" xlink:title=" ">
<polygon fill="white" stroke="#666666" points="277.38,-185 188.62,-185 188.62,-165.75 277.38,-165.75 277.38,-185"/>
<text text-anchor="middle" x="233" y="-171.5" font-family="Helvetica,sans-Serif" font-size="10.00">TotalAmplitude.h</text>
</a>
</g>
</g>
<!-- Node1&#45;&gt;Node18 -->
<g id="edge43_Node000001_Node000018" class="edge">
<title>Node1&#45;&gt;Node18</title>
<g id="a_edge43_Node000001_Node000018"><a xlink:title=" ">
<path fill="none" stroke="#63b8ff" d="M475.42,-338.02C380.47,-333.16 168.49,-319.71 147,-295.5 132.63,-279.31 146.02,-244.77 164,-221 173.64,-208.25 188.06,-198.11 201.23,-190.74"/>
<polygon fill="#63b8ff" stroke="#63b8ff" points="202.82,-193.86 210.07,-186.13 199.58,-187.66 202.82,-193.86"/>
</a>
</g>
</g>
<!-- Node19 -->
<g id="Node000019" class="node">
<title>Node19</title>
<g id="a_Node000019"><a xlink:href="_noisiness_8h.html" target="_top" xlink:title=" ">
<polygon fill="white" stroke="#666666" points="286.38,-240.25 179.62,-240.25 179.62,-221 286.38,-221 286.38,-240.25"/>
<text text-anchor="middle" x="233" y="-226.75" font-family="Helvetica,sans-Serif" font-size="10.00">modules/Noisiness.h</text>
</a>
</g>
</g>
<!-- Node1&#45;&gt;Node19 -->
<g id="edge31_Node000001_Node000019" class="edge">
<title>Node1&#45;&gt;Node19</title>
<g id="a_edge31_Node000001_Node000019"><a xlink:title=" ">
<path fill="none" stroke="#63b8ff" d="M496.94,-331.06C446.01,-311.87 327.14,-267.09 267.87,-244.76"/>
<polygon fill="#63b8ff" stroke="#63b8ff" points="269.2,-241.52 258.61,-241.27 266.73,-248.07 269.2,-241.52"/>
</a>
</g>
</g>
<!-- Node20 -->
<g id="Node000020" class="node">
<title>Node20</title>
<g id="a_Node000020"><a xlink:href="_percussion_detection_8h.html" target="_top" xlink:title=" ">
<polygon fill="white" stroke="#666666" points="309.62,-295.5 156.38,-295.5 156.38,-276.25 309.62,-276.25 309.62,-295.5"/>
<text text-anchor="middle" x="233" y="-282" font-family="Helvetica,sans-Serif" font-size="10.00">modules/PercussionDetection.h</text>
</a>
</g>
</g>
<!-- Node1&#45;&gt;Node20 -->
<g id="edge35_Node000001_Node000020" class="edge">
<title>Node1&#45;&gt;Node20</title>
<g id="a_edge35_Node000001_Node000020"><a xlink:title=" ">
<path fill="none" stroke="#63b8ff" d="M475.68,-331.75C426.44,-322.64 347.52,-308.05 293.12,-297.99"/>
<polygon fill="#63b8ff" stroke="#63b8ff" points="293.86,-294.57 283.39,-296.19 292.59,-301.45 293.86,-294.57"/>
</a>
</g>
</g>
<!-- Node21 -->
<g id="Node000021" class="node">
<title>Node21</title>
<g id="a_Node000021"><a xlink:href="_salient_freqs_8h.html" target="_top" xlink:title=" ">
<polygon fill="white" stroke="#666666" points="667,-295.5 549,-295.5 549,-276.25 667,-276.25 667,-295.5"/>
<text text-anchor="middle" x="608" y="-282" font-family="Helvetica,sans-Serif" font-size="10.00">modules/SalientFreqs.h</text>
</a>
</g>
</g>
<!-- Node1&#45;&gt;Node21 -->
<g id="edge40_Node000001_Node000021" class="edge">
<title>Node1&#45;&gt;Node21</title>
<g id="a_edge40_Node000001_Node000021"><a xlink:title=" ">
<path fill="none" stroke="#63b8ff" d="M535.76,-331.09C548.88,-323.06 568.32,-311.16 583.73,-301.73"/>
<polygon fill="#63b8ff" stroke="#63b8ff" points="585.18,-304.95 591.88,-296.74 581.52,-298.98 585.18,-304.95"/>
</a>
</g>
</g>
<!-- Node22 -->
<g id="Node000022" class="node">
<title>Node22</title>
<g id="a_Node000022"><a xlink:href="_vocal_detection_8h.html" target="_top" xlink:title=" ">
<polygon fill="white" stroke="#666666" points="1135.62,-240.25 1006.38,-240.25 1006.38,-221 1135.62,-221 1135.62,-240.25"/>
<text text-anchor="middle" x="1071" y="-226.75" font-family="Helvetica,sans-Serif" font-size="10.00">modules/VocalDetection.h</text>
</a>
</g>
</g>
<!-- Node1&#45;&gt;Node22 -->
<g id="edge44_Node000001_Node000022" class="edge">
<title>Node1&#45;&gt;Node22</title>
<g id="a_edge44_Node000001_Node000022"><a xlink:title=" ">
<path fill="none" stroke="#63b8ff" d="M566.42,-338.73C685.52,-334.72 1000.35,-321.73 1039,-295.5 1053.91,-285.38 1062.21,-266.17 1066.59,-251.45"/>
<polygon fill="#63b8ff" stroke="#63b8ff" points="1069.95,-252.46 1069.04,-241.9 1063.16,-250.72 1069.95,-252.46"/>
</a>
</g>
</g>
<!-- Node23 -->
<g id="Node000023" class="node">
<title>Node23</title>
<g id="a_Node000023"><a xlink:href="_cross_correlation_8h.html" target="_top" xlink:title=" ">
<polygon fill="white" stroke="#666666" points="1242.25,-185 1083.75,-185 1083.75,-165.75 1242.25,-165.75 1242.25,-185"/>
<text text-anchor="middle" x="1163" y="-171.5" font-family="Helvetica,sans-Serif" font-size="10.00">./experimental/CrossCorrelation.h</text>
</a>
</g>
</g>
<!-- Node1&#45;&gt;Node23 -->
<g id="edge50_Node000001_Node000023" class="edge">
<title>Node1&#45;&gt;Node23</title>
<g id="a_edge50_Node000001_Node000023"><a xlink:title=" ">
<path fill="none" stroke="#63b8ff" d="M566.32,-339.25C679.12,-336.62 969.96,-326.9 1061,-295.5 1103.24,-280.93 1118.61,-276.31 1145,-240.25 1154.28,-227.57 1158.78,-210.27 1160.96,-196.87"/>
<polygon fill="#63b8ff" stroke="#63b8ff" points="1164.43,-197.36 1162.23,-187 1157.48,-196.47 1164.43,-197.36"/>
</a>
</g>
</g>
<!-- Node3 -->
<g id="Node000003" class="node">
<title>Node3</title>
<g id="a_Node000003"><a xlink:title=" ">
<polygon fill="#e0e0e0" stroke="#999999" points="482.25,-74.5 425.75,-74.5 425.75,-55.25 482.25,-55.25 482.25,-74.5"/>
<text text-anchor="middle" x="454" y="-61" font-family="Helvetica,sans-Serif" font-size="10.00">Arduino.h</text>
</a>
</g>
</g>
<!-- Node2&#45;&gt;Node3 -->
<g id="edge2_Node000002_Node000003" class="edge">
<title>Node2&#45;&gt;Node3</title>
<g id="a_edge2_Node000002_Node000003"><a xlink:title=" ">
<path fill="none" stroke="#63b8ff" d="M459.01,-110.33C458.27,-103.74 457.22,-94.46 456.28,-86.07"/>
<polygon fill="#63b8ff" stroke="#63b8ff" points="459.78,-85.91 455.18,-76.36 452.82,-86.69 459.78,-85.91"/>
</a>
</g>
</g>
<!-- Node4 -->
<g id="Node000004" class="node">
<title>Node4</title>
<g id="a_Node000004"><a xlink:title=" ">
<polygon fill="#e0e0e0" stroke="#999999" points="396.62,-74.5 351.38,-74.5 351.38,-55.25 396.62,-55.25 396.62,-74.5"/>
<text text-anchor="middle" x="374" y="-61" font-family="Helvetica,sans-Serif" font-size="10.00">math.h</text>
</a>
</g>
</g>
<!-- Node2&#45;&gt;Node4 -->
<g id="edge3_Node000002_Node000004" class="edge">
<title>Node2&#45;&gt;Node4</title>
<g id="a_edge3_Node000002_Node000004"><a xlink:title=" ">
<path fill="none" stroke="#63b8ff" d="M445.41,-110.09C432.56,-102.14 413.59,-90.39 398.43,-81"/>
<polygon fill="#63b8ff" stroke="#63b8ff" points="400.29,-78.04 389.95,-75.75 396.61,-83.99 400.29,-78.04"/>
</a>
</g>
</g>
<!-- Node5 -->
<g id="Node000005" class="node">
<title>Node5</title>
<g id="a_Node000005"><a xlink:title=" ">
<polygon fill="#e0e0e0" stroke="#999999" points="310.5,-74.5 267.5,-74.5 267.5,-55.25 310.5,-55.25 310.5,-74.5"/>
<text text-anchor="middle" x="289" y="-61" font-family="Helvetica,sans-Serif" font-size="10.00">vector</text>
</a>
</g>
</g>
<!-- Node2&#45;&gt;Node5 -->
<g id="edge4_Node000002_Node000005" class="edge">
<title>Node2&#45;&gt;Node5</title>
<g id="a_edge4_Node000002_Node000005"><a xlink:title=" ">
<path fill="none" stroke="#63b8ff" d="M430.99,-110.09C400.7,-100.66 353.27,-85.89 321.67,-76.05"/>
<polygon fill="#63b8ff" stroke="#63b8ff" points="322.84,-72.75 312.25,-73.12 320.76,-79.43 322.84,-72.75"/>
</a>
</g>
</g>
<!-- Node6 -->
<g id="Node000006" class="node">
<title>Node6</title>
<g id="a_Node000006"><a xlink:href="_config_8h.html" target="_top" xlink:title=" ">
<polygon fill="white" stroke="#666666" points="551.25,-74.5 500.75,-74.5 500.75,-55.25 551.25,-55.25 551.25,-74.5"/>
<text text-anchor="middle" x="526" y="-61" font-family="Helvetica,sans-Serif" font-size="10.00">Config.h</text>
</a>
</g>
</g>
<!-- Node2&#45;&gt;Node6 -->
<g id="edge5_Node000002_Node000006" class="edge">
<title>Node2&#45;&gt;Node6</title>
<g id="a_edge5_Node000002_Node000006"><a xlink:title=" ">
<path fill="none" stroke="#63b8ff" d="M471.2,-110.09C480.74,-102.4 494.67,-91.15 506.11,-81.93"/>
<polygon fill="#63b8ff" stroke="#63b8ff" points="508.21,-84.73 513.79,-75.73 503.81,-79.28 508.21,-84.73"/>
</a>
</g>
</g>
<!-- Node2&#45;&gt;Node7 -->
<g id="edge6_Node000002_Node000007" class="edge">
<title>Node2&#45;&gt;Node7</title>
<g id="a_edge6_Node000002_Node000007"><a xlink:title=" ">
<path fill="none" stroke="#63b8ff" d="M413.75,-110.8C359.75,-101.09 270.72,-85.07 214.82,-75.02"/>
<polygon fill="#63b8ff" stroke="#63b8ff" points="215.72,-71.62 205.26,-73.3 214.48,-78.51 215.72,-71.62"/>
</a>
</g>
</g>
<!-- Node8 -->
<g id="Node000008" class="node">
<title>Node8</title>
<g id="a_Node000008"><a xlink:title=" ">
<polygon fill="#e0e0e0" stroke="#999999" points="1078.62,-19.25 1033.38,-19.25 1033.38,0 1078.62,0 1078.62,-19.25"/>
<text text-anchor="middle" x="1056" y="-5.75" font-family="Helvetica,sans-Serif" font-size="10.00">cstdint</text>
</a>
</g>
</g>
<!-- Node7&#45;&gt;Node8 -->
<g id="edge7_Node000007_Node000008" class="edge">
<title>Node7&#45;&gt;Node8</title>
<g id="a_edge7_Node000007_Node000008"><a xlink:title=" ">
<path fill="none" stroke="#63b8ff" d="M203.73,-59.96C220.74,-58.36 240.83,-56.58 259,-55.25 554.08,-33.6 911.3,-17.02 1021.79,-12.12"/>
<polygon fill="#63b8ff" stroke="#63b8ff" points="1021.81,-15.62 1031.64,-11.68 1021.5,-8.63 1021.81,-15.62"/>
</a>
</g>
</g>
<!-- Node9 -->
<g id="Node000009" class="node">
<title>Node9</title>
<g id="a_Node000009"><a xlink:title=" ">
<polygon fill="#e0e0e0" stroke="#999999" points="186.62,-19.25 141.38,-19.25 141.38,0 186.62,0 186.62,-19.25"/>
<text text-anchor="middle" x="164" y="-5.75" font-family="Helvetica,sans-Serif" font-size="10.00">cstring</text>
</a>
</g>
</g>
<!-- Node7&#45;&gt;Node9 -->
<g id="edge8_Node000007_Node000009" class="edge">
<title>Node7&#45;&gt;Node9</title>
<g id="a_edge8_Node000007_Node000009"><a xlink:title=" ">
<path fill="none" stroke="#63b8ff" d="M164,-55.08C164,-48.57 164,-39.42 164,-31.12"/>
<polygon fill="#63b8ff" stroke="#63b8ff" points="167.5,-31.12 164,-21.12 160.5,-31.12 167.5,-31.12"/>
</a>
</g>
</g>
<!-- Node10&#45;&gt;Node2 -->
<g id="edge11_Node000010_Node000002" class="edge">
<title>Node10&#45;&gt;Node2</title>
<g id="a_edge11_Node000010_Node000002"><a xlink:title=" ">
<path fill="none" stroke="#63b8ff" d="M109.83,-167.86C114.61,-167.13 119.41,-166.41 124,-165.75 221.72,-151.6 335.69,-136.83 402.62,-128.33"/>
<polygon fill="#63b8ff" stroke="#63b8ff" points="402.77,-131.84 412.25,-127.11 401.89,-124.89 402.77,-131.84"/>
</a>
</g>
</g>
<!-- Node10&#45;&gt;Node5 -->
<g id="edge10_Node000010_Node000005" class="edge">
<title>Node10&#45;&gt;Node5</title>
<g id="a_edge10_Node000010_Node000005"><a xlink:title=" ">
<path fill="none" stroke="#63b8ff" d="M87.38,-165.31C125.72,-146.4 214.46,-102.64 260.35,-80"/>
<polygon fill="#63b8ff" stroke="#63b8ff" points="261.74,-83.22 269.16,-75.66 258.64,-76.94 261.74,-83.22"/>
</a>
</g>
</g>
<!-- Node10&#45;&gt;Node7 -->
<g id="edge12_Node000010_Node000007" class="edge">
<title>Node10&#45;&gt;Node7</title>
<g id="a_edge12_Node000010_Node000007"><a xlink:title=" ">
<path fill="none" stroke="#63b8ff" d="M76.77,-165.5C92.43,-147.61 128.02,-106.97 148.57,-83.5"/>
<polygon fill="#63b8ff" stroke="#63b8ff" points="151.17,-85.84 155.12,-76.02 145.9,-81.23 151.17,-85.84"/>
</a>
</g>
</g>
<!-- Node11&#45;&gt;Node2 -->
<g id="edge15_Node000011_Node000002" class="edge">
<title>Node11&#45;&gt;Node2</title>
<g id="a_edge15_Node000011_Node000002"><a xlink:title=" ">
<path fill="none" stroke="#63b8ff" d="M730.76,-220.6C718.96,-206.56 694.17,-179.63 667,-165.75 620.07,-141.77 560.79,-130.65 517.71,-125.51"/>
<polygon fill="#63b8ff" stroke="#63b8ff" points="518.12,-122.03 507.79,-124.41 517.34,-128.99 518.12,-122.03"/>
</a>
</g>
</g>
<!-- Node12 -->
<g id="Node000012" class="node">
<title>Node12</title>
<g id="a_Node000012"><a xlink:title=" ">
<polygon fill="#e0e0e0" stroke="#999999" points="815.5,-185 772.5,-185 772.5,-165.75 815.5,-165.75 815.5,-185"/>
<text text-anchor="middle" x="794" y="-171.5" font-family="Helvetica,sans-Serif" font-size="10.00">cmath</text>
</a>
</g>
</g>
<!-- Node11&#45;&gt;Node12 -->
<g id="edge16_Node000011_Node000012" class="edge">
<title>Node11&#45;&gt;Node12</title>
<g id="a_edge16_Node000011_Node000012"><a xlink:title=" ">
<path fill="none" stroke="#63b8ff" d="M747.5,-220.59C755.43,-213.05 766.95,-202.1 776.54,-192.98"/>
<polygon fill="#63b8ff" stroke="#63b8ff" points="778.71,-195.74 783.54,-186.32 773.89,-190.67 778.71,-195.74"/>
</a>
</g>
</g>
<!-- Node13&#45;&gt;Node2 -->
<g id="edge18_Node000013_Node000002" class="edge">
<title>Node13&#45;&gt;Node2</title>
<g id="a_edge18_Node000013_Node000002"><a xlink:title=" ">
<path fill="none" stroke="#63b8ff" d="M859.68,-220.86C855.41,-206.65 844.89,-178.89 825,-165.75 775.75,-133.22 607.24,-124.4 517.44,-122.01"/>
<polygon fill="#63b8ff" stroke="#63b8ff" points="517.69,-118.52 507.61,-121.77 517.52,-125.52 517.69,-118.52"/>
</a>
</g>
</g>
<!-- Node13&#45;&gt;Node12 -->
<g id="edge19_Node000013_Node000012" class="edge">
<title>Node13&#45;&gt;Node12</title>
<g id="a_edge19_Node000013_Node000012"><a xlink:title=" ">
<path fill="none" stroke="#63b8ff" d="M850.46,-220.59C840.54,-212.82 825.99,-201.42 814.14,-192.15"/>
<polygon fill="#63b8ff" stroke="#63b8ff" points="816.59,-189.62 806.56,-186.21 812.27,-195.13 816.59,-189.62"/>
</a>
</g>
</g>
<!-- Node14&#45;&gt;Node2 -->
<g id="edge21_Node000014_Node000002" class="edge">
<title>Node14&#45;&gt;Node2</title>
<g id="a_edge21_Node000014_Node000002"><a xlink:title=" ">
<path fill="none" stroke="#63b8ff" d="M549.98,-220.75C533.76,-202.78 496.79,-161.86 475.64,-138.44"/>
<polygon fill="#63b8ff" stroke="#63b8ff" points="478.45,-136.32 469.15,-131.25 473.25,-141.02 478.45,-136.32"/>
</a>
</g>
</g>
<!-- Node14&#45;&gt;Node12 -->
<g id="edge22_Node000014_Node000012" class="edge">
<title>Node14&#45;&gt;Node12</title>
<g id="a_edge22_Node000014_Node000012"><a xlink:title=" ">
<path fill="none" stroke="#63b8ff" d="M598.3,-220.53C644.27,-210.16 718.56,-193.4 761.16,-183.79"/>
<polygon fill="#63b8ff" stroke="#63b8ff" points="761.82,-187.22 770.81,-181.61 760.28,-180.39 761.82,-187.22"/>
</a>
</g>
</g>
<!-- Node15&#45;&gt;Node2 -->
<g id="edge24_Node000015_Node000002" class="edge">
<title>Node15&#45;&gt;Node2</title>
<g id="a_edge24_Node000015_Node000002"><a xlink:title=" ">
<path fill="none" stroke="#63b8ff" d="M869.73,-275.76C888.77,-269.24 909.69,-258.3 921,-240.25 950.32,-193.44 883.28,-179.89 848,-165.75 789.38,-142.25 610.63,-129.32 517.61,-124.02"/>
<polygon fill="#63b8ff" stroke="#63b8ff" points="517.85,-120.53 507.68,-123.47 517.46,-127.52 517.85,-120.53"/>
</a>
</g>
</g>
<!-- Node16&#45;&gt;Node2 -->
<g id="edge26_Node000016_Node000002" class="edge">
<title>Node16&#45;&gt;Node2</title>
<g id="a_edge26_Node000016_Node000002"><a xlink:title=" ">
<path fill="none" stroke="#63b8ff" d="M965.33,-275.98C957.72,-252.43 933.39,-188.73 887,-165.75 823.49,-134.29 618.71,-124.95 517.59,-122.22"/>
<polygon fill="#63b8ff" stroke="#63b8ff" points="517.97,-118.73 507.88,-121.97 517.79,-125.73 517.97,-118.73"/>
</a>
</g>
</g>
<!-- Node17&#45;&gt;Node2 -->
<g id="edge28_Node000017_Node000002" class="edge">
<title>Node17&#45;&gt;Node2</title>
<g id="a_edge28_Node000017_Node000002"><a xlink:title=" ">
<path fill="none" stroke="#63b8ff" d="M377.37,-220.75C392.2,-202.86 425.91,-162.22 445.38,-138.75"/>
<polygon fill="#63b8ff" stroke="#63b8ff" points="447.88,-141.22 451.57,-131.29 442.49,-136.75 447.88,-141.22"/>
</a>
</g>
</g>
<!-- Node17&#45;&gt;Node18 -->
<g id="edge29_Node000017_Node000018" class="edge">
<title>Node17&#45;&gt;Node18</title>
<g id="a_edge29_Node000017_Node000018"><a xlink:title=" ">
<path fill="none" stroke="#63b8ff" d="M346.76,-220.59C324.81,-212.06 291.65,-199.17 266.79,-189.51"/>
<polygon fill="#63b8ff" stroke="#63b8ff" points="268.35,-186.36 257.76,-186 265.82,-192.89 268.35,-186.36"/>
</a>
</g>
</g>
<!-- Node18&#45;&gt;Node2 -->
<g id="edge30_Node000018_Node000002" class="edge">
<title>Node18&#45;&gt;Node2</title>
<g id="a_edge30_Node000018_Node000002"><a xlink:title=" ">
<path fill="none" stroke="#63b8ff" d="M271.76,-165.28C310.04,-156.3 368.74,-142.53 410.4,-132.76"/>
<polygon fill="#63b8ff" stroke="#63b8ff" points="410.99,-136.22 419.92,-130.53 409.39,-129.4 410.99,-136.22"/>
</a>
</g>
</g>
<!-- Node19&#45;&gt;Node2 -->
<g id="edge33_Node000019_Node000002" class="edge">
<title>Node19&#45;&gt;Node2</title>
<g id="a_edge33_Node000019_Node000002"><a xlink:title=" ">
<path fill="none" stroke="#63b8ff" d="M251.96,-220.56C291.6,-201.61 383.47,-157.7 430.74,-135.11"/>
<polygon fill="#63b8ff" stroke="#63b8ff" points="432.05,-138.36 439.57,-130.89 429.03,-132.05 432.05,-138.36"/>
</a>
</g>
</g>
<!-- Node19&#45;&gt;Node4 -->
<g id="edge32_Node000019_Node000004" class="edge">
<title>Node19&#45;&gt;Node4</title>
<g id="a_edge32_Node000019_Node000004"><a xlink:title=" ">
<path fill="none" stroke="#63b8ff" d="M245.07,-220.78C256.29,-212.26 273.16,-198.68 286,-185 316.81,-152.17 346.64,-108.52 362.42,-84.21"/>
<polygon fill="#63b8ff" stroke="#63b8ff" points="365.19,-86.37 367.64,-76.06 359.3,-82.59 365.19,-86.37"/>
</a>
</g>
</g>
<!-- Node19&#45;&gt;Node18 -->
<g id="edge34_Node000019_Node000018" class="edge">
<title>Node19&#45;&gt;Node18</title>
<g id="a_edge34_Node000019_Node000018"><a xlink:title=" ">
<path fill="none" stroke="#63b8ff" d="M233,-220.83C233,-214.32 233,-205.17 233,-196.87"/>
<polygon fill="#63b8ff" stroke="#63b8ff" points="236.5,-196.87 233,-186.87 229.5,-196.87 236.5,-196.87"/>
</a>
</g>
</g>
<!-- Node20&#45;&gt;Node2 -->
<g id="edge36_Node000020_Node000002" class="edge">
<title>Node20&#45;&gt;Node2</title>
<g id="a_edge36_Node000020_Node000002"><a xlink:title=" ">
<path fill="none" stroke="#63b8ff" d="M207.84,-275.89C192.17,-268.82 173.27,-257.29 164,-240.25 152.67,-219.42 169.85,-174.72 180,-165.75 212.18,-137.33 330.48,-126.92 402.62,-123.17"/>
<polygon fill="#63b8ff" stroke="#63b8ff" points="402.45,-126.69 412.27,-122.7 402.11,-119.69 402.45,-126.69"/>
</a>
</g>
</g>
<!-- Node20&#45;&gt;Node14 -->
<g id="edge37_Node000020_Node000014" class="edge">
<title>Node20&#45;&gt;Node14</title>
<g id="a_edge37_Node000020_Node000014"><a xlink:title=" ">
<path fill="none" stroke="#63b8ff" d="M288.5,-275.78C344.62,-266.59 431.39,-252.37 491.24,-242.56"/>
<polygon fill="#63b8ff" stroke="#63b8ff" points="491.66,-246.04 500.96,-240.97 490.53,-239.13 491.66,-246.04"/>
</a>
</g>
</g>
<!-- Node20&#45;&gt;Node18 -->
<g id="edge39_Node000020_Node000018" class="edge">
<title>Node20&#45;&gt;Node18</title>
<g id="a_edge39_Node000020_Node000018"><a xlink:title=" ">
<path fill="none" stroke="#63b8ff" d="M212.26,-275.81C189.93,-264.64 159.09,-244.24 171,-221 177.61,-208.09 189.89,-198.07 201.79,-190.82"/>
<polygon fill="#63b8ff" stroke="#63b8ff" points="203.2,-194.04 210.24,-186.12 199.8,-187.92 203.2,-194.04"/>
</a>
</g>
</g>
<!-- Node20&#45;&gt;Node19 -->
<g id="edge38_Node000020_Node000019" class="edge">
<title>Node20&#45;&gt;Node19</title>
<g id="a_edge38_Node000020_Node000019"><a xlink:title=" ">
<path fill="none" stroke="#63b8ff" d="M233,-276.08C233,-269.57 233,-260.42 233,-252.12"/>
<polygon fill="#63b8ff" stroke="#63b8ff" points="236.5,-252.12 233,-242.12 229.5,-252.12 236.5,-252.12"/>
</a>
</g>
</g>
<!-- Node21&#45;&gt;Node2 -->
<g id="edge41_Node000021_Node000002" class="edge">
<title>Node21&#45;&gt;Node2</title>
<g id="a_edge41_Node000021_Node000002"><a xlink:title=" ">
<path fill="none" stroke="#63b8ff" d="M616.74,-275.84C627.94,-263.12 644.68,-239.44 634,-221 606.92,-174.24 548.76,-147.47 507.14,-133.64"/>
<polygon fill="#63b8ff" stroke="#63b8ff" points="508.44,-130.38 497.85,-130.7 506.33,-137.06 508.44,-130.38"/>
</a>
</g>
</g>
<!-- Node21&#45;&gt;Node14 -->
<g id="edge42_Node000021_Node000014" class="edge">
<title>Node21&#45;&gt;Node14</title>
<g id="a_edge42_Node000021_Node000014"><a xlink:title=" ">
<path fill="none" stroke="#63b8ff" d="M599.74,-276.08C592.84,-268.73 582.78,-258.01 574.26,-248.94"/>
<polygon fill="#63b8ff" stroke="#63b8ff" points="576.87,-246.61 567.47,-241.71 571.77,-251.4 576.87,-246.61"/>
</a>
</g>
</g>
<!-- Node22&#45;&gt;Node2 -->
<g id="edge45_Node000022_Node000002" class="edge">
<title>Node22&#45;&gt;Node2</title>
<g id="a_edge45_Node000022_Node000002"><a xlink:title=" ">
<path fill="none" stroke="#63b8ff" d="M1063.34,-220.65C1050.35,-206.15 1022.44,-177.97 992,-165.75 907.1,-131.66 636.74,-123.61 517.47,-121.71"/>
<polygon fill="#63b8ff" stroke="#63b8ff" points="517.64,-118.21 507.59,-121.56 517.53,-125.21 517.64,-118.21"/>
</a>
</g>
</g>
<!-- Node22&#45;&gt;Node8 -->
<g id="edge49_Node000022_Node000008" class="edge">
<title>Node22&#45;&gt;Node8</title>
<g id="a_edge49_Node000022_Node000008"><a xlink:title=" ">
<path fill="none" stroke="#63b8ff" d="M1070.39,-220.77C1068.18,-188.51 1060.53,-76.76 1057.38,-30.71"/>
<polygon fill="#63b8ff" stroke="#63b8ff" points="1060.88,-30.6 1056.7,-20.86 1053.89,-31.08 1060.88,-30.6"/>
</a>
</g>
</g>
<!-- Node22&#45;&gt;Node12 -->
<g id="edge48_Node000022_Node000012" class="edge">
<title>Node22&#45;&gt;Node12</title>
<g id="a_edge48_Node000022_Node000012"><a xlink:title=" ">
<path fill="none" stroke="#63b8ff" d="M1023.7,-220.53C967.74,-209.77 876.03,-192.14 827.13,-182.74"/>
<polygon fill="#63b8ff" stroke="#63b8ff" points="827.92,-179.33 817.44,-180.88 826.6,-186.21 827.92,-179.33"/>
</a>
</g>
</g>
<!-- Node22&#45;&gt;Node23 -->
<g id="edge46_Node000022_Node000023" class="edge">
<title>Node22&#45;&gt;Node23</title>
<g id="a_edge46_Node000022_Node000023"><a xlink:title=" ">
<path fill="none" stroke="#63b8ff" d="M1086.61,-220.59C1100.62,-212.48 1121.43,-200.43 1137.8,-190.96"/>
<polygon fill="#63b8ff" stroke="#63b8ff" points="1139.11,-194.25 1146.01,-186.21 1135.6,-188.19 1139.11,-194.25"/>
</a>
</g>
</g>
<!-- Node23&#45;&gt;Node8 -->
<g id="edge47_Node000023_Node000008" class="edge">
<title>Node23&#45;&gt;Node8</title>
<g id="a_edge47_Node000023_Node000008"><a xlink:title=" ">
<path fill="none" stroke="#63b8ff" d="M1157.25,-165.57C1140.41,-139.8 1090.98,-64.15 1068,-28.99"/>
<polygon fill="#63b8ff" stroke="#63b8ff" points="1071.01,-27.2 1062.61,-20.74 1065.15,-31.03 1071.01,-27.2"/>
</a>
</g>
</g>
</g>
</svg>
