<?xml version="1.0" encoding="UTF-8" standalone="no"?>
<!DOCTYPE svg PUBLIC "-//W3C//DTD SVG 1.1//EN"
 "http://www.w3.org/Graphics/SVG/1.1/DTD/svg11.dtd">
<!-- Generated by graphviz version 12.2.0 (20241103.1931)
 -->
<!-- Title: src/modules/experimental/CrossCorrelation.cpp Pages: 1 -->
<svg width="203pt" height="149pt"
 viewBox="0.00 0.00 203.25 149.00" xmlns="http://www.w3.org/2000/svg" xmlns:xlink="http://www.w3.org/1999/xlink">
<g id="graph0" class="graph" transform="scale(1 1) rotate(0) translate(4 145)">
<title>src/modules/experimental/CrossCorrelation.cpp</title>
<!-- Node1 -->
<g id="Node000001" class="node">
<title>Node1</title>
<g id="a_Node000001"><a xlink:title=" ">
<polygon fill="#999999" stroke="#666666" points="187.25,-141 60.25,-141 60.25,-110.5 187.25,-110.5 187.25,-141"/>
<text text-anchor="start" x="68.25" y="-127.5" font-family="Helvetica,sans-Serif" font-size="10.00">src/modules/experimental</text>
<text text-anchor="middle" x="123.75" y="-116.25" font-family="Helvetica,sans-Serif" font-size="10.00">/CrossCorrelation.cpp</text>
</a>
</g>
</g>
<!-- Node2 -->
<g id="Node000002" class="node">
<title>Node2</title>
<g id="a_Node000002"><a xlink:href="_cross_correlation_8h.html" target="_top" xlink:title=" ">
<polygon fill="white" stroke="#666666" points="95.5,-74.5 0,-74.5 0,-55.25 95.5,-55.25 95.5,-74.5"/>
<text text-anchor="middle" x="47.75" y="-61" font-family="Helvetica,sans-Serif" font-size="10.00">CrossCorrelation.h</text>
</a>
</g>
</g>
<!-- Node1&#45;&gt;Node2 -->
<g id="edge1_Node000001_Node000002" class="edge">
<title>Node1&#45;&gt;Node2</title>
<g id="a_edge1_Node000001_Node000002"><a xlink:title=" ">
<path fill="none" stroke="#63b8ff" d="M104.96,-110.2C93.84,-101.58 79.73,-90.65 68.31,-81.8"/>
<polygon fill="#63b8ff" stroke="#63b8ff" points="70.71,-79.24 60.66,-75.88 66.42,-84.77 70.71,-79.24"/>
</a>
</g>
</g>
<!-- Node3 -->
<g id="Node000003" class="node">
<title>Node3</title>
<g id="a_Node000003"><a xlink:title=" ">
<polygon fill="#e0e0e0" stroke="#999999" points="108.38,-19.25 63.12,-19.25 63.12,0 108.38,0 108.38,-19.25"/>
<text text-anchor="middle" x="85.75" y="-5.75" font-family="Helvetica,sans-Serif" font-size="10.00">cstdint</text>
</a>
</g>
</g>
<!-- Node1&#45;&gt;Node3 -->
<g id="edge3_Node000001_Node000003" class="edge">
<title>Node1&#45;&gt;Node3</title>
<g id="a_edge3_Node000001_Node000003"><a xlink:title=" ">
<path fill="none" stroke="#63b8ff" d="M120.38,-110.2C116.96,-96.02 111.24,-73.92 104.75,-55.25 101.85,-46.91 98.13,-37.9 94.76,-30.19"/>
<polygon fill="#63b8ff" stroke="#63b8ff" points="97.96,-28.78 90.67,-21.09 91.58,-31.65 97.96,-28.78"/>
</a>
</g>
</g>
<!-- Node4 -->
<g id="Node000004" class="node">
<title>Node4</title>
<g id="a_Node000004"><a xlink:title=" ">
<polygon fill="#e0e0e0" stroke="#999999" points="195.25,-74.5 152.25,-74.5 152.25,-55.25 195.25,-55.25 195.25,-74.5"/>
<text text-anchor="middle" x="173.75" y="-61" font-family="Helvetica,sans-Serif" font-size="10.00">cmath</text>
</a>
</g>
</g>
<!-- Node1&#45;&gt;Node4 -->
<g id="edge4_Node000001_Node000004" class="edge">
<title>Node1&#45;&gt;Node4</title>
<g id="a_edge4_Node000001_Node000004"><a xlink:title=" ">
<path fill="none" stroke="#63b8ff" d="M136.11,-110.2C142.92,-102.18 151.42,-92.17 158.62,-83.69"/>
<polygon fill="#63b8ff" stroke="#63b8ff" points="161.26,-85.99 165.06,-76.1 155.92,-81.46 161.26,-85.99"/>
</a>
</g>
</g>
<!-- Node2&#45;&gt;Node3 -->
<g id="edge2_Node000002_Node000003" class="edge">
<title>Node2&#45;&gt;Node3</title>
<g id="a_edge2_Node000002_Node000003"><a xlink:title=" ">
<path fill="none" stroke="#63b8ff" d="M54.02,-55.08C59.11,-47.96 66.45,-37.68 72.78,-28.8"/>
<polygon fill="#63b8ff" stroke="#63b8ff" points="75.5,-31.01 78.46,-20.84 69.8,-26.95 75.5,-31.01"/>
</a>
</g>
</g>
</g>
</svg>
