<?xml version="1.0" encoding="UTF-8" standalone="no"?>
<!DOCTYPE svg PUBLIC "-//W3C//DTD SVG 1.1//EN"
 "http://www.w3.org/Graphics/SVG/1.1/DTD/svg11.dtd">
<!-- Generated by graphviz version 12.2.0 (20241103.1931)
 -->
<!-- Title: src/modules/experimental/CrossCorrelation.h Pages: 1 -->
<svg width="322pt" height="160pt"
 viewBox="0.00 0.00 321.62 160.25" xmlns="http://www.w3.org/2000/svg" xmlns:xlink="http://www.w3.org/1999/xlink">
<g id="graph0" class="graph" transform="scale(1 1) rotate(0) translate(4 156.25)">
<title>src/modules/experimental/CrossCorrelation.h</title>
<!-- Node1 -->
<g id="Node000001" class="node">
<title>Node1</title>
<g id="a_Node000001"><a xlink:title=" ">
<polygon fill="#999999" stroke="#666666" points="159.62,-152.25 32.62,-152.25 32.62,-121.75 159.62,-121.75 159.62,-152.25"/>
<text text-anchor="start" x="40.62" y="-138.75" font-family="Helvetica,sans-Serif" font-size="10.00">src/modules/experimental</text>
<text text-anchor="middle" x="96.12" y="-127.5" font-family="Helvetica,sans-Serif" font-size="10.00">/CrossCorrelation.h</text>
</a>
</g>
</g>
<!-- Node2 -->
<g id="Node000002" class="node">
<title>Node2</title>
<g id="a_Node000002"><a xlink:href="_audio_prism_8h.html" target="_top" xlink:title=" ">
<polygon fill="white" stroke="#666666" points="90.25,-19.25 0,-19.25 0,0 90.25,0 90.25,-19.25"/>
<text text-anchor="middle" x="45.12" y="-5.75" font-family="Helvetica,sans-Serif" font-size="10.00">src/AudioPrism.h</text>
</a>
</g>
</g>
<!-- Node1&#45;&gt;Node2 -->
<g id="edge1_Node000001_Node000002" class="edge">
<title>Node1&#45;&gt;Node2</title>
<g id="a_edge1_Node000001_Node000002"><a xlink:title=" ">
<path fill="none" stroke="#63b8ff" d="M45.63,-115.94C33.13,-108.42 21.27,-98.51 14.12,-85.75 1.44,-63.1 23,-34.2 36.14,-19.73"/>
<polygon fill="#63b8ff" stroke="#63b8ff" points="43.94,-119 54.39,-120.74 47.3,-112.86 43.94,-119"/>
</a>
</g>
</g>
<!-- Node3 -->
<g id="Node000003" class="node">
<title>Node3</title>
<g id="a_Node000003"><a xlink:href="_vocal_detection_8h.html" target="_top" xlink:title=" ">
<polygon fill="white" stroke="#666666" points="169,-80.12 23.25,-80.12 23.25,-60.88 169,-60.88 169,-80.12"/>
<text text-anchor="middle" x="96.12" y="-66.62" font-family="Helvetica,sans-Serif" font-size="10.00">src/modules/VocalDetection.h</text>
</a>
</g>
</g>
<!-- Node1&#45;&gt;Node3 -->
<g id="edge2_Node000001_Node000003" class="edge">
<title>Node1&#45;&gt;Node3</title>
<g id="a_edge2_Node000001_Node000003"><a xlink:title=" ">
<path fill="none" stroke="#63b8ff" d="M96.12,-110.09C96.12,-99.51 96.12,-88 96.12,-80.32"/>
<polygon fill="#63b8ff" stroke="#63b8ff" points="92.63,-109.85 96.13,-119.85 99.63,-109.85 92.63,-109.85"/>
</a>
</g>
</g>
<!-- Node4 -->
<g id="Node000004" class="node">
<title>Node4</title>
<g id="a_Node000004"><a xlink:href="_cross_correlation_8cpp.html" target="_top" xlink:title=" ">
<polygon fill="white" stroke="#666666" points="313.62,-85.75 186.62,-85.75 186.62,-55.25 313.62,-55.25 313.62,-85.75"/>
<text text-anchor="start" x="194.62" y="-72.25" font-family="Helvetica,sans-Serif" font-size="10.00">src/modules/experimental</text>
<text text-anchor="middle" x="250.12" y="-61" font-family="Helvetica,sans-Serif" font-size="10.00">/CrossCorrelation.cpp</text>
</a>
</g>
</g>
<!-- Node1&#45;&gt;Node4 -->
<g id="edge4_Node000001_Node000004" class="edge">
<title>Node1&#45;&gt;Node4</title>
<g id="a_edge4_Node000001_Node000004"><a xlink:title=" ">
<path fill="none" stroke="#63b8ff" d="M141.49,-117C164.99,-107.16 193.25,-95.32 215.05,-86.19"/>
<polygon fill="#63b8ff" stroke="#63b8ff" points="140.34,-113.69 132.47,-120.78 143.04,-120.14 140.34,-113.69"/>
</a>
</g>
</g>
<!-- Node3&#45;&gt;Node2 -->
<g id="edge3_Node000003_Node000002" class="edge">
<title>Node3&#45;&gt;Node2</title>
<g id="a_edge3_Node000003_Node000002"><a xlink:title=" ">
<path fill="none" stroke="#63b8ff" d="M80.99,-52.03C71.78,-41.39 60.38,-28.24 52.94,-19.65"/>
<polygon fill="#63b8ff" stroke="#63b8ff" points="78.2,-54.15 87.39,-59.41 83.49,-49.56 78.2,-54.15"/>
</a>
</g>
</g>
</g>
</svg>
