<?xml version="1.0" encoding="UTF-8" standalone="no"?>
<!DOCTYPE svg PUBLIC "-//W3C//DTD SVG 1.1//EN"
 "http://www.w3.org/Graphics/SVG/1.1/DTD/svg11.dtd">
<!-- Generated by graphviz version 12.2.0 (20241103.1931)
 -->
<!-- Title: src/modules/DeltaAmplitudes.h Pages: 1 -->
<svg width="343pt" height="138pt"
 viewBox="0.00 0.00 343.42 137.75" xmlns="http://www.w3.org/2000/svg" xmlns:xlink="http://www.w3.org/1999/xlink">
<g id="graph0" class="graph" transform="scale(1 1) rotate(0) translate(4 133.75)">
<title>src/modules/DeltaAmplitudes.h</title>
<!-- Node1 -->
<g id="Node000001" class="node">
<title>Node1</title>
<g id="a_Node000001"><a xlink:title=" ">
<polygon fill="#999999" stroke="#666666" points="173.67,-129.75 22.67,-129.75 22.67,-110.5 173.67,-110.5 173.67,-129.75"/>
<text text-anchor="middle" x="98.17" y="-116.25" font-family="Helvetica,sans-Serif" font-size="10.00">src/modules/DeltaAmplitudes.h</text>
</a>
</g>
</g>
<!-- Node2 -->
<g id="Node000002" class="node">
<title>Node2</title>
<g id="a_Node000002"><a xlink:href="_audio_prism_8h.html" target="_top" xlink:title=" ">
<polygon fill="white" stroke="#666666" points="143.3,-19.25 53.05,-19.25 53.05,0 143.3,0 143.3,-19.25"/>
<text text-anchor="middle" x="98.17" y="-5.75" font-family="Helvetica,sans-Serif" font-size="10.00">src/AudioPrism.h</text>
</a>
</g>
</g>
<!-- Node1&#45;&gt;Node2 -->
<g id="edge1_Node000001_Node000002" class="edge">
<title>Node1&#45;&gt;Node2</title>
<g id="a_edge1_Node000001_Node000002"><a xlink:title=" ">
<path fill="none" stroke="#63b8ff" d="M45.58,-106.13C29.5,-99.43 13.6,-89.41 4.17,-74.5 -12.64,-47.9 27.99,-29.65 61.01,-19.67"/>
<polygon fill="#63b8ff" stroke="#63b8ff" points="44.09,-109.31 54.68,-109.54 46.54,-102.76 44.09,-109.31"/>
</a>
</g>
</g>
<!-- Node3 -->
<g id="Node000003" class="node">
<title>Node3</title>
<g id="a_Node000003"><a xlink:href="_percussion_detection_8h.html" target="_top" xlink:title=" ">
<polygon fill="white" stroke="#666666" points="183.05,-74.5 13.3,-74.5 13.3,-55.25 183.05,-55.25 183.05,-74.5"/>
<text text-anchor="middle" x="98.17" y="-61" font-family="Helvetica,sans-Serif" font-size="10.00">src/modules/PercussionDetection.h</text>
</a>
</g>
</g>
<!-- Node1&#45;&gt;Node3 -->
<g id="edge2_Node000001_Node000003" class="edge">
<title>Node1&#45;&gt;Node3</title>
<g id="a_edge2_Node000001_Node000003"><a xlink:title=" ">
<path fill="none" stroke="#63b8ff" d="M98.17,-98.88C98.17,-90.59 98.17,-81.42 98.17,-74.86"/>
<polygon fill="#63b8ff" stroke="#63b8ff" points="94.67,-98.82 98.17,-108.82 101.67,-98.82 94.67,-98.82"/>
</a>
</g>
</g>
<!-- Node4 -->
<g id="Node000004" class="node">
<title>Node4</title>
<g id="a_Node000004"><a xlink:href="_salient_freqs_8h.html" target="_top" xlink:title=" ">
<polygon fill="white" stroke="#666666" points="335.42,-74.5 200.92,-74.5 200.92,-55.25 335.42,-55.25 335.42,-74.5"/>
<text text-anchor="middle" x="268.17" y="-61" font-family="Helvetica,sans-Serif" font-size="10.00">src/modules/SalientFreqs.h</text>
</a>
</g>
</g>
<!-- Node1&#45;&gt;Node4 -->
<g id="edge4_Node000001_Node000004" class="edge">
<title>Node1&#45;&gt;Node4</title>
<g id="a_edge4_Node000001_Node000004"><a xlink:title=" ">
<path fill="none" stroke="#63b8ff" d="M137.88,-106.69C168.91,-96.97 211.3,-83.69 239.2,-74.95"/>
<polygon fill="#63b8ff" stroke="#63b8ff" points="136.95,-103.31 128.46,-109.64 139.05,-109.99 136.95,-103.31"/>
</a>
</g>
</g>
<!-- Node3&#45;&gt;Node2 -->
<g id="edge3_Node000003_Node000002" class="edge">
<title>Node3&#45;&gt;Node2</title>
<g id="a_edge3_Node000003_Node000002"><a xlink:title=" ">
<path fill="none" stroke="#63b8ff" d="M98.17,-43.63C98.17,-35.34 98.17,-26.17 98.17,-19.61"/>
<polygon fill="#63b8ff" stroke="#63b8ff" points="94.67,-43.57 98.17,-53.57 101.67,-43.57 94.67,-43.57"/>
</a>
</g>
</g>
<!-- Node4&#45;&gt;Node2 -->
<g id="edge5_Node000004_Node000002" class="edge">
<title>Node4&#45;&gt;Node2</title>
<g id="a_edge5_Node000004_Node000002"><a xlink:title=" ">
<path fill="none" stroke="#63b8ff" d="M228.47,-51.44C197.44,-41.72 155.05,-28.44 127.15,-19.7"/>
<polygon fill="#63b8ff" stroke="#63b8ff" points="227.3,-54.74 237.89,-54.39 229.4,-48.06 227.3,-54.74"/>
</a>
</g>
</g>
</g>
</svg>
