<?xml version="1.0" encoding="UTF-8" standalone="no"?>
<!DOCTYPE svg PUBLIC "-//W3C//DTD SVG 1.1//EN"
 "http://www.w3.org/Graphics/SVG/1.1/DTD/svg11.dtd">
<!-- Generated by graphviz version 12.2.0 (20241103.1931)
 -->
<!-- Title: src/modules/Formants.h Pages: 1 -->
<svg width="400pt" height="248pt"
 viewBox="0.00 0.00 400.38 248.25" xmlns="http://www.w3.org/2000/svg" xmlns:xlink="http://www.w3.org/1999/xlink">
<g id="graph0" class="graph" transform="scale(1 1) rotate(0) translate(4 244.25)">
<title>src/modules/Formants.h</title>
<!-- Node1 -->
<g id="Node000001" class="node">
<title>Node1</title>
<g id="a_Node000001"><a xlink:title=" ">
<polygon fill="#999999" stroke="#666666" points="149.25,-240.25 28.25,-240.25 28.25,-221 149.25,-221 149.25,-240.25"/>
<text text-anchor="middle" x="88.75" y="-226.75" font-family="Helvetica,sans-Serif" font-size="10.00">src/modules/Formants.h</text>
</a>
</g>
</g>
<!-- Node2 -->
<g id="Node000002" class="node">
<title>Node2</title>
<g id="a_Node000002"><a xlink:title=" ">
<polygon fill="#e0e0e0" stroke="#999999" points="41.5,-185 0,-185 0,-165.75 41.5,-165.75 41.5,-185"/>
<text text-anchor="middle" x="20.75" y="-171.5" font-family="Helvetica,sans-Serif" font-size="10.00">float.h</text>
</a>
</g>
</g>
<!-- Node1&#45;&gt;Node2 -->
<g id="edge1_Node000001_Node000002" class="edge">
<title>Node1&#45;&gt;Node2</title>
<g id="a_edge1_Node000001_Node000002"><a xlink:title=" ">
<path fill="none" stroke="#63b8ff" d="M77.21,-220.59C67.29,-212.82 52.74,-201.42 40.89,-192.15"/>
<polygon fill="#63b8ff" stroke="#63b8ff" points="43.34,-189.62 33.31,-186.21 39.02,-195.13 43.34,-189.62"/>
</a>
</g>
</g>
<!-- Node3 -->
<g id="Node000003" class="node">
<title>Node3</title>
<g id="a_Node000003"><a xlink:title=" ">
<polygon fill="#e0e0e0" stroke="#999999" points="76.38,-74.5 31.12,-74.5 31.12,-55.25 76.38,-55.25 76.38,-74.5"/>
<text text-anchor="middle" x="53.75" y="-61" font-family="Helvetica,sans-Serif" font-size="10.00">math.h</text>
</a>
</g>
</g>
<!-- Node1&#45;&gt;Node3 -->
<g id="edge2_Node000001_Node000003" class="edge">
<title>Node1&#45;&gt;Node3</title>
<g id="a_edge2_Node000001_Node000003"><a xlink:title=" ">
<path fill="none" stroke="#63b8ff" d="M86.87,-220.82C81.43,-195.39 65.61,-121.35 57.97,-85.62"/>
<polygon fill="#63b8ff" stroke="#63b8ff" points="61.47,-85.25 55.96,-76.2 54.62,-86.71 61.47,-85.25"/>
</a>
</g>
</g>
<!-- Node4 -->
<g id="Node000004" class="node">
<title>Node4</title>
<g id="a_Node000004"><a xlink:href="_analysis_module_8h.html" target="_top" xlink:title=" ">
<polygon fill="white" stroke="#666666" points="223.38,-129.75 124.12,-129.75 124.12,-110.5 223.38,-110.5 223.38,-129.75"/>
<text text-anchor="middle" x="173.75" y="-116.25" font-family="Helvetica,sans-Serif" font-size="10.00">../AnalysisModule.h</text>
</a>
</g>
</g>
<!-- Node1&#45;&gt;Node4 -->
<g id="edge3_Node000001_Node000004" class="edge">
<title>Node1&#45;&gt;Node4</title>
<g id="a_edge3_Node000001_Node000004"><a xlink:title=" ">
<path fill="none" stroke="#63b8ff" d="M92.98,-220.88C99.36,-208.1 112.25,-183.9 126.75,-165.75 134.88,-155.57 145.27,-145.47 154.21,-137.46"/>
<polygon fill="#63b8ff" stroke="#63b8ff" points="156.46,-140.15 161.71,-130.95 151.87,-134.86 156.46,-140.15"/>
</a>
</g>
</g>
<!-- Node11 -->
<g id="Node000011" class="node">
<title>Node11</title>
<g id="a_Node000011"><a xlink:href="_major_peaks_8h.html" target="_top" xlink:title=" ">
<polygon fill="white" stroke="#666666" points="211.38,-185 136.12,-185 136.12,-165.75 211.38,-165.75 211.38,-185"/>
<text text-anchor="middle" x="173.75" y="-171.5" font-family="Helvetica,sans-Serif" font-size="10.00">MajorPeaks.h</text>
</a>
</g>
</g>
<!-- Node1&#45;&gt;Node11 -->
<g id="edge11_Node000001_Node000011" class="edge">
<title>Node1&#45;&gt;Node11</title>
<g id="a_edge11_Node000001_Node000011"><a xlink:title=" ">
<path fill="none" stroke="#63b8ff" d="M103.17,-220.59C115.87,-212.64 134.62,-200.89 149.61,-191.5"/>
<polygon fill="#63b8ff" stroke="#63b8ff" points="151.36,-194.53 157.98,-186.26 147.65,-188.6 151.36,-194.53"/>
</a>
</g>
</g>
<!-- Node4&#45;&gt;Node3 -->
<g id="edge5_Node000004_Node000003" class="edge">
<title>Node4&#45;&gt;Node3</title>
<g id="a_edge5_Node000004_Node000003"><a xlink:title=" ">
<path fill="none" stroke="#63b8ff" d="M153.39,-110.09C134.52,-101.72 106.16,-89.13 84.52,-79.53"/>
<polygon fill="#63b8ff" stroke="#63b8ff" points="86.15,-76.42 75.59,-75.57 83.31,-82.82 86.15,-76.42"/>
</a>
</g>
</g>
<!-- Node5 -->
<g id="Node000005" class="node">
<title>Node5</title>
<g id="a_Node000005"><a xlink:title=" ">
<polygon fill="#e0e0e0" stroke="#999999" points="151,-74.5 94.5,-74.5 94.5,-55.25 151,-55.25 151,-74.5"/>
<text text-anchor="middle" x="122.75" y="-61" font-family="Helvetica,sans-Serif" font-size="10.00">Arduino.h</text>
</a>
</g>
</g>
<!-- Node4&#45;&gt;Node5 -->
<g id="edge4_Node000004_Node000005" class="edge">
<title>Node4&#45;&gt;Node5</title>
<g id="a_edge4_Node000004_Node000005"><a xlink:title=" ">
<path fill="none" stroke="#63b8ff" d="M165.33,-110.33C158.21,-102.9 147.81,-92.04 139.06,-82.91"/>
<polygon fill="#63b8ff" stroke="#63b8ff" points="141.85,-80.75 132.4,-75.95 136.79,-85.6 141.85,-80.75"/>
</a>
</g>
</g>
<!-- Node6 -->
<g id="Node000006" class="node">
<title>Node6</title>
<g id="a_Node000006"><a xlink:title=" ">
<polygon fill="#e0e0e0" stroke="#999999" points="212.25,-74.5 169.25,-74.5 169.25,-55.25 212.25,-55.25 212.25,-74.5"/>
<text text-anchor="middle" x="190.75" y="-61" font-family="Helvetica,sans-Serif" font-size="10.00">vector</text>
</a>
</g>
</g>
<!-- Node4&#45;&gt;Node6 -->
<g id="edge6_Node000004_Node000006" class="edge">
<title>Node4&#45;&gt;Node6</title>
<g id="a_edge6_Node000004_Node000006"><a xlink:title=" ">
<path fill="none" stroke="#63b8ff" d="M176.56,-110.33C178.69,-103.67 181.69,-94.24 184.39,-85.78"/>
<polygon fill="#63b8ff" stroke="#63b8ff" points="187.71,-86.89 187.42,-76.3 181.05,-84.76 187.71,-86.89"/>
</a>
</g>
</g>
<!-- Node7 -->
<g id="Node000007" class="node">
<title>Node7</title>
<g id="a_Node000007"><a xlink:href="_config_8h.html" target="_top" xlink:title=" ">
<polygon fill="white" stroke="#666666" points="281,-74.5 230.5,-74.5 230.5,-55.25 281,-55.25 281,-74.5"/>
<text text-anchor="middle" x="255.75" y="-61" font-family="Helvetica,sans-Serif" font-size="10.00">Config.h</text>
</a>
</g>
</g>
<!-- Node4&#45;&gt;Node7 -->
<g id="edge7_Node000004_Node000007" class="edge">
<title>Node4&#45;&gt;Node7</title>
<g id="a_edge7_Node000004_Node000007"><a xlink:title=" ">
<path fill="none" stroke="#63b8ff" d="M187.66,-110.09C199.91,-102.14 218,-90.39 232.46,-81"/>
<polygon fill="#63b8ff" stroke="#63b8ff" points="234.02,-84.16 240.5,-75.78 230.21,-78.29 234.02,-84.16"/>
</a>
</g>
</g>
<!-- Node8 -->
<g id="Node000008" class="node">
<title>Node8</title>
<g id="a_Node000008"><a xlink:href="_spectrogram_8h.html" target="_top" xlink:title=" ">
<polygon fill="white" stroke="#666666" points="378.25,-74.5 299.25,-74.5 299.25,-55.25 378.25,-55.25 378.25,-74.5"/>
<text text-anchor="middle" x="338.75" y="-61" font-family="Helvetica,sans-Serif" font-size="10.00">Spectrogram.h</text>
</a>
</g>
</g>
<!-- Node4&#45;&gt;Node8 -->
<g id="edge8_Node000004_Node000008" class="edge">
<title>Node4&#45;&gt;Node8</title>
<g id="a_edge8_Node000004_Node000008"><a xlink:title=" ">
<path fill="none" stroke="#63b8ff" d="M201.74,-110.09C228.76,-101.37 269.91,-88.09 300.06,-78.36"/>
<polygon fill="#63b8ff" stroke="#63b8ff" points="300.74,-81.82 309.18,-75.42 298.59,-75.16 300.74,-81.82"/>
</a>
</g>
</g>
<!-- Node9 -->
<g id="Node000009" class="node">
<title>Node9</title>
<g id="a_Node000009"><a xlink:title=" ">
<polygon fill="#e0e0e0" stroke="#999999" points="329.38,-19.25 284.12,-19.25 284.12,0 329.38,0 329.38,-19.25"/>
<text text-anchor="middle" x="306.75" y="-5.75" font-family="Helvetica,sans-Serif" font-size="10.00">cstdint</text>
</a>
</g>
</g>
<!-- Node8&#45;&gt;Node9 -->
<g id="edge9_Node000008_Node000009" class="edge">
<title>Node8&#45;&gt;Node9</title>
<g id="a_edge9_Node000008_Node000009"><a xlink:title=" ">
<path fill="none" stroke="#63b8ff" d="M333.47,-55.08C329.28,-48.11 323.27,-38.12 318.02,-29.37"/>
<polygon fill="#63b8ff" stroke="#63b8ff" points="321.08,-27.68 312.93,-20.91 315.08,-31.28 321.08,-27.68"/>
</a>
</g>
</g>
<!-- Node10 -->
<g id="Node000010" class="node">
<title>Node10</title>
<g id="a_Node000010"><a xlink:title=" ">
<polygon fill="#e0e0e0" stroke="#999999" points="392.38,-19.25 347.12,-19.25 347.12,0 392.38,0 392.38,-19.25"/>
<text text-anchor="middle" x="369.75" y="-5.75" font-family="Helvetica,sans-Serif" font-size="10.00">cstring</text>
</a>
</g>
</g>
<!-- Node8&#45;&gt;Node10 -->
<g id="edge10_Node000008_Node000010" class="edge">
<title>Node8&#45;&gt;Node10</title>
<g id="a_edge10_Node000008_Node000010"><a xlink:title=" ">
<path fill="none" stroke="#63b8ff" d="M343.87,-55.08C347.93,-48.11 353.74,-38.12 358.84,-29.37"/>
<polygon fill="#63b8ff" stroke="#63b8ff" points="361.75,-31.32 363.76,-20.92 355.7,-27.8 361.75,-31.32"/>
</a>
</g>
</g>
<!-- Node11&#45;&gt;Node4 -->
<g id="edge12_Node000011_Node000004" class="edge">
<title>Node11&#45;&gt;Node4</title>
<g id="a_edge12_Node000011_Node000004"><a xlink:title=" ">
<path fill="none" stroke="#63b8ff" d="M173.75,-165.58C173.75,-159.07 173.75,-149.92 173.75,-141.62"/>
<polygon fill="#63b8ff" stroke="#63b8ff" points="177.25,-141.62 173.75,-131.62 170.25,-141.62 177.25,-141.62"/>
</a>
</g>
</g>
</g>
</svg>
