<?xml version="1.0" encoding="UTF-8" standalone="no"?>
<!DOCTYPE svg PUBLIC "-//W3C//DTD SVG 1.1//EN"
 "http://www.w3.org/Graphics/SVG/1.1/DTD/svg11.dtd">
<!-- Generated by graphviz version 12.2.0 (20241103.1931)
 -->
<!-- Title: src/modules/MajorPeaks.h Pages: 1 -->
<svg width="238pt" height="83pt"
 viewBox="0.00 0.00 237.62 82.50" xmlns="http://www.w3.org/2000/svg" xmlns:xlink="http://www.w3.org/1999/xlink">
<g id="graph0" class="graph" transform="scale(1 1) rotate(0) translate(4 78.5)">
<title>src/modules/MajorPeaks.h</title>
<!-- Node1 -->
<g id="Node000001" class="node">
<title>Node1</title>
<g id="a_Node000001"><a xlink:title=" ">
<polygon fill="#999999" stroke="#666666" points="172.88,-74.5 41.38,-74.5 41.38,-55.25 172.88,-55.25 172.88,-74.5"/>
<text text-anchor="middle" x="107.12" y="-61" font-family="Helvetica,sans-Serif" font-size="10.00">src/modules/MajorPeaks.h</text>
</a>
</g>
</g>
<!-- Node2 -->
<g id="Node000002" class="node">
<title>Node2</title>
<g id="a_Node000002"><a xlink:href="_audio_prism_8h.html" target="_top" xlink:title=" ">
<polygon fill="white" stroke="#666666" points="90.25,-19.25 0,-19.25 0,0 90.25,0 90.25,-19.25"/>
<text text-anchor="middle" x="45.12" y="-5.75" font-family="Helvetica,sans-Serif" font-size="10.00">src/AudioPrism.h</text>
</a>
</g>
</g>
<!-- Node1&#45;&gt;Node2 -->
<g id="edge1_Node000001_Node000002" class="edge">
<title>Node1&#45;&gt;Node2</title>
<g id="a_edge1_Node000001_Node000002"><a xlink:title=" ">
<path fill="none" stroke="#63b8ff" d="M87.93,-47.39C77.22,-38.19 64.31,-27.1 55.49,-19.52"/>
<polygon fill="#63b8ff" stroke="#63b8ff" points="85.59,-50 95.46,-53.86 90.15,-44.69 85.59,-50"/>
</a>
</g>
</g>
<!-- Node3 -->
<g id="Node000003" class="node">
<title>Node3</title>
<g id="a_Node000003"><a xlink:href="_formants_8h.html" target="_top" xlink:title=" ">
<polygon fill="white" stroke="#666666" points="229.62,-19.25 108.62,-19.25 108.62,0 229.62,0 229.62,-19.25"/>
<text text-anchor="middle" x="169.12" y="-5.75" font-family="Helvetica,sans-Serif" font-size="10.00">src/modules/Formants.h</text>
</a>
</g>
</g>
<!-- Node1&#45;&gt;Node3 -->
<g id="edge2_Node000001_Node000003" class="edge">
<title>Node1&#45;&gt;Node3</title>
<g id="a_edge2_Node000001_Node000003"><a xlink:title=" ">
<path fill="none" stroke="#63b8ff" d="M126.32,-47.39C137.03,-38.19 149.94,-27.1 158.76,-19.52"/>
<polygon fill="#63b8ff" stroke="#63b8ff" points="124.1,-44.69 118.79,-53.86 128.66,-50 124.1,-44.69"/>
</a>
</g>
</g>
</g>
</svg>
