<?xml version="1.0" encoding="UTF-8" standalone="no"?>
<!DOCTYPE svg PUBLIC "-//W3C//DTD SVG 1.1//EN"
 "http://www.w3.org/Graphics/SVG/1.1/DTD/svg11.dtd">
<!-- Generated by graphviz version 12.2.0 (20241103.1931)
 -->
<!-- Title: src/modules/MeanAmplitude.h Pages: 1 -->
<svg width="369pt" height="248pt"
 viewBox="0.00 0.00 368.88 248.25" xmlns="http://www.w3.org/2000/svg" xmlns:xlink="http://www.w3.org/1999/xlink">
<g id="graph0" class="graph" transform="scale(1 1) rotate(0) translate(4 244.25)">
<title>src/modules/MeanAmplitude.h</title>
<!-- Node1 -->
<g id="Node000001" class="node">
<title>Node1</title>
<g id="a_Node000001"><a xlink:title=" ">
<polygon fill="#999999" stroke="#666666" points="232.88,-240.25 85.62,-240.25 85.62,-221 232.88,-221 232.88,-240.25"/>
<text text-anchor="middle" x="159.25" y="-226.75" font-family="Helvetica,sans-Serif" font-size="10.00">src/modules/MeanAmplitude.h</text>
</a>
</g>
</g>
<!-- Node2 -->
<g id="Node000002" class="node">
<title>Node2</title>
<g id="a_Node000002"><a xlink:href="_analysis_module_8h.html" target="_top" xlink:title=" ">
<polygon fill="white" stroke="#666666" points="208.88,-129.75 109.62,-129.75 109.62,-110.5 208.88,-110.5 208.88,-129.75"/>
<text text-anchor="middle" x="159.25" y="-116.25" font-family="Helvetica,sans-Serif" font-size="10.00">../AnalysisModule.h</text>
</a>
</g>
</g>
<!-- Node1&#45;&gt;Node2 -->
<g id="edge1_Node000001_Node000002" class="edge">
<title>Node1&#45;&gt;Node2</title>
<g id="a_edge1_Node000001_Node000002"><a xlink:title=" ">
<path fill="none" stroke="#63b8ff" d="M154.73,-220.68C150.54,-211.86 144.62,-197.88 142.25,-185 139.45,-169.79 144.31,-152.9 149.54,-140.3"/>
<polygon fill="#63b8ff" stroke="#63b8ff" points="152.59,-142.04 153.6,-131.49 146.24,-139.11 152.59,-142.04"/>
</a>
</g>
</g>
<!-- Node10 -->
<g id="Node000010" class="node">
<title>Node10</title>
<g id="a_Node000010"><a xlink:href="_total_amplitude_8h.html" target="_top" xlink:title=" ">
<polygon fill="white" stroke="#666666" points="239.62,-185 150.88,-185 150.88,-165.75 239.62,-165.75 239.62,-185"/>
<text text-anchor="middle" x="195.25" y="-171.5" font-family="Helvetica,sans-Serif" font-size="10.00">TotalAmplitude.h</text>
</a>
</g>
</g>
<!-- Node1&#45;&gt;Node10 -->
<g id="edge9_Node000001_Node000010" class="edge">
<title>Node1&#45;&gt;Node10</title>
<g id="a_edge9_Node000001_Node000010"><a xlink:title=" ">
<path fill="none" stroke="#63b8ff" d="M165.19,-220.83C169.96,-213.78 176.81,-203.65 182.77,-194.83"/>
<polygon fill="#63b8ff" stroke="#63b8ff" points="185.63,-196.86 188.33,-186.61 179.83,-192.94 185.63,-196.86"/>
</a>
</g>
</g>
<!-- Node3 -->
<g id="Node000003" class="node">
<title>Node3</title>
<g id="a_Node000003"><a xlink:title=" ">
<polygon fill="#e0e0e0" stroke="#999999" points="56.5,-74.5 0,-74.5 0,-55.25 56.5,-55.25 56.5,-74.5"/>
<text text-anchor="middle" x="28.25" y="-61" font-family="Helvetica,sans-Serif" font-size="10.00">Arduino.h</text>
</a>
</g>
</g>
<!-- Node2&#45;&gt;Node3 -->
<g id="edge2_Node000002_Node000003" class="edge">
<title>Node2&#45;&gt;Node3</title>
<g id="a_edge2_Node000002_Node000003"><a xlink:title=" ">
<path fill="none" stroke="#63b8ff" d="M137.03,-110.09C116.23,-101.64 84.9,-88.9 61.2,-79.27"/>
<polygon fill="#63b8ff" stroke="#63b8ff" points="62.57,-76.05 51.98,-75.52 59.93,-82.53 62.57,-76.05"/>
</a>
</g>
</g>
<!-- Node4 -->
<g id="Node000004" class="node">
<title>Node4</title>
<g id="a_Node000004"><a xlink:title=" ">
<polygon fill="#e0e0e0" stroke="#999999" points="119.88,-74.5 74.62,-74.5 74.62,-55.25 119.88,-55.25 119.88,-74.5"/>
<text text-anchor="middle" x="97.25" y="-61" font-family="Helvetica,sans-Serif" font-size="10.00">math.h</text>
</a>
</g>
</g>
<!-- Node2&#45;&gt;Node4 -->
<g id="edge3_Node000002_Node000004" class="edge">
<title>Node2&#45;&gt;Node4</title>
<g id="a_edge3_Node000002_Node000004"><a xlink:title=" ">
<path fill="none" stroke="#63b8ff" d="M148.73,-110.09C139.86,-102.47 126.94,-91.37 116.26,-82.2"/>
<polygon fill="#63b8ff" stroke="#63b8ff" points="118.63,-79.62 108.76,-75.76 114.07,-84.93 118.63,-79.62"/>
</a>
</g>
</g>
<!-- Node5 -->
<g id="Node000005" class="node">
<title>Node5</title>
<g id="a_Node000005"><a xlink:title=" ">
<polygon fill="#e0e0e0" stroke="#999999" points="180.75,-74.5 137.75,-74.5 137.75,-55.25 180.75,-55.25 180.75,-74.5"/>
<text text-anchor="middle" x="159.25" y="-61" font-family="Helvetica,sans-Serif" font-size="10.00">vector</text>
</a>
</g>
</g>
<!-- Node2&#45;&gt;Node5 -->
<g id="edge4_Node000002_Node000005" class="edge">
<title>Node2&#45;&gt;Node5</title>
<g id="a_edge4_Node000002_Node000005"><a xlink:title=" ">
<path fill="none" stroke="#63b8ff" d="M159.25,-110.33C159.25,-103.82 159.25,-94.67 159.25,-86.37"/>
<polygon fill="#63b8ff" stroke="#63b8ff" points="162.75,-86.37 159.25,-76.37 155.75,-86.37 162.75,-86.37"/>
</a>
</g>
</g>
<!-- Node6 -->
<g id="Node000006" class="node">
<title>Node6</title>
<g id="a_Node000006"><a xlink:href="_config_8h.html" target="_top" xlink:title=" ">
<polygon fill="white" stroke="#666666" points="249.5,-74.5 199,-74.5 199,-55.25 249.5,-55.25 249.5,-74.5"/>
<text text-anchor="middle" x="224.25" y="-61" font-family="Helvetica,sans-Serif" font-size="10.00">Config.h</text>
</a>
</g>
</g>
<!-- Node2&#45;&gt;Node6 -->
<g id="edge5_Node000002_Node000006" class="edge">
<title>Node2&#45;&gt;Node6</title>
<g id="a_edge5_Node000002_Node000006"><a xlink:title=" ">
<path fill="none" stroke="#63b8ff" d="M170.28,-110.09C179.67,-102.4 193.4,-91.15 204.66,-81.93"/>
<polygon fill="#63b8ff" stroke="#63b8ff" points="206.7,-84.78 212.22,-75.73 202.26,-79.36 206.7,-84.78"/>
</a>
</g>
</g>
<!-- Node7 -->
<g id="Node000007" class="node">
<title>Node7</title>
<g id="a_Node000007"><a xlink:href="_spectrogram_8h.html" target="_top" xlink:title=" ">
<polygon fill="white" stroke="#666666" points="346.75,-74.5 267.75,-74.5 267.75,-55.25 346.75,-55.25 346.75,-74.5"/>
<text text-anchor="middle" x="307.25" y="-61" font-family="Helvetica,sans-Serif" font-size="10.00">Spectrogram.h</text>
</a>
</g>
</g>
<!-- Node2&#45;&gt;Node7 -->
<g id="edge6_Node000002_Node000007" class="edge">
<title>Node2&#45;&gt;Node7</title>
<g id="a_edge6_Node000002_Node000007"><a xlink:title=" ">
<path fill="none" stroke="#63b8ff" d="M184.36,-110.09C208.28,-101.49 244.53,-88.44 271.47,-78.75"/>
<polygon fill="#63b8ff" stroke="#63b8ff" points="272.37,-82.14 280.6,-75.46 270,-75.56 272.37,-82.14"/>
</a>
</g>
</g>
<!-- Node8 -->
<g id="Node000008" class="node">
<title>Node8</title>
<g id="a_Node000008"><a xlink:title=" ">
<polygon fill="#e0e0e0" stroke="#999999" points="297.88,-19.25 252.62,-19.25 252.62,0 297.88,0 297.88,-19.25"/>
<text text-anchor="middle" x="275.25" y="-5.75" font-family="Helvetica,sans-Serif" font-size="10.00">cstdint</text>
</a>
</g>
</g>
<!-- Node7&#45;&gt;Node8 -->
<g id="edge7_Node000007_Node000008" class="edge">
<title>Node7&#45;&gt;Node8</title>
<g id="a_edge7_Node000007_Node000008"><a xlink:title=" ">
<path fill="none" stroke="#63b8ff" d="M301.97,-55.08C297.78,-48.11 291.77,-38.12 286.52,-29.37"/>
<polygon fill="#63b8ff" stroke="#63b8ff" points="289.58,-27.68 281.43,-20.91 283.58,-31.28 289.58,-27.68"/>
</a>
</g>
</g>
<!-- Node9 -->
<g id="Node000009" class="node">
<title>Node9</title>
<g id="a_Node000009"><a xlink:title=" ">
<polygon fill="#e0e0e0" stroke="#999999" points="360.88,-19.25 315.62,-19.25 315.62,0 360.88,0 360.88,-19.25"/>
<text text-anchor="middle" x="338.25" y="-5.75" font-family="Helvetica,sans-Serif" font-size="10.00">cstring</text>
</a>
</g>
</g>
<!-- Node7&#45;&gt;Node9 -->
<g id="edge8_Node000007_Node000009" class="edge">
<title>Node7&#45;&gt;Node9</title>
<g id="a_edge8_Node000007_Node000009"><a xlink:title=" ">
<path fill="none" stroke="#63b8ff" d="M312.37,-55.08C316.43,-48.11 322.24,-38.12 327.34,-29.37"/>
<polygon fill="#63b8ff" stroke="#63b8ff" points="330.25,-31.32 332.26,-20.92 324.2,-27.8 330.25,-31.32"/>
</a>
</g>
</g>
<!-- Node10&#45;&gt;Node2 -->
<g id="edge10_Node000010_Node000002" class="edge">
<title>Node10&#45;&gt;Node2</title>
<g id="a_edge10_Node000010_Node000002"><a xlink:title=" ">
<path fill="none" stroke="#63b8ff" d="M189.31,-165.58C184.54,-158.53 177.69,-148.4 171.73,-139.58"/>
<polygon fill="#63b8ff" stroke="#63b8ff" points="174.67,-137.69 166.17,-131.36 168.87,-141.61 174.67,-137.69"/>
</a>
</g>
</g>
</g>
</svg>
