<?xml version="1.0" encoding="UTF-8" standalone="no"?>
<!DOCTYPE svg PUBLIC "-//W3C//DTD SVG 1.1//EN"
 "http://www.w3.org/Graphics/SVG/1.1/DTD/svg11.dtd">
<!-- Generated by graphviz version 12.2.0 (20241103.1931)
 -->
<!-- Title: src/ModuleGroup.h Pages: 1 -->
<svg width="369pt" height="193pt"
 viewBox="0.00 0.00 369.12 193.00" xmlns="http://www.w3.org/2000/svg" xmlns:xlink="http://www.w3.org/1999/xlink">
<g id="graph0" class="graph" transform="scale(1 1) rotate(0) translate(4 189)">
<title>src/ModuleGroup.h</title>
<!-- Node1 -->
<g id="Node000001" class="node">
<title>Node1</title>
<g id="a_Node000001"><a xlink:title=" ">
<polygon fill="#999999" stroke="#666666" points="207.38,-185 109.62,-185 109.62,-165.75 207.38,-165.75 207.38,-185"/>
<text text-anchor="middle" x="158.5" y="-171.5" font-family="Helvetica,sans-Serif" font-size="10.00">src/ModuleGroup.h</text>
</a>
</g>
</g>
<!-- Node2 -->
<g id="Node000002" class="node">
<title>Node2</title>
<g id="a_Node000002"><a xlink:title=" ">
<polygon fill="#e0e0e0" stroke="#999999" points="43,-74.5 0,-74.5 0,-55.25 43,-55.25 43,-74.5"/>
<text text-anchor="middle" x="21.5" y="-61" font-family="Helvetica,sans-Serif" font-size="10.00">vector</text>
</a>
</g>
</g>
<!-- Node1&#45;&gt;Node2 -->
<g id="edge1_Node000001_Node000002" class="edge">
<title>Node1&#45;&gt;Node2</title>
<g id="a_edge1_Node000001_Node000002"><a xlink:title=" ">
<path fill="none" stroke="#63b8ff" d="M147.29,-165.5C124.21,-147.22 71.1,-105.15 41.81,-81.96"/>
<polygon fill="#63b8ff" stroke="#63b8ff" points="44.07,-79.28 34.05,-75.82 39.72,-84.77 44.07,-79.28"/>
</a>
</g>
</g>
<!-- Node3 -->
<g id="Node000003" class="node">
<title>Node3</title>
<g id="a_Node000003"><a xlink:href="_analysis_module_8h.html" target="_top" xlink:title=" ">
<polygon fill="white" stroke="#666666" points="204.38,-129.75 112.62,-129.75 112.62,-110.5 204.38,-110.5 204.38,-129.75"/>
<text text-anchor="middle" x="158.5" y="-116.25" font-family="Helvetica,sans-Serif" font-size="10.00">AnalysisModule.h</text>
</a>
</g>
</g>
<!-- Node1&#45;&gt;Node3 -->
<g id="edge2_Node000001_Node000003" class="edge">
<title>Node1&#45;&gt;Node3</title>
<g id="a_edge2_Node000001_Node000003"><a xlink:title=" ">
<path fill="none" stroke="#63b8ff" d="M158.5,-165.58C158.5,-159.07 158.5,-149.92 158.5,-141.62"/>
<polygon fill="#63b8ff" stroke="#63b8ff" points="162,-141.62 158.5,-131.62 155,-141.62 162,-141.62"/>
</a>
</g>
</g>
<!-- Node7 -->
<g id="Node000007" class="node">
<title>Node7</title>
<g id="a_Node000007"><a xlink:href="_spectrogram_8h.html" target="_top" xlink:title=" ">
<polygon fill="white" stroke="#666666" points="347,-74.5 268,-74.5 268,-55.25 347,-55.25 347,-74.5"/>
<text text-anchor="middle" x="307.5" y="-61" font-family="Helvetica,sans-Serif" font-size="10.00">Spectrogram.h</text>
</a>
</g>
</g>
<!-- Node1&#45;&gt;Node7 -->
<g id="edge10_Node000001_Node000007" class="edge">
<title>Node1&#45;&gt;Node7</title>
<g id="a_edge10_Node000001_Node000007"><a xlink:title=" ">
<path fill="none" stroke="#63b8ff" d="M170.95,-165.31C196.32,-146.84 254.28,-104.63 285.92,-81.59"/>
<polygon fill="#63b8ff" stroke="#63b8ff" points="287.95,-84.44 293.97,-75.73 283.83,-78.79 287.95,-84.44"/>
</a>
</g>
</g>
<!-- Node3&#45;&gt;Node2 -->
<g id="edge5_Node000003_Node000002" class="edge">
<title>Node3&#45;&gt;Node2</title>
<g id="a_edge5_Node000003_Node000002"><a xlink:title=" ">
<path fill="none" stroke="#63b8ff" d="M135.26,-110.09C112.92,-101.41 78.94,-88.2 53.94,-78.48"/>
<polygon fill="#63b8ff" stroke="#63b8ff" points="55.49,-75.33 44.9,-74.97 52.96,-81.86 55.49,-75.33"/>
</a>
</g>
</g>
<!-- Node4 -->
<g id="Node000004" class="node">
<title>Node4</title>
<g id="a_Node000004"><a xlink:title=" ">
<polygon fill="#e0e0e0" stroke="#999999" points="117.75,-74.5 61.25,-74.5 61.25,-55.25 117.75,-55.25 117.75,-74.5"/>
<text text-anchor="middle" x="89.5" y="-61" font-family="Helvetica,sans-Serif" font-size="10.00">Arduino.h</text>
</a>
</g>
</g>
<!-- Node3&#45;&gt;Node4 -->
<g id="edge3_Node000003_Node000004" class="edge">
<title>Node3&#45;&gt;Node4</title>
<g id="a_edge3_Node000003_Node000004"><a xlink:title=" ">
<path fill="none" stroke="#63b8ff" d="M146.8,-110.09C136.72,-102.32 121.96,-90.92 109.94,-81.65"/>
<polygon fill="#63b8ff" stroke="#63b8ff" points="112.29,-79.04 102.23,-75.7 108.01,-84.58 112.29,-79.04"/>
</a>
</g>
</g>
<!-- Node5 -->
<g id="Node000005" class="node">
<title>Node5</title>
<g id="a_Node000005"><a xlink:title=" ">
<polygon fill="#e0e0e0" stroke="#999999" points="181.12,-74.5 135.88,-74.5 135.88,-55.25 181.12,-55.25 181.12,-74.5"/>
<text text-anchor="middle" x="158.5" y="-61" font-family="Helvetica,sans-Serif" font-size="10.00">math.h</text>
</a>
</g>
</g>
<!-- Node3&#45;&gt;Node5 -->
<g id="edge4_Node000003_Node000005" class="edge">
<title>Node3&#45;&gt;Node5</title>
<g id="a_edge4_Node000003_Node000005"><a xlink:title=" ">
<path fill="none" stroke="#63b8ff" d="M158.5,-110.33C158.5,-103.82 158.5,-94.67 158.5,-86.37"/>
<polygon fill="#63b8ff" stroke="#63b8ff" points="162,-86.37 158.5,-76.37 155,-86.37 162,-86.37"/>
</a>
</g>
</g>
<!-- Node6 -->
<g id="Node000006" class="node">
<title>Node6</title>
<g id="a_Node000006"><a xlink:href="_config_8h.html" target="_top" xlink:title=" ">
<polygon fill="white" stroke="#666666" points="249.75,-74.5 199.25,-74.5 199.25,-55.25 249.75,-55.25 249.75,-74.5"/>
<text text-anchor="middle" x="224.5" y="-61" font-family="Helvetica,sans-Serif" font-size="10.00">Config.h</text>
</a>
</g>
</g>
<!-- Node3&#45;&gt;Node6 -->
<g id="edge6_Node000003_Node000006" class="edge">
<title>Node3&#45;&gt;Node6</title>
<g id="a_edge6_Node000003_Node000006"><a xlink:title=" ">
<path fill="none" stroke="#63b8ff" d="M169.7,-110.09C179.24,-102.4 193.17,-91.15 204.61,-81.93"/>
<polygon fill="#63b8ff" stroke="#63b8ff" points="206.71,-84.73 212.29,-75.73 202.31,-79.28 206.71,-84.73"/>
</a>
</g>
</g>
<!-- Node3&#45;&gt;Node7 -->
<g id="edge7_Node000003_Node000007" class="edge">
<title>Node3&#45;&gt;Node7</title>
<g id="a_edge7_Node000003_Node000007"><a xlink:title=" ">
<path fill="none" stroke="#63b8ff" d="M183.78,-110.09C207.86,-101.49 244.36,-88.44 271.48,-78.75"/>
<polygon fill="#63b8ff" stroke="#63b8ff" points="272.44,-82.12 280.67,-75.46 270.08,-75.53 272.44,-82.12"/>
</a>
</g>
</g>
<!-- Node8 -->
<g id="Node000008" class="node">
<title>Node8</title>
<g id="a_Node000008"><a xlink:title=" ">
<polygon fill="#e0e0e0" stroke="#999999" points="298.12,-19.25 252.88,-19.25 252.88,0 298.12,0 298.12,-19.25"/>
<text text-anchor="middle" x="275.5" y="-5.75" font-family="Helvetica,sans-Serif" font-size="10.00">cstdint</text>
</a>
</g>
</g>
<!-- Node7&#45;&gt;Node8 -->
<g id="edge8_Node000007_Node000008" class="edge">
<title>Node7&#45;&gt;Node8</title>
<g id="a_edge8_Node000007_Node000008"><a xlink:title=" ">
<path fill="none" stroke="#63b8ff" d="M302.22,-55.08C298.03,-48.11 292.02,-38.12 286.77,-29.37"/>
<polygon fill="#63b8ff" stroke="#63b8ff" points="289.83,-27.68 281.68,-20.91 283.83,-31.28 289.83,-27.68"/>
</a>
</g>
</g>
<!-- Node9 -->
<g id="Node000009" class="node">
<title>Node9</title>
<g id="a_Node000009"><a xlink:title=" ">
<polygon fill="#e0e0e0" stroke="#999999" points="361.12,-19.25 315.88,-19.25 315.88,0 361.12,0 361.12,-19.25"/>
<text text-anchor="middle" x="338.5" y="-5.75" font-family="Helvetica,sans-Serif" font-size="10.00">cstring</text>
</a>
</g>
</g>
<!-- Node7&#45;&gt;Node9 -->
<g id="edge9_Node000007_Node000009" class="edge">
<title>Node7&#45;&gt;Node9</title>
<g id="a_edge9_Node000007_Node000009"><a xlink:title=" ">
<path fill="none" stroke="#63b8ff" d="M312.62,-55.08C316.68,-48.11 322.49,-38.12 327.59,-29.37"/>
<polygon fill="#63b8ff" stroke="#63b8ff" points="330.5,-31.32 332.51,-20.92 324.45,-27.8 330.5,-31.32"/>
</a>
</g>
</g>
</g>
</svg>
