<?xml version="1.0" encoding="UTF-8" standalone="no"?>
<!DOCTYPE svg PUBLIC "-//W3C//DTD SVG 1.1//EN"
 "http://www.w3.org/Graphics/SVG/1.1/DTD/svg11.dtd">
<!-- Generated by graphviz version 12.2.0 (20241103.1931)
 -->
<!-- Title: src/modules/Noisiness.h Pages: 1 -->
<svg width="369pt" height="248pt"
 viewBox="0.00 0.00 369.25 248.25" xmlns="http://www.w3.org/2000/svg" xmlns:xlink="http://www.w3.org/1999/xlink">
<g id="graph0" class="graph" transform="scale(1 1) rotate(0) translate(4 244.25)">
<title>src/modules/Noisiness.h</title>
<!-- Node1 -->
<g id="Node000001" class="node">
<title>Node1</title>
<g id="a_Node000001"><a xlink:title=" ">
<polygon fill="#999999" stroke="#666666" points="142.25,-240.25 19,-240.25 19,-221 142.25,-221 142.25,-240.25"/>
<text text-anchor="middle" x="80.62" y="-226.75" font-family="Helvetica,sans-Serif" font-size="10.00">src/modules/Noisiness.h</text>
</a>
</g>
</g>
<!-- Node2 -->
<g id="Node000002" class="node">
<title>Node2</title>
<g id="a_Node000002"><a xlink:title=" ">
<polygon fill="#e0e0e0" stroke="#999999" points="45.25,-74.5 0,-74.5 0,-55.25 45.25,-55.25 45.25,-74.5"/>
<text text-anchor="middle" x="22.62" y="-61" font-family="Helvetica,sans-Serif" font-size="10.00">math.h</text>
</a>
</g>
</g>
<!-- Node1&#45;&gt;Node2 -->
<g id="edge1_Node000001_Node000002" class="edge">
<title>Node1&#45;&gt;Node2</title>
<g id="a_edge1_Node000001_Node000002"><a xlink:title=" ">
<path fill="none" stroke="#63b8ff" d="M77.51,-220.82C68.46,-195.28 42.05,-120.7 29.45,-85.15"/>
<polygon fill="#63b8ff" stroke="#63b8ff" points="32.9,-84.41 26.26,-76.15 26.3,-86.74 32.9,-84.41"/>
</a>
</g>
</g>
<!-- Node3 -->
<g id="Node000003" class="node">
<title>Node3</title>
<g id="a_Node000003"><a xlink:href="_analysis_module_8h.html" target="_top" xlink:title=" ">
<polygon fill="white" stroke="#666666" points="202.25,-129.75 103,-129.75 103,-110.5 202.25,-110.5 202.25,-129.75"/>
<text text-anchor="middle" x="152.62" y="-116.25" font-family="Helvetica,sans-Serif" font-size="10.00">../AnalysisModule.h</text>
</a>
</g>
</g>
<!-- Node1&#45;&gt;Node3 -->
<g id="edge2_Node000001_Node000003" class="edge">
<title>Node1&#45;&gt;Node3</title>
<g id="a_edge2_Node000001_Node000003"><a xlink:title=" ">
<path fill="none" stroke="#63b8ff" d="M81.64,-220.68C83.45,-207.67 88.21,-183.17 99.62,-165.75 107.12,-154.31 118.41,-144.23 128.64,-136.56"/>
<polygon fill="#63b8ff" stroke="#63b8ff" points="130.59,-139.48 136.74,-130.85 126.55,-133.76 130.59,-139.48"/>
</a>
</g>
</g>
<!-- Node10 -->
<g id="Node000010" class="node">
<title>Node10</title>
<g id="a_Node000010"><a xlink:href="_total_amplitude_8h.html" target="_top" xlink:title=" ">
<polygon fill="white" stroke="#666666" points="197,-185 108.25,-185 108.25,-165.75 197,-165.75 197,-185"/>
<text text-anchor="middle" x="152.62" y="-171.5" font-family="Helvetica,sans-Serif" font-size="10.00">TotalAmplitude.h</text>
</a>
</g>
</g>
<!-- Node1&#45;&gt;Node10 -->
<g id="edge10_Node000001_Node000010" class="edge">
<title>Node1&#45;&gt;Node10</title>
<g id="a_edge10_Node000001_Node000010"><a xlink:title=" ">
<path fill="none" stroke="#63b8ff" d="M92.84,-220.59C103.45,-212.74 119.06,-201.2 131.67,-191.87"/>
<polygon fill="#63b8ff" stroke="#63b8ff" points="133.42,-194.94 139.37,-186.17 129.25,-189.31 133.42,-194.94"/>
</a>
</g>
</g>
<!-- Node3&#45;&gt;Node2 -->
<g id="edge4_Node000003_Node000002" class="edge">
<title>Node3&#45;&gt;Node2</title>
<g id="a_edge4_Node000003_Node000002"><a xlink:title=" ">
<path fill="none" stroke="#63b8ff" d="M130.57,-110.09C109.94,-101.64 78.84,-88.9 55.32,-79.27"/>
<polygon fill="#63b8ff" stroke="#63b8ff" points="56.77,-76.08 46.19,-75.53 54.11,-82.56 56.77,-76.08"/>
</a>
</g>
</g>
<!-- Node4 -->
<g id="Node000004" class="node">
<title>Node4</title>
<g id="a_Node000004"><a xlink:title=" ">
<polygon fill="#e0e0e0" stroke="#999999" points="119.88,-74.5 63.38,-74.5 63.38,-55.25 119.88,-55.25 119.88,-74.5"/>
<text text-anchor="middle" x="91.62" y="-61" font-family="Helvetica,sans-Serif" font-size="10.00">Arduino.h</text>
</a>
</g>
</g>
<!-- Node3&#45;&gt;Node4 -->
<g id="edge3_Node000003_Node000004" class="edge">
<title>Node3&#45;&gt;Node4</title>
<g id="a_edge3_Node000003_Node000004"><a xlink:title=" ">
<path fill="none" stroke="#63b8ff" d="M142.28,-110.09C133.55,-102.47 120.84,-91.37 110.33,-82.2"/>
<polygon fill="#63b8ff" stroke="#63b8ff" points="112.8,-79.71 102.96,-75.77 108.19,-84.98 112.8,-79.71"/>
</a>
</g>
</g>
<!-- Node5 -->
<g id="Node000005" class="node">
<title>Node5</title>
<g id="a_Node000005"><a xlink:title=" ">
<polygon fill="#e0e0e0" stroke="#999999" points="181.12,-74.5 138.12,-74.5 138.12,-55.25 181.12,-55.25 181.12,-74.5"/>
<text text-anchor="middle" x="159.62" y="-61" font-family="Helvetica,sans-Serif" font-size="10.00">vector</text>
</a>
</g>
</g>
<!-- Node3&#45;&gt;Node5 -->
<g id="edge5_Node000003_Node000005" class="edge">
<title>Node3&#45;&gt;Node5</title>
<g id="a_edge5_Node000003_Node000005"><a xlink:title=" ">
<path fill="none" stroke="#63b8ff" d="M153.78,-110.33C154.65,-103.74 155.87,-94.46 156.97,-86.07"/>
<polygon fill="#63b8ff" stroke="#63b8ff" points="160.41,-86.73 158.25,-76.36 153.47,-85.82 160.41,-86.73"/>
</a>
</g>
</g>
<!-- Node6 -->
<g id="Node000006" class="node">
<title>Node6</title>
<g id="a_Node000006"><a xlink:href="_config_8h.html" target="_top" xlink:title=" ">
<polygon fill="white" stroke="#666666" points="249.88,-74.5 199.38,-74.5 199.38,-55.25 249.88,-55.25 249.88,-74.5"/>
<text text-anchor="middle" x="224.62" y="-61" font-family="Helvetica,sans-Serif" font-size="10.00">Config.h</text>
</a>
</g>
</g>
<!-- Node3&#45;&gt;Node6 -->
<g id="edge6_Node000003_Node000006" class="edge">
<title>Node3&#45;&gt;Node6</title>
<g id="a_edge6_Node000003_Node000006"><a xlink:title=" ">
<path fill="none" stroke="#63b8ff" d="M164.84,-110.09C175.45,-102.24 191.06,-90.7 203.67,-81.37"/>
<polygon fill="#63b8ff" stroke="#63b8ff" points="205.42,-84.44 211.37,-75.67 201.25,-78.81 205.42,-84.44"/>
</a>
</g>
</g>
<!-- Node7 -->
<g id="Node000007" class="node">
<title>Node7</title>
<g id="a_Node000007"><a xlink:href="_spectrogram_8h.html" target="_top" xlink:title=" ">
<polygon fill="white" stroke="#666666" points="347.12,-74.5 268.12,-74.5 268.12,-55.25 347.12,-55.25 347.12,-74.5"/>
<text text-anchor="middle" x="307.62" y="-61" font-family="Helvetica,sans-Serif" font-size="10.00">Spectrogram.h</text>
</a>
</g>
</g>
<!-- Node3&#45;&gt;Node7 -->
<g id="edge7_Node000003_Node000007" class="edge">
<title>Node3&#45;&gt;Node7</title>
<g id="a_edge7_Node000003_Node000007"><a xlink:title=" ">
<path fill="none" stroke="#63b8ff" d="M178.92,-110.09C204.08,-101.45 242.28,-88.32 270.53,-78.62"/>
<polygon fill="#63b8ff" stroke="#63b8ff" points="271.45,-82 279.77,-75.44 269.18,-75.38 271.45,-82"/>
</a>
</g>
</g>
<!-- Node8 -->
<g id="Node000008" class="node">
<title>Node8</title>
<g id="a_Node000008"><a xlink:title=" ">
<polygon fill="#e0e0e0" stroke="#999999" points="298.25,-19.25 253,-19.25 253,0 298.25,0 298.25,-19.25"/>
<text text-anchor="middle" x="275.62" y="-5.75" font-family="Helvetica,sans-Serif" font-size="10.00">cstdint</text>
</a>
</g>
</g>
<!-- Node7&#45;&gt;Node8 -->
<g id="edge8_Node000007_Node000008" class="edge">
<title>Node7&#45;&gt;Node8</title>
<g id="a_edge8_Node000007_Node000008"><a xlink:title=" ">
<path fill="none" stroke="#63b8ff" d="M302.34,-55.08C298.15,-48.11 292.15,-38.12 286.89,-29.37"/>
<polygon fill="#63b8ff" stroke="#63b8ff" points="289.95,-27.68 281.8,-20.91 283.95,-31.28 289.95,-27.68"/>
</a>
</g>
</g>
<!-- Node9 -->
<g id="Node000009" class="node">
<title>Node9</title>
<g id="a_Node000009"><a xlink:title=" ">
<polygon fill="#e0e0e0" stroke="#999999" points="361.25,-19.25 316,-19.25 316,0 361.25,0 361.25,-19.25"/>
<text text-anchor="middle" x="338.62" y="-5.75" font-family="Helvetica,sans-Serif" font-size="10.00">cstring</text>
</a>
</g>
</g>
<!-- Node7&#45;&gt;Node9 -->
<g id="edge9_Node000007_Node000009" class="edge">
<title>Node7&#45;&gt;Node9</title>
<g id="a_edge9_Node000007_Node000009"><a xlink:title=" ">
<path fill="none" stroke="#63b8ff" d="M312.74,-55.08C316.8,-48.11 322.62,-38.12 327.71,-29.37"/>
<polygon fill="#63b8ff" stroke="#63b8ff" points="330.63,-31.32 332.63,-20.92 324.58,-27.8 330.63,-31.32"/>
</a>
</g>
</g>
<!-- Node10&#45;&gt;Node3 -->
<g id="edge11_Node000010_Node000003" class="edge">
<title>Node10&#45;&gt;Node3</title>
<g id="a_edge11_Node000010_Node000003"><a xlink:title=" ">
<path fill="none" stroke="#63b8ff" d="M152.62,-165.58C152.62,-159.07 152.62,-149.92 152.62,-141.62"/>
<polygon fill="#63b8ff" stroke="#63b8ff" points="156.13,-141.62 152.63,-131.62 149.13,-141.62 156.13,-141.62"/>
</a>
</g>
</g>
</g>
</svg>
