<?xml version="1.0" encoding="UTF-8" standalone="no"?>
<!DOCTYPE svg PUBLIC "-//W3C//DTD SVG 1.1//EN"
 "http://www.w3.org/Graphics/SVG/1.1/DTD/svg11.dtd">
<!-- Generated by graphviz version 12.2.0 (20241103.1931)
 -->
<!-- Title: src/modules/Noisiness.h Pages: 1 -->
<svg width="212pt" height="138pt"
 viewBox="0.00 0.00 211.50 137.75" xmlns="http://www.w3.org/2000/svg" xmlns:xlink="http://www.w3.org/1999/xlink">
<g id="graph0" class="graph" transform="scale(1 1) rotate(0) translate(4 133.75)">
<title>src/modules/Noisiness.h</title>
<!-- Node1 -->
<g id="Node000001" class="node">
<title>Node1</title>
<g id="a_Node000001"><a xlink:title=" ">
<polygon fill="#999999" stroke="#666666" points="123.25,-129.75 0,-129.75 0,-110.5 123.25,-110.5 123.25,-129.75"/>
<text text-anchor="middle" x="61.62" y="-116.25" font-family="Helvetica,sans-Serif" font-size="10.00">src/modules/Noisiness.h</text>
</a>
</g>
</g>
<!-- Node2 -->
<g id="Node000002" class="node">
<title>Node2</title>
<g id="a_Node000002"><a xlink:href="_audio_prism_8h.html" target="_top" xlink:title=" ">
<polygon fill="white" stroke="#666666" points="106.75,-19.25 16.5,-19.25 16.5,0 106.75,0 106.75,-19.25"/>
<text text-anchor="middle" x="61.62" y="-5.75" font-family="Helvetica,sans-Serif" font-size="10.00">src/AudioPrism.h</text>
</a>
</g>
</g>
<!-- Node1&#45;&gt;Node2 -->
<g id="edge1_Node000001_Node000002" class="edge">
<title>Node1&#45;&gt;Node2</title>
<g id="a_edge1_Node000001_Node000002"><a xlink:title=" ">
<path fill="none" stroke="#63b8ff" d="M42.77,-102.14C35.64,-94.49 28.36,-84.84 24.62,-74.5 17.06,-53.52 36.87,-31.55 50.34,-19.63"/>
<polygon fill="#63b8ff" stroke="#63b8ff" points="40.2,-104.52 49.76,-109.07 45.12,-99.55 40.2,-104.52"/>
</a>
</g>
</g>
<!-- Node3 -->
<g id="Node000003" class="node">
<title>Node3</title>
<g id="a_Node000003"><a xlink:href="_percussion_detection_8h.html" target="_top" xlink:title=" ">
<polygon fill="white" stroke="#666666" points="203.5,-74.5 33.75,-74.5 33.75,-55.25 203.5,-55.25 203.5,-74.5"/>
<text text-anchor="middle" x="118.62" y="-61" font-family="Helvetica,sans-Serif" font-size="10.00">src/modules/PercussionDetection.h</text>
</a>
</g>
</g>
<!-- Node1&#45;&gt;Node3 -->
<g id="edge2_Node000001_Node000003" class="edge">
<title>Node1&#45;&gt;Node3</title>
<g id="a_edge2_Node000001_Node000003"><a xlink:title=" ">
<path fill="none" stroke="#63b8ff" d="M79.57,-102.36C89.36,-93.22 101.07,-82.28 109.1,-74.77"/>
<polygon fill="#63b8ff" stroke="#63b8ff" points="77.32,-99.67 72.4,-109.06 82.1,-104.79 77.32,-99.67"/>
</a>
</g>
</g>
<!-- Node3&#45;&gt;Node2 -->
<g id="edge3_Node000003_Node000002" class="edge">
<title>Node3&#45;&gt;Node2</title>
<g id="a_edge3_Node000003_Node000002"><a xlink:title=" ">
<path fill="none" stroke="#63b8ff" d="M100.68,-47.11C90.89,-37.97 79.18,-27.03 71.15,-19.52"/>
<polygon fill="#63b8ff" stroke="#63b8ff" points="98.15,-49.54 107.85,-53.81 102.93,-44.42 98.15,-49.54"/>
</a>
</g>
</g>
</g>
</svg>
