<?xml version="1.0" encoding="UTF-8" standalone="no"?>
<!DOCTYPE svg PUBLIC "-//W3C//DTD SVG 1.1//EN"
 "http://www.w3.org/Graphics/SVG/1.1/DTD/svg11.dtd">
<!-- Generated by graphviz version 12.2.0 (20241103.1931)
 -->
<!-- Title: src/modules/PercussionDetection.h Pages: 1 -->
<svg width="445pt" height="304pt"
 viewBox="0.00 0.00 445.12 303.50" xmlns="http://www.w3.org/2000/svg" xmlns:xlink="http://www.w3.org/1999/xlink">
<g id="graph0" class="graph" transform="scale(1 1) rotate(0) translate(4 299.5)">
<title>src/modules/PercussionDetection.h</title>
<!-- Node1 -->
<g id="Node000001" class="node">
<title>Node1</title>
<g id="a_Node000001"><a xlink:title=" ">
<polygon fill="#999999" stroke="#666666" points="333.5,-295.5 163.75,-295.5 163.75,-276.25 333.5,-276.25 333.5,-295.5"/>
<text text-anchor="middle" x="248.62" y="-282" font-family="Helvetica,sans-Serif" font-size="10.00">src/modules/PercussionDetection.h</text>
</a>
</g>
</g>
<!-- Node2 -->
<g id="Node000002" class="node">
<title>Node2</title>
<g id="a_Node000002"><a xlink:href="_analysis_module_8h.html" target="_top" xlink:title=" ">
<polygon fill="white" stroke="#666666" points="267.25,-129.75 168,-129.75 168,-110.5 267.25,-110.5 267.25,-129.75"/>
<text text-anchor="middle" x="217.62" y="-116.25" font-family="Helvetica,sans-Serif" font-size="10.00">../AnalysisModule.h</text>
</a>
</g>
</g>
<!-- Node1&#45;&gt;Node2 -->
<g id="edge1_Node000001_Node000002" class="edge">
<title>Node1&#45;&gt;Node2</title>
<g id="a_edge1_Node000001_Node000002"><a xlink:title=" ">
<path fill="none" stroke="#63b8ff" d="M237.08,-275.95C217.68,-260.12 179.22,-225.02 164.62,-185 161.69,-176.96 161.02,-173.51 164.62,-165.75 170.2,-153.77 180.75,-143.85 190.99,-136.43"/>
<polygon fill="#63b8ff" stroke="#63b8ff" points="192.87,-139.38 199.26,-130.94 189,-133.55 192.87,-139.38"/>
</a>
</g>
</g>
<!-- Node10 -->
<g id="Node000010" class="node">
<title>Node10</title>
<g id="a_Node000010"><a xlink:href="_delta_amplitudes_8h.html" target="_top" xlink:title=" ">
<polygon fill="white" stroke="#666666" points="426,-240.25 331.25,-240.25 331.25,-221 426,-221 426,-240.25"/>
<text text-anchor="middle" x="378.62" y="-226.75" font-family="Helvetica,sans-Serif" font-size="10.00">DeltaAmplitudes.h</text>
</a>
</g>
</g>
<!-- Node1&#45;&gt;Node10 -->
<g id="edge9_Node000001_Node000010" class="edge">
<title>Node1&#45;&gt;Node10</title>
<g id="a_edge9_Node000001_Node000010"><a xlink:title=" ">
<path fill="none" stroke="#63b8ff" d="M270.68,-275.84C291.31,-267.39 322.41,-254.65 345.93,-245.02"/>
<polygon fill="#63b8ff" stroke="#63b8ff" points="347.14,-248.31 355.06,-241.28 344.48,-241.83 347.14,-248.31"/>
</a>
</g>
</g>
<!-- Node12 -->
<g id="Node000012" class="node">
<title>Node12</title>
<g id="a_Node000012"><a xlink:href="_noisiness_8h.html" target="_top" xlink:title=" ">
<polygon fill="white" stroke="#666666" points="313.12,-240.25 246.12,-240.25 246.12,-221 313.12,-221 313.12,-240.25"/>
<text text-anchor="middle" x="279.62" y="-226.75" font-family="Helvetica,sans-Serif" font-size="10.00">Noisiness.h</text>
</a>
</g>
</g>
<!-- Node1&#45;&gt;Node12 -->
<g id="edge12_Node000001_Node000012" class="edge">
<title>Node1&#45;&gt;Node12</title>
<g id="a_edge12_Node000001_Node000012"><a xlink:title=" ">
<path fill="none" stroke="#63b8ff" d="M253.74,-276.08C257.8,-269.11 263.62,-259.12 268.71,-250.37"/>
<polygon fill="#63b8ff" stroke="#63b8ff" points="271.63,-252.32 273.63,-241.92 265.58,-248.8 271.63,-252.32"/>
</a>
</g>
</g>
<!-- Node13 -->
<g id="Node000013" class="node">
<title>Node13</title>
<g id="a_Node000013"><a xlink:href="_total_amplitude_8h.html" target="_top" xlink:title=" ">
<polygon fill="white" stroke="#666666" points="262,-185 173.25,-185 173.25,-165.75 262,-165.75 262,-185"/>
<text text-anchor="middle" x="217.62" y="-171.5" font-family="Helvetica,sans-Serif" font-size="10.00">TotalAmplitude.h</text>
</a>
</g>
</g>
<!-- Node1&#45;&gt;Node13 -->
<g id="edge17_Node000001_Node000013" class="edge">
<title>Node1&#45;&gt;Node13</title>
<g id="a_edge17_Node000001_Node000013"><a xlink:title=" ">
<path fill="none" stroke="#63b8ff" d="M246.09,-276C241.14,-258.67 230.08,-219.98 223.3,-196.24"/>
<polygon fill="#63b8ff" stroke="#63b8ff" points="226.73,-195.49 220.61,-186.83 219.99,-197.41 226.73,-195.49"/>
</a>
</g>
</g>
<!-- Node3 -->
<g id="Node000003" class="node">
<title>Node3</title>
<g id="a_Node000003"><a xlink:title=" ">
<polygon fill="#e0e0e0" stroke="#999999" points="167.88,-74.5 111.38,-74.5 111.38,-55.25 167.88,-55.25 167.88,-74.5"/>
<text text-anchor="middle" x="139.62" y="-61" font-family="Helvetica,sans-Serif" font-size="10.00">Arduino.h</text>
</a>
</g>
</g>
<!-- Node2&#45;&gt;Node3 -->
<g id="edge2_Node000002_Node000003" class="edge">
<title>Node2&#45;&gt;Node3</title>
<g id="a_edge2_Node000002_Node000003"><a xlink:title=" ">
<path fill="none" stroke="#63b8ff" d="M204.39,-110.09C192.85,-102.21 175.86,-90.61 162.18,-81.27"/>
<polygon fill="#63b8ff" stroke="#63b8ff" points="164.4,-78.55 154.17,-75.81 160.46,-84.33 164.4,-78.55"/>
</a>
</g>
</g>
<!-- Node4 -->
<g id="Node000004" class="node">
<title>Node4</title>
<g id="a_Node000004"><a xlink:title=" ">
<polygon fill="#e0e0e0" stroke="#999999" points="361.25,-74.5 316,-74.5 316,-55.25 361.25,-55.25 361.25,-74.5"/>
<text text-anchor="middle" x="338.62" y="-61" font-family="Helvetica,sans-Serif" font-size="10.00">math.h</text>
</a>
</g>
</g>
<!-- Node2&#45;&gt;Node4 -->
<g id="edge3_Node000002_Node000004" class="edge">
<title>Node2&#45;&gt;Node4</title>
<g id="a_edge3_Node000002_Node000004"><a xlink:title=" ">
<path fill="none" stroke="#63b8ff" d="M238.15,-110.09C257.19,-101.72 285.78,-89.13 307.6,-79.53"/>
<polygon fill="#63b8ff" stroke="#63b8ff" points="308.87,-82.79 316.61,-75.56 306.05,-76.39 308.87,-82.79"/>
</a>
</g>
</g>
<!-- Node5 -->
<g id="Node000005" class="node">
<title>Node5</title>
<g id="a_Node000005"><a xlink:title=" ">
<polygon fill="#e0e0e0" stroke="#999999" points="229.12,-74.5 186.12,-74.5 186.12,-55.25 229.12,-55.25 229.12,-74.5"/>
<text text-anchor="middle" x="207.62" y="-61" font-family="Helvetica,sans-Serif" font-size="10.00">vector</text>
</a>
</g>
</g>
<!-- Node2&#45;&gt;Node5 -->
<g id="edge4_Node000002_Node000005" class="edge">
<title>Node2&#45;&gt;Node5</title>
<g id="a_edge4_Node000002_Node000005"><a xlink:title=" ">
<path fill="none" stroke="#63b8ff" d="M215.97,-110.33C214.74,-103.74 212.99,-94.46 211.42,-86.07"/>
<polygon fill="#63b8ff" stroke="#63b8ff" points="214.88,-85.53 209.59,-76.35 208,-86.82 214.88,-85.53"/>
</a>
</g>
</g>
<!-- Node6 -->
<g id="Node000006" class="node">
<title>Node6</title>
<g id="a_Node000006"><a xlink:href="_config_8h.html" target="_top" xlink:title=" ">
<polygon fill="white" stroke="#666666" points="297.88,-74.5 247.38,-74.5 247.38,-55.25 297.88,-55.25 297.88,-74.5"/>
<text text-anchor="middle" x="272.62" y="-61" font-family="Helvetica,sans-Serif" font-size="10.00">Config.h</text>
</a>
</g>
</g>
<!-- Node2&#45;&gt;Node6 -->
<g id="edge5_Node000002_Node000006" class="edge">
<title>Node2&#45;&gt;Node6</title>
<g id="a_edge5_Node000002_Node000006"><a xlink:title=" ">
<path fill="none" stroke="#63b8ff" d="M226.71,-110.33C234.46,-102.82 245.84,-91.81 255.32,-82.63"/>
<polygon fill="#63b8ff" stroke="#63b8ff" points="257.51,-85.38 262.26,-75.91 252.64,-80.35 257.51,-85.38"/>
</a>
</g>
</g>
<!-- Node7 -->
<g id="Node000007" class="node">
<title>Node7</title>
<g id="a_Node000007"><a xlink:href="_spectrogram_8h.html" target="_top" xlink:title=" ">
<polygon fill="white" stroke="#666666" points="93.12,-74.5 14.12,-74.5 14.12,-55.25 93.12,-55.25 93.12,-74.5"/>
<text text-anchor="middle" x="53.62" y="-61" font-family="Helvetica,sans-Serif" font-size="10.00">Spectrogram.h</text>
</a>
</g>
</g>
<!-- Node2&#45;&gt;Node7 -->
<g id="edge6_Node000002_Node000007" class="edge">
<title>Node2&#45;&gt;Node7</title>
<g id="a_edge6_Node000002_Node000007"><a xlink:title=" ">
<path fill="none" stroke="#63b8ff" d="M189.8,-110.09C163.06,-101.41 122.41,-88.21 92.48,-78.49"/>
<polygon fill="#63b8ff" stroke="#63b8ff" points="93.61,-75.18 83.02,-75.42 91.45,-81.84 93.61,-75.18"/>
</a>
</g>
</g>
<!-- Node8 -->
<g id="Node000008" class="node">
<title>Node8</title>
<g id="a_Node000008"><a xlink:title=" ">
<polygon fill="#e0e0e0" stroke="#999999" points="45.25,-19.25 0,-19.25 0,0 45.25,0 45.25,-19.25"/>
<text text-anchor="middle" x="22.62" y="-5.75" font-family="Helvetica,sans-Serif" font-size="10.00">cstdint</text>
</a>
</g>
</g>
<!-- Node7&#45;&gt;Node8 -->
<g id="edge7_Node000007_Node000008" class="edge">
<title>Node7&#45;&gt;Node8</title>
<g id="a_edge7_Node000007_Node000008"><a xlink:title=" ">
<path fill="none" stroke="#63b8ff" d="M48.51,-55.08C44.45,-48.11 38.63,-38.12 33.54,-29.37"/>
<polygon fill="#63b8ff" stroke="#63b8ff" points="36.67,-27.8 28.62,-20.92 30.62,-31.32 36.67,-27.8"/>
</a>
</g>
</g>
<!-- Node9 -->
<g id="Node000009" class="node">
<title>Node9</title>
<g id="a_Node000009"><a xlink:title=" ">
<polygon fill="#e0e0e0" stroke="#999999" points="108.25,-19.25 63,-19.25 63,0 108.25,0 108.25,-19.25"/>
<text text-anchor="middle" x="85.62" y="-5.75" font-family="Helvetica,sans-Serif" font-size="10.00">cstring</text>
</a>
</g>
</g>
<!-- Node7&#45;&gt;Node9 -->
<g id="edge8_Node000007_Node000009" class="edge">
<title>Node7&#45;&gt;Node9</title>
<g id="a_edge8_Node000007_Node000009"><a xlink:title=" ">
<path fill="none" stroke="#63b8ff" d="M58.91,-55.08C63.1,-48.11 69.1,-38.12 74.36,-29.37"/>
<polygon fill="#63b8ff" stroke="#63b8ff" points="77.3,-31.28 79.45,-20.91 71.3,-27.68 77.3,-31.28"/>
</a>
</g>
</g>
<!-- Node10&#45;&gt;Node2 -->
<g id="edge10_Node000010_Node000002" class="edge">
<title>Node10&#45;&gt;Node2</title>
<g id="a_edge10_Node000010_Node000002"><a xlink:title=" ">
<path fill="none" stroke="#63b8ff" d="M366.09,-220.56C348.65,-208.01 316.02,-184.75 287.62,-165.75 272.54,-155.66 255.37,-144.7 241.8,-136.17"/>
<polygon fill="#63b8ff" stroke="#63b8ff" points="243.84,-133.31 233.51,-130.97 240.13,-139.25 243.84,-133.31"/>
</a>
</g>
</g>
<!-- Node11 -->
<g id="Node000011" class="node">
<title>Node11</title>
<g id="a_Node000011"><a xlink:title=" ">
<polygon fill="#e0e0e0" stroke="#999999" points="437.12,-185 394.12,-185 394.12,-165.75 437.12,-165.75 437.12,-185"/>
<text text-anchor="middle" x="415.62" y="-171.5" font-family="Helvetica,sans-Serif" font-size="10.00">cmath</text>
</a>
</g>
</g>
<!-- Node10&#45;&gt;Node11 -->
<g id="edge11_Node000010_Node000011" class="edge">
<title>Node10&#45;&gt;Node11</title>
<g id="a_edge11_Node000010_Node000011"><a xlink:title=" ">
<path fill="none" stroke="#63b8ff" d="M384.73,-220.83C389.69,-213.71 396.83,-203.43 403,-194.55"/>
<polygon fill="#63b8ff" stroke="#63b8ff" points="405.69,-196.81 408.52,-186.6 399.94,-192.82 405.69,-196.81"/>
</a>
</g>
</g>
<!-- Node12&#45;&gt;Node2 -->
<g id="edge14_Node000012_Node000002" class="edge">
<title>Node12&#45;&gt;Node2</title>
<g id="a_edge14_Node000012_Node000002"><a xlink:title=" ">
<path fill="none" stroke="#63b8ff" d="M280.3,-220.74C280.87,-207.8 280.39,-183.39 270.62,-165.75 264.09,-153.95 253.11,-143.92 242.83,-136.38"/>
<polygon fill="#63b8ff" stroke="#63b8ff" points="244.85,-133.52 234.61,-130.79 240.91,-139.31 244.85,-133.52"/>
</a>
</g>
</g>
<!-- Node12&#45;&gt;Node4 -->
<g id="edge13_Node000012_Node000004" class="edge">
<title>Node12&#45;&gt;Node4</title>
<g id="a_edge13_Node000012_Node000004"><a xlink:title=" ">
<path fill="none" stroke="#63b8ff" d="M282.8,-220.82C292,-195.28 318.87,-120.7 331.68,-85.15"/>
<polygon fill="#63b8ff" stroke="#63b8ff" points="334.83,-86.74 334.92,-76.15 328.24,-84.37 334.83,-86.74"/>
</a>
</g>
</g>
<!-- Node12&#45;&gt;Node13 -->
<g id="edge15_Node000012_Node000013" class="edge">
<title>Node12&#45;&gt;Node13</title>
<g id="a_edge15_Node000012_Node000013"><a xlink:title=" ">
<path fill="none" stroke="#63b8ff" d="M269.11,-220.59C260.24,-212.97 247.31,-201.87 236.64,-192.7"/>
<polygon fill="#63b8ff" stroke="#63b8ff" points="239,-190.12 229.14,-186.26 234.44,-195.43 239,-190.12"/>
</a>
</g>
</g>
<!-- Node13&#45;&gt;Node2 -->
<g id="edge16_Node000013_Node000002" class="edge">
<title>Node13&#45;&gt;Node2</title>
<g id="a_edge16_Node000013_Node000002"><a xlink:title=" ">
<path fill="none" stroke="#63b8ff" d="M217.62,-165.58C217.62,-159.07 217.62,-149.92 217.62,-141.62"/>
<polygon fill="#63b8ff" stroke="#63b8ff" points="221.13,-141.62 217.63,-131.62 214.13,-141.62 221.13,-141.62"/>
</a>
</g>
</g>
</g>
</svg>
