<?xml version="1.0" encoding="UTF-8" standalone="no"?>
<!DOCTYPE svg PUBLIC "-//W3C//DTD SVG 1.1//EN"
 "http://www.w3.org/Graphics/SVG/1.1/DTD/svg11.dtd">
<!-- Generated by graphviz version 12.2.0 (20241103.1931)
 -->
<!-- Title: src/Spectrogram.h Pages: 1 -->
<svg width="1522pt" height="304pt"
 viewBox="0.00 0.00 1522.24 303.50" xmlns="http://www.w3.org/2000/svg" xmlns:xlink="http://www.w3.org/1999/xlink">
<g id="graph0" class="graph" transform="scale(1 1) rotate(0) translate(4 299.5)">
<title>src/Spectrogram.h</title>
<!-- Node1 -->
<g id="Node000001" class="node">
<title>Node1</title>
<g id="a_Node000001"><a xlink:title=" ">
<polygon fill="#999999" stroke="#666666" points="616.12,-295.5 520.62,-295.5 520.62,-276.25 616.12,-276.25 616.12,-295.5"/>
<text text-anchor="middle" x="568.37" y="-282" font-family="Helvetica,sans-Serif" font-size="10.00">src/Spectrogram.h</text>
</a>
</g>
</g>
<!-- Node2 -->
<g id="Node000002" class="node">
<title>Node2</title>
<g id="a_Node000002"><a xlink:href="_analysis_module_8h.html" target="_top" xlink:title=" ">
<polygon fill="white" stroke="#666666" points="767.49,-240.25 659.24,-240.25 659.24,-221 767.49,-221 767.49,-240.25"/>
<text text-anchor="middle" x="713.37" y="-226.75" font-family="Helvetica,sans-Serif" font-size="10.00">src/AnalysisModule.h</text>
</a>
</g>
</g>
<!-- Node1&#45;&gt;Node2 -->
<g id="edge1_Node000001_Node000002" class="edge">
<title>Node1&#45;&gt;Node2</title>
<g id="a_edge1_Node000001_Node000002"><a xlink:title=" ">
<path fill="none" stroke="#63b8ff" d="M603.64,-271.92C629.96,-262.25 665.28,-249.29 688.65,-240.7"/>
<polygon fill="#63b8ff" stroke="#63b8ff" points="602.57,-268.59 594.39,-275.32 604.98,-275.16 602.57,-268.59"/>
</a>
</g>
</g>
<!-- Node4 -->
<g id="Node000004" class="node">
<title>Node4</title>
<g id="a_Node000004"><a xlink:href="_audio_prism_8h.html" target="_top" xlink:title=" ">
<polygon fill="white" stroke="#666666" points="704.49,-19.25 614.24,-19.25 614.24,0 704.49,0 704.49,-19.25"/>
<text text-anchor="middle" x="659.37" y="-5.75" font-family="Helvetica,sans-Serif" font-size="10.00">src/AudioPrism.h</text>
</a>
</g>
</g>
<!-- Node1&#45;&gt;Node4 -->
<g id="edge37_Node000001_Node000004" class="edge">
<title>Node1&#45;&gt;Node4</title>
<g id="a_edge37_Node000001_Node000004"><a xlink:title=" ">
<path fill="none" stroke="#63b8ff" d="M509.22,-285.7C365.83,-286.12 11.37,-276.97 11.37,-176.38 11.37,-176.38 11.37,-176.38 11.37,-119.12 11.37,-110.5 -65.63,-110.93 183.37,-55.25 338.69,-20.52 528.38,-12.78 613.82,-11.08"/>
<polygon fill="#63b8ff" stroke="#63b8ff" points="508.9,-289.2 518.88,-285.65 508.87,-282.2 508.9,-289.2"/>
</a>
</g>
</g>
<!-- Node5 -->
<g id="Node000005" class="node">
<title>Node5</title>
<g id="a_Node000005"><a xlink:href="_module_group_8h.html" target="_top" xlink:title=" ">
<polygon fill="white" stroke="#666666" points="185.24,-185 87.49,-185 87.49,-165.75 185.24,-165.75 185.24,-185"/>
<text text-anchor="middle" x="136.37" y="-171.5" font-family="Helvetica,sans-Serif" font-size="10.00">src/ModuleGroup.h</text>
</a>
</g>
</g>
<!-- Node1&#45;&gt;Node5 -->
<g id="edge38_Node000001_Node000005" class="edge">
<title>Node1&#45;&gt;Node5</title>
<g id="a_edge38_Node000001_Node000005"><a xlink:title=" ">
<path fill="none" stroke="#63b8ff" d="M521.17,-273.02C434.26,-251.19 250.66,-205.08 172.66,-185.49"/>
<polygon fill="#63b8ff" stroke="#63b8ff" points="520.26,-276.4 530.81,-275.44 521.96,-269.61 520.26,-276.4"/>
</a>
</g>
</g>
<!-- Node19 -->
<g id="Node000019" class="node">
<title>Node19</title>
<g id="a_Node000019"><a xlink:href="_spectrogram_8cpp.html" target="_top" xlink:title=" ">
<polygon fill="white" stroke="#666666" points="891.37,-240.25 785.37,-240.25 785.37,-221 891.37,-221 891.37,-240.25"/>
<text text-anchor="middle" x="838.37" y="-226.75" font-family="Helvetica,sans-Serif" font-size="10.00">src/Spectrogram.cpp</text>
</a>
</g>
</g>
<!-- Node1&#45;&gt;Node19 -->
<g id="edge39_Node000001_Node000019" class="edge">
<title>Node1&#45;&gt;Node19</title>
<g id="a_edge39_Node000001_Node000019"><a xlink:title=" ">
<path fill="none" stroke="#63b8ff" d="M625.68,-273.57C675.39,-263.77 746.41,-249.76 792.45,-240.68"/>
<polygon fill="#63b8ff" stroke="#63b8ff" points="625.09,-270.12 615.96,-275.49 626.45,-276.99 625.09,-270.12"/>
</a>
</g>
</g>
<!-- Node3 -->
<g id="Node000003" class="node">
<title>Node3</title>
<g id="a_Node000003"><a xlink:href="_analysis_module_8cpp.html" target="_top" xlink:title=" ">
<polygon fill="white" stroke="#666666" points="1249.74,-185 1130.99,-185 1130.99,-165.75 1249.74,-165.75 1249.74,-185"/>
<text text-anchor="middle" x="1190.37" y="-171.5" font-family="Helvetica,sans-Serif" font-size="10.00">src/AnalysisModule.cpp</text>
</a>
</g>
</g>
<!-- Node2&#45;&gt;Node3 -->
<g id="edge2_Node000002_Node000003" class="edge">
<title>Node2&#45;&gt;Node3</title>
<g id="a_edge2_Node000002_Node000003"><a xlink:title=" ">
<path fill="none" stroke="#63b8ff" d="M779.17,-220.7C931.75,-202.51 972.38,-202.31 1122.37,-185 1125.09,-184.69 1127.87,-184.36 1130.67,-184.02"/>
<polygon fill="#63b8ff" stroke="#63b8ff" points="779,-217.19 769.49,-221.86 779.84,-224.14 779,-217.19"/>
</a>
</g>
</g>
<!-- Node2&#45;&gt;Node4 -->
<g id="edge3_Node000002_Node000004" class="edge">
<title>Node2&#45;&gt;Node4</title>
<g id="a_edge3_Node000002_Node000004"><a xlink:title=" ">
<path fill="none" stroke="#63b8ff" d="M779.31,-221.08C867.21,-216.12 1223.62,-222.44 1258.37,-185 1264.19,-178.73 1263.22,-172.8 1258.37,-165.75 1194.49,-72.95 833.17,-28.08 704.7,-14.9"/>
<polygon fill="#63b8ff" stroke="#63b8ff" points="779.19,-217.58 769.49,-221.82 779.72,-224.56 779.19,-217.58"/>
</a>
</g>
</g>
<!-- Node2&#45;&gt;Node5 -->
<g id="edge4_Node000002_Node000005" class="edge">
<title>Node2&#45;&gt;Node5</title>
<g id="a_edge4_Node000002_Node000005"><a xlink:title=" ">
<path fill="none" stroke="#63b8ff" d="M647.41,-224.95C549.49,-217.77 359.97,-202.95 199.37,-185 194.87,-184.5 190.2,-183.93 185.52,-183.34"/>
<polygon fill="#63b8ff" stroke="#63b8ff" points="647.15,-228.44 657.37,-225.67 647.66,-221.46 647.15,-228.44"/>
</a>
</g>
</g>
<!-- Node7 -->
<g id="Node000007" class="node">
<title>Node7</title>
<g id="a_Node000007"><a xlink:href="_bread_slicer_8h.html" target="_top" xlink:title=" ">
<polygon fill="white" stroke="#666666" points="1380.37,-74.5 1250.37,-74.5 1250.37,-55.25 1380.37,-55.25 1380.37,-74.5"/>
<text text-anchor="middle" x="1315.37" y="-61" font-family="Helvetica,sans-Serif" font-size="10.00">src/modules/BreadSlicer.h</text>
</a>
</g>
</g>
<!-- Node2&#45;&gt;Node7 -->
<g id="edge7_Node000002_Node000007" class="edge">
<title>Node2&#45;&gt;Node7</title>
<g id="a_edge7_Node000002_Node000007"><a xlink:title=" ">
<path fill="none" stroke="#63b8ff" d="M779.41,-221.05C871.5,-215.73 1250.3,-221.09 1291.37,-185 1323.86,-156.45 1319.7,-97.24 1316.76,-74.78"/>
<polygon fill="#63b8ff" stroke="#63b8ff" points="779.19,-217.56 769.49,-221.81 779.72,-224.54 779.19,-217.56"/>
</a>
</g>
</g>
<!-- Node8 -->
<g id="Node000008" class="node">
<title>Node8</title>
<g id="a_Node000008"><a xlink:href="_centroid_8h.html" target="_top" xlink:title=" ">
<polygon fill="white" stroke="#666666" points="1514.24,-74.5 1398.49,-74.5 1398.49,-55.25 1514.24,-55.25 1514.24,-74.5"/>
<text text-anchor="middle" x="1456.37" y="-61" font-family="Helvetica,sans-Serif" font-size="10.00">src/modules/Centroid.h</text>
</a>
</g>
</g>
<!-- Node2&#45;&gt;Node8 -->
<g id="edge9_Node000002_Node000008" class="edge">
<title>Node2&#45;&gt;Node8</title>
<g id="a_edge9_Node000002_Node000008"><a xlink:title=" ">
<path fill="none" stroke="#63b8ff" d="M779.2,-220.89C912.33,-209.99 1204.6,-227.93 1312.37,-185 1374.46,-160.26 1429.87,-98.2 1449.14,-74.9"/>
<polygon fill="#63b8ff" stroke="#63b8ff" points="779.12,-217.38 769.48,-221.78 779.76,-224.35 779.12,-217.38"/>
</a>
</g>
</g>
<!-- Node9 -->
<g id="Node000009" class="node">
<title>Node9</title>
<g id="a_Node000009"><a xlink:href="_delta_amplitudes_8h.html" target="_top" xlink:title=" ">
<polygon fill="white" stroke="#666666" points="392.87,-129.75 241.87,-129.75 241.87,-110.5 392.87,-110.5 392.87,-129.75"/>
<text text-anchor="middle" x="317.37" y="-116.25" font-family="Helvetica,sans-Serif" font-size="10.00">src/modules/DeltaAmplitudes.h</text>
</a>
</g>
</g>
<!-- Node2&#45;&gt;Node9 -->
<g id="edge11_Node000002_Node000009" class="edge">
<title>Node2&#45;&gt;Node9</title>
<g id="a_edge11_Node000002_Node000009"><a xlink:title=" ">
<path fill="none" stroke="#63b8ff" d="M647.41,-228.86C583.83,-226.11 485.95,-216.48 407.37,-185 374.28,-171.75 341.76,-144.03 326.45,-129.87"/>
<polygon fill="#63b8ff" stroke="#63b8ff" points="647.23,-232.36 657.36,-229.24 647.5,-225.37 647.23,-232.36"/>
</a>
</g>
</g>
<!-- Node10 -->
<g id="Node000010" class="node">
<title>Node10</title>
<g id="a_Node000010"><a xlink:href="_percussion_detection_8h.html" target="_top" xlink:title=" ">
<polygon fill="white" stroke="#666666" points="573.24,-74.5 403.49,-74.5 403.49,-55.25 573.24,-55.25 573.24,-74.5"/>
<text text-anchor="middle" x="488.37" y="-61" font-family="Helvetica,sans-Serif" font-size="10.00">src/modules/PercussionDetection.h</text>
</a>
</g>
</g>
<!-- Node2&#45;&gt;Node10 -->
<g id="edge28_Node000002_Node000010" class="edge">
<title>Node2&#45;&gt;Node10</title>
<g id="a_edge28_Node000002_Node000010"><a xlink:title=" ">
<path fill="none" stroke="#63b8ff" d="M647.41,-228.82C579.25,-223.84 477.7,-203.63 440.37,-129.75 429.54,-108.33 455.27,-86.69 473.09,-74.91"/>
<polygon fill="#63b8ff" stroke="#63b8ff" points="647.18,-232.31 657.38,-229.45 647.62,-225.33 647.18,-232.31"/>
</a>
</g>
</g>
<!-- Node11 -->
<g id="Node000011" class="node">
<title>Node11</title>
<g id="a_Node000011"><a xlink:href="_salient_freqs_8h.html" target="_top" xlink:title=" ">
<polygon fill="white" stroke="#666666" points="347.62,-74.5 213.12,-74.5 213.12,-55.25 347.62,-55.25 347.62,-74.5"/>
<text text-anchor="middle" x="280.37" y="-61" font-family="Helvetica,sans-Serif" font-size="10.00">src/modules/SalientFreqs.h</text>
</a>
</g>
</g>
<!-- Node2&#45;&gt;Node11 -->
<g id="edge29_Node000002_Node000011" class="edge">
<title>Node2&#45;&gt;Node11</title>
<g id="a_edge29_Node000002_Node000011"><a xlink:title=" ">
<path fill="none" stroke="#63b8ff" d="M647.8,-226.81C527.18,-220.02 278.22,-197.86 232.37,-129.75 218.81,-109.61 246.22,-87.16 264.92,-74.96"/>
<polygon fill="#63b8ff" stroke="#63b8ff" points="647.37,-230.29 657.55,-227.34 647.75,-223.3 647.37,-230.29"/>
</a>
</g>
</g>
<!-- Node12 -->
<g id="Node000012" class="node">
<title>Node12</title>
<g id="a_Node000012"><a xlink:href="_formants_8h.html" target="_top" xlink:title=" ">
<polygon fill="white" stroke="#666666" points="1030.87,-129.75 909.87,-129.75 909.87,-110.5 1030.87,-110.5 1030.87,-129.75"/>
<text text-anchor="middle" x="970.37" y="-116.25" font-family="Helvetica,sans-Serif" font-size="10.00">src/modules/Formants.h</text>
</a>
</g>
</g>
<!-- Node2&#45;&gt;Node12 -->
<g id="edge17_Node000002_Node000012" class="edge">
<title>Node2&#45;&gt;Node12</title>
<g id="a_edge17_Node000002_Node000012"><a xlink:title=" ">
<path fill="none" stroke="#63b8ff" d="M778.91,-220.46C830.37,-212.36 897.07,-199.59 920.37,-185 942.33,-171.25 958.55,-144.27 965.94,-130.18"/>
<polygon fill="#63b8ff" stroke="#63b8ff" points="778.7,-216.95 769.35,-221.93 779.77,-223.87 778.7,-216.95"/>
</a>
</g>
</g>
<!-- Node13 -->
<g id="Node000013" class="node">
<title>Node13</title>
<g id="a_Node000013"><a xlink:href="_major_peaks_8h.html" target="_top" xlink:title=" ">
<polygon fill="white" stroke="#666666" points="911.12,-185 779.62,-185 779.62,-165.75 911.12,-165.75 911.12,-185"/>
<text text-anchor="middle" x="845.37" y="-171.5" font-family="Helvetica,sans-Serif" font-size="10.00">src/modules/MajorPeaks.h</text>
</a>
</g>
</g>
<!-- Node2&#45;&gt;Node13 -->
<g id="edge18_Node000002_Node000013" class="edge">
<title>Node2&#45;&gt;Node13</title>
<g id="a_edge18_Node000002_Node000013"><a xlink:title=" ">
<path fill="none" stroke="#63b8ff" d="M746.12,-216.41C770.01,-206.77 801.78,-193.96 822.87,-185.45"/>
<polygon fill="#63b8ff" stroke="#63b8ff" points="745.13,-213.04 737.16,-220.03 747.75,-219.53 745.13,-213.04"/>
</a>
</g>
</g>
<!-- Node14 -->
<g id="Node000014" class="node">
<title>Node14</title>
<g id="a_Node000014"><a xlink:href="_max_amplitude_8h.html" target="_top" xlink:title=" ">
<polygon fill="white" stroke="#666666" points="851.99,-74.5 710.74,-74.5 710.74,-55.25 851.99,-55.25 851.99,-74.5"/>
<text text-anchor="middle" x="781.37" y="-61" font-family="Helvetica,sans-Serif" font-size="10.00">src/modules/MaxAmplitude.h</text>
</a>
</g>
</g>
<!-- Node2&#45;&gt;Node14 -->
<g id="edge21_Node000002_Node000014" class="edge">
<title>Node2&#45;&gt;Node14</title>
<g id="a_edge21_Node000002_Node000014"><a xlink:title=" ">
<path fill="none" stroke="#63b8ff" d="M727.08,-211.94C738,-198.46 754.11,-179.87 770.37,-165.75 792.15,-146.84 810.76,-155.18 824.37,-129.75 835.41,-109.12 811.26,-86.85 794.87,-74.82"/>
<polygon fill="#63b8ff" stroke="#63b8ff" points="724.53,-209.52 721.06,-219.53 730.01,-213.87 724.53,-209.52"/>
</a>
</g>
</g>
<!-- Node15 -->
<g id="Node000015" class="node">
<title>Node15</title>
<g id="a_Node000015"><a xlink:href="_mean_amplitude_8h.html" target="_top" xlink:title=" ">
<polygon fill="white" stroke="#666666" points="814.99,-129.75 667.74,-129.75 667.74,-110.5 814.99,-110.5 814.99,-129.75"/>
<text text-anchor="middle" x="741.37" y="-116.25" font-family="Helvetica,sans-Serif" font-size="10.00">src/modules/MeanAmplitude.h</text>
</a>
</g>
</g>
<!-- Node2&#45;&gt;Node15 -->
<g id="edge23_Node000002_Node000015" class="edge">
<title>Node2&#45;&gt;Node15</title>
<g id="a_edge23_Node000002_Node000015"><a xlink:title=" ">
<path fill="none" stroke="#63b8ff" d="M718.53,-209.6C724.65,-185.9 734.57,-147.47 739.04,-130.13"/>
<polygon fill="#63b8ff" stroke="#63b8ff" points="715.15,-208.72 716.04,-219.28 721.92,-210.47 715.15,-208.72"/>
</a>
</g>
</g>
<!-- Node16 -->
<g id="Node000016" class="node">
<title>Node16</title>
<g id="a_Node000016"><a xlink:href="_noisiness_8h.html" target="_top" xlink:title=" ">
<polygon fill="white" stroke="#666666" points="572.99,-129.75 449.74,-129.75 449.74,-110.5 572.99,-110.5 572.99,-129.75"/>
<text text-anchor="middle" x="511.37" y="-116.25" font-family="Helvetica,sans-Serif" font-size="10.00">src/modules/Noisiness.h</text>
</a>
</g>
</g>
<!-- Node2&#45;&gt;Node16 -->
<g id="edge25_Node000002_Node000016" class="edge">
<title>Node2&#45;&gt;Node16</title>
<g id="a_edge25_Node000002_Node000016"><a xlink:title=" ">
<path fill="none" stroke="#63b8ff" d="M647.66,-220.43C602.69,-212.88 548.26,-200.86 531.37,-185 515.78,-170.36 512.27,-143.77 511.52,-129.97"/>
<polygon fill="#63b8ff" stroke="#63b8ff" points="646.94,-223.86 657.37,-222.01 648.06,-216.95 646.94,-223.86"/>
</a>
</g>
</g>
<!-- Node17 -->
<g id="Node000017" class="node">
<title>Node17</title>
<g id="a_Node000017"><a xlink:href="_total_amplitude_8h.html" target="_top" xlink:title=" ">
<polygon fill="white" stroke="#666666" points="684.87,-185 539.87,-185 539.87,-165.75 684.87,-165.75 684.87,-185"/>
<text text-anchor="middle" x="612.37" y="-171.5" font-family="Helvetica,sans-Serif" font-size="10.00">src/modules/TotalAmplitude.h</text>
</a>
</g>
</g>
<!-- Node2&#45;&gt;Node17 -->
<g id="edge30_Node000002_Node000017" class="edge">
<title>Node2&#45;&gt;Node17</title>
<g id="a_edge30_Node000002_Node000017"><a xlink:title=" ">
<path fill="none" stroke="#63b8ff" d="M686.06,-215.23C668.07,-205.74 645.06,-193.61 629.58,-185.45"/>
<polygon fill="#63b8ff" stroke="#63b8ff" points="684.42,-218.32 694.89,-219.89 687.68,-212.13 684.42,-218.32"/>
</a>
</g>
</g>
<!-- Node18 -->
<g id="Node000018" class="node">
<title>Node18</title>
<g id="a_Node000018"><a xlink:href="_vocal_detection_8h.html" target="_top" xlink:title=" ">
<polygon fill="white" stroke="#666666" points="1113.24,-185 967.49,-185 967.49,-165.75 1113.24,-165.75 1113.24,-185"/>
<text text-anchor="middle" x="1040.37" y="-171.5" font-family="Helvetica,sans-Serif" font-size="10.00">src/modules/VocalDetection.h</text>
</a>
</g>
</g>
<!-- Node2&#45;&gt;Node18 -->
<g id="edge35_Node000002_Node000018" class="edge">
<title>Node2&#45;&gt;Node18</title>
<g id="a_edge35_Node000002_Node000018"><a xlink:title=" ">
<path fill="none" stroke="#63b8ff" d="M779.02,-218.93C839.26,-209.12 927.56,-194.75 984.5,-185.47"/>
<polygon fill="#63b8ff" stroke="#63b8ff" points="778.53,-215.47 769.23,-220.53 779.66,-222.38 778.53,-215.47"/>
</a>
</g>
</g>
<!-- Node5&#45;&gt;Node4 -->
<g id="edge5_Node000005_Node000004" class="edge">
<title>Node5&#45;&gt;Node4</title>
<g id="a_edge5_Node000005_Node000004"><a xlink:title=" ">
<path fill="none" stroke="#63b8ff" d="M144.62,-155.33C158.24,-124.85 185.76,-67.31 204.37,-55.25 271.14,-11.98 512.42,-9.12 613.9,-9.91"/>
<polygon fill="#63b8ff" stroke="#63b8ff" points="141.57,-153.59 140.74,-164.15 147.97,-156.41 141.57,-153.59"/>
</a>
</g>
</g>
<!-- Node6 -->
<g id="Node000006" class="node">
<title>Node6</title>
<g id="a_Node000006"><a xlink:href="_module_group_8cpp.html" target="_top" xlink:title=" ">
<polygon fill="white" stroke="#666666" points="147.49,-129.75 39.24,-129.75 39.24,-110.5 147.49,-110.5 147.49,-129.75"/>
<text text-anchor="middle" x="93.37" y="-116.25" font-family="Helvetica,sans-Serif" font-size="10.00">src/ModuleGroup.cpp</text>
</a>
</g>
</g>
<!-- Node5&#45;&gt;Node6 -->
<g id="edge6_Node000005_Node000006" class="edge">
<title>Node5&#45;&gt;Node6</title>
<g id="a_edge6_Node000005_Node000006"><a xlink:title=" ">
<path fill="none" stroke="#63b8ff" d="M122.11,-156.72C114.91,-147.81 106.48,-137.37 100.62,-130.11"/>
<polygon fill="#63b8ff" stroke="#63b8ff" points="119.31,-158.82 128.32,-164.4 124.76,-154.43 119.31,-158.82"/>
</a>
</g>
</g>
<!-- Node7&#45;&gt;Node4 -->
<g id="edge8_Node000007_Node000004" class="edge">
<title>Node7&#45;&gt;Node4</title>
<g id="a_edge8_Node000007_Node000004"><a xlink:title=" ">
<path fill="none" stroke="#63b8ff" d="M1238.93,-55.49C1238.07,-55.41 1237.22,-55.33 1236.37,-55.25 1038.54,-36.81 802.05,-20.23 704.67,-13.64"/>
<polygon fill="#63b8ff" stroke="#63b8ff" points="1238.49,-58.96 1248.78,-56.46 1239.17,-52 1238.49,-58.96"/>
</a>
</g>
</g>
<!-- Node8&#45;&gt;Node4 -->
<g id="edge10_Node000008_Node000004" class="edge">
<title>Node8&#45;&gt;Node4</title>
<g id="a_edge10_Node000008_Node000004"><a xlink:title=" ">
<path fill="none" stroke="#63b8ff" d="M1386.9,-55.08C1122.09,-30.35 817.9,-16.85 704.73,-12.34"/>
<polygon fill="#63b8ff" stroke="#63b8ff" points="1386.5,-58.56 1396.78,-56.01 1387.15,-51.59 1386.5,-58.56"/>
</a>
</g>
</g>
<!-- Node9&#45;&gt;Node4 -->
<g id="edge12_Node000009_Node000004" class="edge">
<title>Node9&#45;&gt;Node4</title>
<g id="a_edge12_Node000009_Node000004"><a xlink:title=" ">
<path fill="none" stroke="#63b8ff" d="M332.71,-102.1C347.12,-87.25 370.05,-66.39 394.37,-55.25 466.47,-22.21 559.67,-13.37 614.15,-11.16"/>
<polygon fill="#63b8ff" stroke="#63b8ff" points="330.22,-99.63 325.94,-109.32 335.33,-104.42 330.22,-99.63"/>
</a>
</g>
</g>
<!-- Node9&#45;&gt;Node10 -->
<g id="edge13_Node000009_Node000010" class="edge">
<title>Node9&#45;&gt;Node10</title>
<g id="a_edge13_Node000009_Node000010"><a xlink:title=" ">
<path fill="none" stroke="#63b8ff" d="M357.31,-106.69C388.51,-96.97 431.16,-83.69 459.22,-74.95"/>
<polygon fill="#63b8ff" stroke="#63b8ff" points="356.33,-103.33 347.82,-109.64 358.41,-110.01 356.33,-103.33"/>
</a>
</g>
</g>
<!-- Node9&#45;&gt;Node11 -->
<g id="edge15_Node000009_Node000011" class="edge">
<title>Node9&#45;&gt;Node11</title>
<g id="a_edge15_Node000009_Node000011"><a xlink:title=" ">
<path fill="none" stroke="#63b8ff" d="M304.71,-100.9C298.6,-92.11 291.55,-81.96 286.61,-74.86"/>
<polygon fill="#63b8ff" stroke="#63b8ff" points="301.81,-102.87 310.39,-109.09 307.56,-98.88 301.81,-102.87"/>
</a>
</g>
</g>
<!-- Node10&#45;&gt;Node4 -->
<g id="edge14_Node000010_Node000004" class="edge">
<title>Node10&#45;&gt;Node4</title>
<g id="a_edge14_Node000010_Node000004"><a xlink:title=" ">
<path fill="none" stroke="#63b8ff" d="M528.31,-51.44C559.51,-41.72 602.16,-28.44 630.22,-19.7"/>
<polygon fill="#63b8ff" stroke="#63b8ff" points="527.33,-48.08 518.82,-54.39 529.41,-54.76 527.33,-48.08"/>
</a>
</g>
</g>
<!-- Node11&#45;&gt;Node4 -->
<g id="edge16_Node000011_Node000004" class="edge">
<title>Node11&#45;&gt;Node4</title>
<g id="a_edge16_Node000011_Node000004"><a xlink:title=" ">
<path fill="none" stroke="#63b8ff" d="M356.16,-53.23C433.25,-42.39 550.18,-25.97 613.96,-17.01"/>
<polygon fill="#63b8ff" stroke="#63b8ff" points="356,-49.71 346.59,-54.57 356.98,-56.65 356,-49.71"/>
</a>
</g>
</g>
<!-- Node13&#45;&gt;Node4 -->
<g id="edge19_Node000013_Node000004" class="edge">
<title>Node13&#45;&gt;Node4</title>
<g id="a_edge19_Node000013_Node000004"><a xlink:title=" ">
<path fill="none" stroke="#63b8ff" d="M855.64,-155.5C868.02,-129.88 884.47,-84.02 861.37,-55.25 842.08,-31.24 757.98,-19.37 704.56,-14.15"/>
<polygon fill="#63b8ff" stroke="#63b8ff" points="852.69,-153.58 851.24,-164.07 858.92,-156.77 852.69,-153.58"/>
</a>
</g>
</g>
<!-- Node13&#45;&gt;Node12 -->
<g id="edge20_Node000013_Node000012" class="edge">
<title>Node13&#45;&gt;Node12</title>
<g id="a_edge20_Node000013_Node000012"><a xlink:title=" ">
<path fill="none" stroke="#63b8ff" d="M876.99,-160.9C899.55,-151.29 929.27,-138.63 949.06,-130.2"/>
<polygon fill="#63b8ff" stroke="#63b8ff" points="875.79,-157.61 867.96,-164.75 878.54,-164.05 875.79,-157.61"/>
</a>
</g>
</g>
<!-- Node14&#45;&gt;Node4 -->
<g id="edge22_Node000014_Node000004" class="edge">
<title>Node14&#45;&gt;Node4</title>
<g id="a_edge22_Node000014_Node000004"><a xlink:title=" ">
<path fill="none" stroke="#63b8ff" d="M750.2,-50.27C728.22,-40.68 699.39,-28.09 680.16,-19.7"/>
<polygon fill="#63b8ff" stroke="#63b8ff" points="748.72,-53.44 759.28,-54.24 751.52,-47.03 748.72,-53.44"/>
</a>
</g>
</g>
<!-- Node15&#45;&gt;Node4 -->
<g id="edge24_Node000015_Node000004" class="edge">
<title>Node15&#45;&gt;Node4</title>
<g id="a_edge24_Node000015_Node000004"><a xlink:title=" ">
<path fill="none" stroke="#63b8ff" d="M724.93,-102.01C717.45,-93.91 708.65,-83.96 701.37,-74.5 686.95,-55.78 672.28,-32.21 664.67,-19.59"/>
<polygon fill="#63b8ff" stroke="#63b8ff" points="722.24,-104.25 731.64,-109.14 727.34,-99.46 722.24,-104.25"/>
</a>
</g>
</g>
<!-- Node16&#45;&gt;Node4 -->
<g id="edge26_Node000016_Node000004" class="edge">
<title>Node16&#45;&gt;Node4</title>
<g id="a_edge26_Node000016_Node000004"><a xlink:title=" ">
<path fill="none" stroke="#63b8ff" d="M536.76,-104.28C550.54,-95.94 567.71,-85.12 582.37,-74.5 607.69,-56.16 635.47,-32.03 649.73,-19.32"/>
<polygon fill="#63b8ff" stroke="#63b8ff" points="535.08,-101.21 528.28,-109.34 538.66,-107.22 535.08,-101.21"/>
</a>
</g>
</g>
<!-- Node16&#45;&gt;Node10 -->
<g id="edge27_Node000016_Node000010" class="edge">
<title>Node16&#45;&gt;Node10</title>
<g id="a_edge27_Node000016_Node000010"><a xlink:title=" ">
<path fill="none" stroke="#63b8ff" d="M503.12,-100.04C499.42,-91.46 495.22,-81.73 492.25,-74.86"/>
<polygon fill="#63b8ff" stroke="#63b8ff" points="499.79,-101.15 506.97,-108.94 506.22,-98.37 499.79,-101.15"/>
</a>
</g>
</g>
<!-- Node17&#45;&gt;Node4 -->
<g id="edge31_Node000017_Node000004" class="edge">
<title>Node17&#45;&gt;Node4</title>
<g id="a_edge31_Node000017_Node000004"><a xlink:title=" ">
<path fill="none" stroke="#63b8ff" d="M618.02,-154.69C628.26,-119 649.51,-44.96 656.83,-19.47"/>
<polygon fill="#63b8ff" stroke="#63b8ff" points="614.71,-153.54 615.31,-164.12 621.43,-155.47 614.71,-153.54"/>
</a>
</g>
</g>
<!-- Node17&#45;&gt;Node10 -->
<g id="edge34_Node000017_Node000010" class="edge">
<title>Node17&#45;&gt;Node10</title>
<g id="a_edge34_Node000017_Node000010"><a xlink:title=" ">
<path fill="none" stroke="#63b8ff" d="M607,-154.63C602.39,-140.81 594.54,-122.72 582.37,-110.5 565.29,-93.35 540.33,-81.92 520.43,-74.93"/>
<polygon fill="#63b8ff" stroke="#63b8ff" points="603.58,-155.39 609.8,-163.96 610.28,-153.38 603.58,-155.39"/>
</a>
</g>
</g>
<!-- Node17&#45;&gt;Node15 -->
<g id="edge32_Node000017_Node000015" class="edge">
<title>Node17&#45;&gt;Node15</title>
<g id="a_edge32_Node000017_Node000015"><a xlink:title=" ">
<path fill="none" stroke="#63b8ff" d="M644.69,-161.03C668,-151.41 698.86,-138.67 719.38,-130.2"/>
<polygon fill="#63b8ff" stroke="#63b8ff" points="643.56,-157.71 635.65,-164.76 646.23,-164.18 643.56,-157.71"/>
</a>
</g>
</g>
<!-- Node17&#45;&gt;Node16 -->
<g id="edge33_Node000017_Node000016" class="edge">
<title>Node17&#45;&gt;Node16</title>
<g id="a_edge33_Node000017_Node000016"><a xlink:title=" ">
<path fill="none" stroke="#63b8ff" d="M585.06,-159.98C567.07,-150.49 544.06,-138.36 528.58,-130.2"/>
<polygon fill="#63b8ff" stroke="#63b8ff" points="583.42,-163.07 593.89,-164.64 586.68,-156.88 583.42,-163.07"/>
</a>
</g>
</g>
<!-- Node18&#45;&gt;Node4 -->
<g id="edge36_Node000018_Node000004" class="edge">
<title>Node18&#45;&gt;Node4</title>
<g id="a_edge36_Node000018_Node000004"><a xlink:title=" ">
<path fill="none" stroke="#63b8ff" d="M1045.95,-154.51C1048.54,-140.89 1049.33,-123.08 1040.37,-110.5 1001.33,-55.72 797.25,-26.15 704.87,-15.39"/>
<polygon fill="#63b8ff" stroke="#63b8ff" points="1042.58,-153.56 1043.66,-164.1 1049.39,-155.19 1042.58,-153.56"/>
</a>
</g>
</g>
</g>
</svg>
