<?xml version="1.0" encoding="UTF-8" standalone="no"?>
<!DOCTYPE svg PUBLIC "-//W3C//DTD SVG 1.1//EN"
 "http://www.w3.org/Graphics/SVG/1.1/DTD/svg11.dtd">
<!-- Generated by graphviz version 12.2.0 (20241103.1931)
 -->
<!-- Title: src/Spectrogram.cpp Pages: 1 -->
<svg width="170pt" height="138pt"
 viewBox="0.00 0.00 169.88 137.75" xmlns="http://www.w3.org/2000/svg" xmlns:xlink="http://www.w3.org/1999/xlink">
<g id="graph0" class="graph" transform="scale(1 1) rotate(0) translate(4 133.75)">
<title>src/Spectrogram.cpp</title>
<!-- Node1 -->
<g id="Node000001" class="node">
<title>Node1</title>
<g id="a_Node000001"><a xlink:title=" ">
<polygon fill="#999999" stroke="#666666" points="147.62,-129.75 41.62,-129.75 41.62,-110.5 147.62,-110.5 147.62,-129.75"/>
<text text-anchor="middle" x="94.62" y="-116.25" font-family="Helvetica,sans-Serif" font-size="10.00">src/Spectrogram.cpp</text>
</a>
</g>
</g>
<!-- Node2 -->
<g id="Node000002" class="node">
<title>Node2</title>
<g id="a_Node000002"><a xlink:href="_spectrogram_8h.html" target="_top" xlink:title=" ">
<polygon fill="white" stroke="#666666" points="93.12,-74.5 14.12,-74.5 14.12,-55.25 93.12,-55.25 93.12,-74.5"/>
<text text-anchor="middle" x="53.62" y="-61" font-family="Helvetica,sans-Serif" font-size="10.00">Spectrogram.h</text>
</a>
</g>
</g>
<!-- Node1&#45;&gt;Node2 -->
<g id="edge1_Node000001_Node000002" class="edge">
<title>Node1&#45;&gt;Node2</title>
<g id="a_edge1_Node000001_Node000002"><a xlink:title=" ">
<path fill="none" stroke="#63b8ff" d="M87.85,-110.33C82.31,-103.13 74.28,-92.71 67.4,-83.76"/>
<polygon fill="#63b8ff" stroke="#63b8ff" points="70.34,-81.85 61.47,-76.06 64.79,-86.12 70.34,-81.85"/>
</a>
</g>
</g>
<!-- Node5 -->
<g id="Node000005" class="node">
<title>Node5</title>
<g id="a_Node000005"><a xlink:href="_config_8h.html" target="_top" xlink:title=" ">
<polygon fill="white" stroke="#666666" points="161.88,-74.5 111.38,-74.5 111.38,-55.25 161.88,-55.25 161.88,-74.5"/>
<text text-anchor="middle" x="136.62" y="-61" font-family="Helvetica,sans-Serif" font-size="10.00">Config.h</text>
</a>
</g>
</g>
<!-- Node1&#45;&gt;Node5 -->
<g id="edge4_Node000001_Node000005" class="edge">
<title>Node1&#45;&gt;Node5</title>
<g id="a_edge4_Node000001_Node000005"><a xlink:title=" ">
<path fill="none" stroke="#63b8ff" d="M101.56,-110.33C107.24,-103.13 115.46,-92.71 122.52,-83.76"/>
<polygon fill="#63b8ff" stroke="#63b8ff" points="125.16,-86.07 128.6,-76.05 119.66,-81.73 125.16,-86.07"/>
</a>
</g>
</g>
<!-- Node3 -->
<g id="Node000003" class="node">
<title>Node3</title>
<g id="a_Node000003"><a xlink:title=" ">
<polygon fill="#e0e0e0" stroke="#999999" points="45.25,-19.25 0,-19.25 0,0 45.25,0 45.25,-19.25"/>
<text text-anchor="middle" x="22.62" y="-5.75" font-family="Helvetica,sans-Serif" font-size="10.00">cstdint</text>
</a>
</g>
</g>
<!-- Node2&#45;&gt;Node3 -->
<g id="edge2_Node000002_Node000003" class="edge">
<title>Node2&#45;&gt;Node3</title>
<g id="a_edge2_Node000002_Node000003"><a xlink:title=" ">
<path fill="none" stroke="#63b8ff" d="M48.51,-55.08C44.45,-48.11 38.63,-38.12 33.54,-29.37"/>
<polygon fill="#63b8ff" stroke="#63b8ff" points="36.67,-27.8 28.62,-20.92 30.62,-31.32 36.67,-27.8"/>
</a>
</g>
</g>
<!-- Node4 -->
<g id="Node000004" class="node">
<title>Node4</title>
<g id="a_Node000004"><a xlink:title=" ">
<polygon fill="#e0e0e0" stroke="#999999" points="108.25,-19.25 63,-19.25 63,0 108.25,0 108.25,-19.25"/>
<text text-anchor="middle" x="85.62" y="-5.75" font-family="Helvetica,sans-Serif" font-size="10.00">cstring</text>
</a>
</g>
</g>
<!-- Node2&#45;&gt;Node4 -->
<g id="edge3_Node000002_Node000004" class="edge">
<title>Node2&#45;&gt;Node4</title>
<g id="a_edge3_Node000002_Node000004"><a xlink:title=" ">
<path fill="none" stroke="#63b8ff" d="M58.91,-55.08C63.1,-48.11 69.1,-38.12 74.36,-29.37"/>
<polygon fill="#63b8ff" stroke="#63b8ff" points="77.3,-31.28 79.45,-20.91 71.3,-27.68 77.3,-31.28"/>
</a>
</g>
</g>
</g>
</svg>
