<?xml version="1.0" encoding="UTF-8" standalone="no"?>
<!DOCTYPE svg PUBLIC "-//W3C//DTD SVG 1.1//EN"
 "http://www.w3.org/Graphics/SVG/1.1/DTD/svg11.dtd">
<!-- Generated by graphviz version 12.2.0 (20241103.1931)
 -->
<!-- Title: src/modules/TotalAmplitude.h Pages: 1 -->
<svg width="399pt" height="193pt"
 viewBox="0.00 0.00 399.15 193.00" xmlns="http://www.w3.org/2000/svg" xmlns:xlink="http://www.w3.org/1999/xlink">
<g id="graph0" class="graph" transform="scale(1 1) rotate(0) translate(4 189)">
<title>src/modules/TotalAmplitude.h</title>
<!-- Node1 -->
<g id="Node000001" class="node">
<title>Node1</title>
<g id="a_Node000001"><a xlink:title=" ">
<polygon fill="#999999" stroke="#666666" points="220.77,-185 75.77,-185 75.77,-165.75 220.77,-165.75 220.77,-185"/>
<text text-anchor="middle" x="148.27" y="-171.5" font-family="Helvetica,sans-Serif" font-size="10.00">src/modules/TotalAmplitude.h</text>
</a>
</g>
</g>
<!-- Node2 -->
<g id="Node000002" class="node">
<title>Node2</title>
<g id="a_Node000002"><a xlink:href="_audio_prism_8h.html" target="_top" xlink:title=" ">
<polygon fill="white" stroke="#666666" points="187.4,-19.25 97.15,-19.25 97.15,0 187.4,0 187.4,-19.25"/>
<text text-anchor="middle" x="142.27" y="-5.75" font-family="Helvetica,sans-Serif" font-size="10.00">src/AudioPrism.h</text>
</a>
</g>
</g>
<!-- Node1&#45;&gt;Node2 -->
<g id="edge1_Node000001_Node000002" class="edge">
<title>Node1&#45;&gt;Node2</title>
<g id="a_edge1_Node000001_Node000002"><a xlink:title=" ">
<path fill="none" stroke="#63b8ff" d="M109.86,-161.49C57.71,-141.89 -25.35,-101.89 8.27,-55.25 28.28,-27.5 66.27,-16.75 96.71,-12.7"/>
<polygon fill="#63b8ff" stroke="#63b8ff" points="108.45,-164.7 119.04,-164.84 110.85,-158.13 108.45,-164.7"/>
</a>
</g>
</g>
<!-- Node3 -->
<g id="Node000003" class="node">
<title>Node3</title>
<g id="a_Node000003"><a xlink:href="_mean_amplitude_8h.html" target="_top" xlink:title=" ">
<polygon fill="white" stroke="#666666" points="164.9,-74.5 17.65,-74.5 17.65,-55.25 164.9,-55.25 164.9,-74.5"/>
<text text-anchor="middle" x="91.27" y="-61" font-family="Helvetica,sans-Serif" font-size="10.00">src/modules/MeanAmplitude.h</text>
</a>
</g>
</g>
<!-- Node1&#45;&gt;Node3 -->
<g id="edge2_Node000001_Node000003" class="edge">
<title>Node1&#45;&gt;Node3</title>
<g id="a_edge2_Node000001_Node000003"><a xlink:title=" ">
<path fill="none" stroke="#63b8ff" d="M136.9,-155.58C132.23,-147.68 126.86,-138.35 122.27,-129.75 111.95,-110.39 101,-87.07 95.28,-74.66"/>
<polygon fill="#63b8ff" stroke="#63b8ff" points="133.78,-157.18 141.91,-163.96 139.78,-153.58 133.78,-157.18"/>
</a>
</g>
</g>
<!-- Node4 -->
<g id="Node000004" class="node">
<title>Node4</title>
<g id="a_Node000004"><a xlink:href="_noisiness_8h.html" target="_top" xlink:title=" ">
<polygon fill="white" stroke="#666666" points="254.9,-129.75 131.65,-129.75 131.65,-110.5 254.9,-110.5 254.9,-129.75"/>
<text text-anchor="middle" x="193.27" y="-116.25" font-family="Helvetica,sans-Serif" font-size="10.00">src/modules/Noisiness.h</text>
</a>
</g>
</g>
<!-- Node1&#45;&gt;Node4 -->
<g id="edge4_Node000001_Node000004" class="edge">
<title>Node1&#45;&gt;Node4</title>
<g id="a_edge4_Node000001_Node000004"><a xlink:title=" ">
<path fill="none" stroke="#63b8ff" d="M162.95,-157.01C170.54,-148.03 179.48,-137.45 185.68,-130.11"/>
<polygon fill="#63b8ff" stroke="#63b8ff" points="160.46,-154.53 156.68,-164.43 165.81,-159.05 160.46,-154.53"/>
</a>
</g>
</g>
<!-- Node5 -->
<g id="Node000005" class="node">
<title>Node5</title>
<g id="a_Node000005"><a xlink:href="_percussion_detection_8h.html" target="_top" xlink:title=" ">
<polygon fill="white" stroke="#666666" points="391.15,-74.5 221.4,-74.5 221.4,-55.25 391.15,-55.25 391.15,-74.5"/>
<text text-anchor="middle" x="306.27" y="-61" font-family="Helvetica,sans-Serif" font-size="10.00">src/modules/PercussionDetection.h</text>
</a>
</g>
</g>
<!-- Node1&#45;&gt;Node5 -->
<g id="edge8_Node000001_Node000005" class="edge">
<title>Node1&#45;&gt;Node5</title>
<g id="a_edge8_Node000001_Node000005"><a xlink:title=" ">
<path fill="none" stroke="#63b8ff" d="M200.23,-161.97C221.65,-155.03 245.74,-144.68 264.27,-129.75 283.29,-114.43 296.67,-88.13 302.69,-74.55"/>
<polygon fill="#63b8ff" stroke="#63b8ff" points="199.31,-158.59 190.76,-164.86 201.35,-165.29 199.31,-158.59"/>
</a>
</g>
</g>
<!-- Node3&#45;&gt;Node2 -->
<g id="edge3_Node000003_Node000002" class="edge">
<title>Node3&#45;&gt;Node2</title>
<g id="a_edge3_Node000003_Node000002"><a xlink:title=" ">
<path fill="none" stroke="#63b8ff" d="M107.64,-46.79C116.29,-37.75 126.57,-27.02 133.67,-19.61"/>
<polygon fill="#63b8ff" stroke="#63b8ff" points="105.13,-44.35 100.74,-53.99 110.19,-49.19 105.13,-44.35"/>
</a>
</g>
</g>
<!-- Node4&#45;&gt;Node2 -->
<g id="edge5_Node000004_Node000002" class="edge">
<title>Node4&#45;&gt;Node2</title>
<g id="a_edge5_Node000004_Node000002"><a xlink:title=" ">
<path fill="none" stroke="#63b8ff" d="M189.15,-99.17C186.05,-86.24 181.14,-69.26 174.27,-55.25 167.73,-41.89 157.28,-28.25 150.11,-19.62"/>
<polygon fill="#63b8ff" stroke="#63b8ff" points="185.67,-99.62 191.25,-108.62 192.5,-98.1 185.67,-99.62"/>
</a>
</g>
</g>
<!-- Node4&#45;&gt;Node5 -->
<g id="edge6_Node000004_Node000005" class="edge">
<title>Node4&#45;&gt;Node5</title>
<g id="a_edge6_Node000004_Node000005"><a xlink:title=" ">
<path fill="none" stroke="#63b8ff" d="M222.7,-105.26C242.99,-95.7 269.37,-83.27 287.01,-74.95"/>
<polygon fill="#63b8ff" stroke="#63b8ff" points="221.37,-102.02 213.81,-109.45 224.35,-108.35 221.37,-102.02"/>
</a>
</g>
</g>
<!-- Node5&#45;&gt;Node2 -->
<g id="edge7_Node000005_Node000002" class="edge">
<title>Node5&#45;&gt;Node2</title>
<g id="a_edge7_Node000005_Node000002"><a xlink:title=" ">
<path fill="none" stroke="#63b8ff" d="M267.58,-51.31C237.68,-41.6 197.02,-28.4 170.23,-19.7"/>
<polygon fill="#63b8ff" stroke="#63b8ff" points="266.42,-54.62 277.01,-54.37 268.58,-47.96 266.42,-54.62"/>
</a>
</g>
</g>
</g>
</svg>
