<?xml version="1.0" encoding="UTF-8" standalone="no"?>
<!DOCTYPE svg PUBLIC "-//W3C//DTD SVG 1.1//EN"
 "http://www.w3.org/Graphics/SVG/1.1/DTD/svg11.dtd">
<!-- Generated by graphviz version 12.2.0 (20241103.1931)
 -->
<!-- Title: src/modules/VocalDetection.h Pages: 1 -->
<svg width="631pt" height="193pt"
 viewBox="0.00 0.00 630.75 193.00" xmlns="http://www.w3.org/2000/svg" xmlns:xlink="http://www.w3.org/1999/xlink">
<g id="graph0" class="graph" transform="scale(1 1) rotate(0) translate(4 189)">
<title>src/modules/VocalDetection.h</title>
<!-- Node1 -->
<g id="Node000001" class="node">
<title>Node1</title>
<g id="a_Node000001"><a xlink:title=" ">
<polygon fill="#999999" stroke="#666666" points="501.12,-185 355.38,-185 355.38,-165.75 501.12,-165.75 501.12,-185"/>
<text text-anchor="middle" x="428.25" y="-171.5" font-family="Helvetica,sans-Serif" font-size="10.00">src/modules/VocalDetection.h</text>
</a>
</g>
</g>
<!-- Node2 -->
<g id="Node000002" class="node">
<title>Node2</title>
<g id="a_Node000002"><a xlink:href="_analysis_module_8h.html" target="_top" xlink:title=" ">
<polygon fill="white" stroke="#666666" points="241.88,-129.75 142.62,-129.75 142.62,-110.5 241.88,-110.5 241.88,-129.75"/>
<text text-anchor="middle" x="192.25" y="-116.25" font-family="Helvetica,sans-Serif" font-size="10.00">../AnalysisModule.h</text>
</a>
</g>
</g>
<!-- Node1&#45;&gt;Node2 -->
<g id="edge1_Node000001_Node000002" class="edge">
<title>Node1&#45;&gt;Node2</title>
<g id="a_edge1_Node000001_Node000002"><a xlink:title=" ">
<path fill="none" stroke="#63b8ff" d="M387.95,-165.28C348.07,-156.28 286.87,-142.48 243.54,-132.7"/>
<polygon fill="#63b8ff" stroke="#63b8ff" points="244.39,-129.3 233.86,-130.51 242.85,-136.13 244.39,-129.3"/>
</a>
</g>
</g>
<!-- Node8 -->
<g id="Node000008" class="node">
<title>Node8</title>
<g id="a_Node000008"><a xlink:title=" ">
<polygon fill="#e0e0e0" stroke="#999999" points="397.88,-19.25 352.62,-19.25 352.62,0 397.88,0 397.88,-19.25"/>
<text text-anchor="middle" x="375.25" y="-5.75" font-family="Helvetica,sans-Serif" font-size="10.00">cstdint</text>
</a>
</g>
</g>
<!-- Node1&#45;&gt;Node8 -->
<g id="edge12_Node000001_Node000008" class="edge">
<title>Node1&#45;&gt;Node8</title>
<g id="a_edge12_Node000001_Node000008"><a xlink:title=" ">
<path fill="none" stroke="#63b8ff" d="M419.17,-165.33C411.26,-156.89 400.15,-143.54 394.25,-129.75 380.27,-97.11 376.48,-55.46 375.5,-31.05"/>
<polygon fill="#63b8ff" stroke="#63b8ff" points="379.01,-31.12 375.25,-21.22 372.01,-31.3 379.01,-31.12"/>
</a>
</g>
</g>
<!-- Node10 -->
<g id="Node000010" class="node">
<title>Node10</title>
<g id="a_Node000010"><a xlink:href="_cross_correlation_8h.html" target="_top" xlink:title=" ">
<polygon fill="white" stroke="#666666" points="561.5,-129.75 403,-129.75 403,-110.5 561.5,-110.5 561.5,-129.75"/>
<text text-anchor="middle" x="482.25" y="-116.25" font-family="Helvetica,sans-Serif" font-size="10.00">./experimental/CrossCorrelation.h</text>
</a>
</g>
</g>
<!-- Node1&#45;&gt;Node10 -->
<g id="edge9_Node000001_Node000010" class="edge">
<title>Node1&#45;&gt;Node10</title>
<g id="a_edge9_Node000001_Node000010"><a xlink:title=" ">
<path fill="none" stroke="#63b8ff" d="M437.17,-165.58C444.7,-158.15 455.72,-147.29 464.98,-138.16"/>
<polygon fill="#63b8ff" stroke="#63b8ff" points="467.4,-140.69 472.06,-131.17 462.48,-135.7 467.4,-140.69"/>
</a>
</g>
</g>
<!-- Node11 -->
<g id="Node000011" class="node">
<title>Node11</title>
<g id="a_Node000011"><a xlink:title=" ">
<polygon fill="#e0e0e0" stroke="#999999" points="622.75,-129.75 579.75,-129.75 579.75,-110.5 622.75,-110.5 622.75,-129.75"/>
<text text-anchor="middle" x="601.25" y="-116.25" font-family="Helvetica,sans-Serif" font-size="10.00">cmath</text>
</a>
</g>
</g>
<!-- Node1&#45;&gt;Node11 -->
<g id="edge11_Node000001_Node000011" class="edge">
<title>Node1&#45;&gt;Node11</title>
<g id="a_edge11_Node000001_Node000011"><a xlink:title=" ">
<path fill="none" stroke="#63b8ff" d="M457.6,-165.34C488.33,-155.88 536.5,-141.06 568.46,-131.22"/>
<polygon fill="#63b8ff" stroke="#63b8ff" points="569.47,-134.57 578,-128.28 567.41,-127.88 569.47,-134.57"/>
</a>
</g>
</g>
<!-- Node3 -->
<g id="Node000003" class="node">
<title>Node3</title>
<g id="a_Node000003"><a xlink:title=" ">
<polygon fill="#e0e0e0" stroke="#999999" points="56.5,-74.5 0,-74.5 0,-55.25 56.5,-55.25 56.5,-74.5"/>
<text text-anchor="middle" x="28.25" y="-61" font-family="Helvetica,sans-Serif" font-size="10.00">Arduino.h</text>
</a>
</g>
</g>
<!-- Node2&#45;&gt;Node3 -->
<g id="edge2_Node000002_Node000003" class="edge">
<title>Node2&#45;&gt;Node3</title>
<g id="a_edge2_Node000002_Node000003"><a xlink:title=" ">
<path fill="none" stroke="#63b8ff" d="M164.43,-110.09C137.69,-101.41 97.03,-88.21 67.1,-78.49"/>
<polygon fill="#63b8ff" stroke="#63b8ff" points="68.24,-75.18 57.65,-75.42 66.08,-81.84 68.24,-75.18"/>
</a>
</g>
</g>
<!-- Node4 -->
<g id="Node000004" class="node">
<title>Node4</title>
<g id="a_Node000004"><a xlink:title=" ">
<polygon fill="#e0e0e0" stroke="#999999" points="119.88,-74.5 74.62,-74.5 74.62,-55.25 119.88,-55.25 119.88,-74.5"/>
<text text-anchor="middle" x="97.25" y="-61" font-family="Helvetica,sans-Serif" font-size="10.00">math.h</text>
</a>
</g>
</g>
<!-- Node2&#45;&gt;Node4 -->
<g id="edge3_Node000002_Node000004" class="edge">
<title>Node2&#45;&gt;Node4</title>
<g id="a_edge3_Node000002_Node000004"><a xlink:title=" ">
<path fill="none" stroke="#63b8ff" d="M176.13,-110.09C161.67,-101.98 140.17,-89.93 123.27,-80.46"/>
<polygon fill="#63b8ff" stroke="#63b8ff" points="125.2,-77.53 114.76,-75.69 121.78,-83.64 125.2,-77.53"/>
</a>
</g>
</g>
<!-- Node5 -->
<g id="Node000005" class="node">
<title>Node5</title>
<g id="a_Node000005"><a xlink:title=" ">
<polygon fill="#e0e0e0" stroke="#999999" points="180.75,-74.5 137.75,-74.5 137.75,-55.25 180.75,-55.25 180.75,-74.5"/>
<text text-anchor="middle" x="159.25" y="-61" font-family="Helvetica,sans-Serif" font-size="10.00">vector</text>
</a>
</g>
</g>
<!-- Node2&#45;&gt;Node5 -->
<g id="edge4_Node000002_Node000005" class="edge">
<title>Node2&#45;&gt;Node5</title>
<g id="a_edge4_Node000002_Node000005"><a xlink:title=" ">
<path fill="none" stroke="#63b8ff" d="M186.8,-110.33C182.48,-103.36 176.29,-93.37 170.87,-84.62"/>
<polygon fill="#63b8ff" stroke="#63b8ff" points="173.86,-82.8 165.61,-76.15 167.91,-86.49 173.86,-82.8"/>
</a>
</g>
</g>
<!-- Node6 -->
<g id="Node000006" class="node">
<title>Node6</title>
<g id="a_Node000006"><a xlink:href="_config_8h.html" target="_top" xlink:title=" ">
<polygon fill="white" stroke="#666666" points="249.5,-74.5 199,-74.5 199,-55.25 249.5,-55.25 249.5,-74.5"/>
<text text-anchor="middle" x="224.25" y="-61" font-family="Helvetica,sans-Serif" font-size="10.00">Config.h</text>
</a>
</g>
</g>
<!-- Node2&#45;&gt;Node6 -->
<g id="edge5_Node000002_Node000006" class="edge">
<title>Node2&#45;&gt;Node6</title>
<g id="a_edge5_Node000002_Node000006"><a xlink:title=" ">
<path fill="none" stroke="#63b8ff" d="M197.53,-110.33C201.72,-103.36 207.73,-93.37 212.98,-84.62"/>
<polygon fill="#63b8ff" stroke="#63b8ff" points="215.92,-86.53 218.07,-76.16 209.92,-82.93 215.92,-86.53"/>
</a>
</g>
</g>
<!-- Node7 -->
<g id="Node000007" class="node">
<title>Node7</title>
<g id="a_Node000007"><a xlink:href="_spectrogram_8h.html" target="_top" xlink:title=" ">
<polygon fill="white" stroke="#666666" points="346.75,-74.5 267.75,-74.5 267.75,-55.25 346.75,-55.25 346.75,-74.5"/>
<text text-anchor="middle" x="307.25" y="-61" font-family="Helvetica,sans-Serif" font-size="10.00">Spectrogram.h</text>
</a>
</g>
</g>
<!-- Node2&#45;&gt;Node7 -->
<g id="edge6_Node000002_Node000007" class="edge">
<title>Node2&#45;&gt;Node7</title>
<g id="a_edge6_Node000002_Node000007"><a xlink:title=" ">
<path fill="none" stroke="#63b8ff" d="M211.76,-110.09C229.77,-101.75 256.77,-89.25 277.48,-79.66"/>
<polygon fill="#63b8ff" stroke="#63b8ff" points="278.67,-82.97 286.27,-75.59 275.73,-76.61 278.67,-82.97"/>
</a>
</g>
</g>
<!-- Node7&#45;&gt;Node8 -->
<g id="edge7_Node000007_Node000008" class="edge">
<title>Node7&#45;&gt;Node8</title>
<g id="a_edge7_Node000007_Node000008"><a xlink:title=" ">
<path fill="none" stroke="#63b8ff" d="M318.79,-54.84C328.71,-47.07 343.26,-35.67 355.11,-26.4"/>
<polygon fill="#63b8ff" stroke="#63b8ff" points="356.98,-29.38 362.69,-20.46 352.66,-23.87 356.98,-29.38"/>
</a>
</g>
</g>
<!-- Node9 -->
<g id="Node000009" class="node">
<title>Node9</title>
<g id="a_Node000009"><a xlink:title=" ">
<polygon fill="#e0e0e0" stroke="#999999" points="329.88,-19.25 284.62,-19.25 284.62,0 329.88,0 329.88,-19.25"/>
<text text-anchor="middle" x="307.25" y="-5.75" font-family="Helvetica,sans-Serif" font-size="10.00">cstring</text>
</a>
</g>
</g>
<!-- Node7&#45;&gt;Node9 -->
<g id="edge8_Node000007_Node000009" class="edge">
<title>Node7&#45;&gt;Node9</title>
<g id="a_edge8_Node000007_Node000009"><a xlink:title=" ">
<path fill="none" stroke="#63b8ff" d="M307.25,-55.08C307.25,-48.57 307.25,-39.42 307.25,-31.12"/>
<polygon fill="#63b8ff" stroke="#63b8ff" points="310.75,-31.12 307.25,-21.12 303.75,-31.12 310.75,-31.12"/>
</a>
</g>
</g>
<!-- Node10&#45;&gt;Node8 -->
<g id="edge10_Node000010_Node000008" class="edge">
<title>Node10&#45;&gt;Node8</title>
<g id="a_edge10_Node000010_Node000008"><a xlink:title=" ">
<path fill="none" stroke="#63b8ff" d="M473.49,-110.25C455.7,-92.21 415.06,-51 392.02,-27.63"/>
<polygon fill="#63b8ff" stroke="#63b8ff" points="394.7,-25.37 385.19,-20.7 389.72,-30.28 394.7,-25.37"/>
</a>
</g>
</g>
</g>
</svg>
