<?xml version="1.0" encoding="UTF-8" standalone="no"?>
<!DOCTYPE svg PUBLIC "-//W3C//DTD SVG 1.1//EN"
 "http://www.w3.org/Graphics/SVG/1.1/DTD/svg11.dtd">
<!-- Generated by graphviz version 12.2.0 (20241103.1931)
 -->
<!-- Title: AnalysisModule Pages: 1 -->
<svg width="400pt" height="471pt"
 viewBox="0.00 0.00 400.25 471.25" xmlns="http://www.w3.org/2000/svg" xmlns:xlink="http://www.w3.org/1999/xlink">
<g id="graph0" class="graph" transform="scale(1 1) rotate(0) translate(4 467.25)">
<title>AnalysisModule</title>
<!-- Node1 -->
<g id="Node000001" class="node">
<title>Node1</title>
<g id="a_Node000001"><a xlink:title=" ">
<polygon fill="#999999" stroke="#666666" points="84.25,-148.25 0,-148.25 0,-129 84.25,-129 84.25,-148.25"/>
<text text-anchor="middle" x="42.12" y="-134.75" font-family="Helvetica,sans-Serif" font-size="10.00">AnalysisModule</text>
</a>
</g>
</g>
<!-- Node2 -->
<g id="Node000002" class="node">
<title>Node2</title>
<g id="a_Node000002"><a xlink:href="class_module_interface.html" target="_top" xlink:title=" ">
<polygon fill="white" stroke="#666666" points="248.38,-426.25 122.12,-426.25 122.12,-407 248.38,-407 248.38,-426.25"/>
<text text-anchor="middle" x="185.25" y="-412.75" font-family="Helvetica,sans-Serif" font-size="10.00">ModuleInterface&lt; float * &gt;</text>
</a>
</g>
</g>
<!-- Node1&#45;&gt;Node2 -->
<g id="edge1_Node000001_Node000002" class="edge">
<title>Node1&#45;&gt;Node2</title>
<g id="a_edge1_Node000001_Node000002"><a xlink:title=" ">
<path fill="none" stroke="#63b8ff" d="M51.66,-158.85C65.27,-190.72 93.13,-254.36 120.25,-306.62 139.89,-344.47 166.29,-387.78 178.1,-406.8"/>
<polygon fill="#63b8ff" stroke="#63b8ff" points="55.04,-157.86 47.91,-150.03 48.6,-160.6 55.04,-157.86"/>
</a>
</g>
</g>
<!-- Node5 -->
<g id="Node000005" class="node">
<title>Node5</title>
<g id="a_Node000005"><a xlink:href="class_module_interface.html" target="_top" xlink:title=" ">
<polygon fill="white" stroke="#666666" points="245.38,-297.25 125.12,-297.25 125.12,-278 245.38,-278 245.38,-297.25"/>
<text text-anchor="middle" x="185.25" y="-283.75" font-family="Helvetica,sans-Serif" font-size="10.00">ModuleInterface&lt; float &gt;</text>
</a>
</g>
</g>
<!-- Node1&#45;&gt;Node5 -->
<g id="edge4_Node000001_Node000005" class="edge">
<title>Node1&#45;&gt;Node5</title>
<g id="a_edge4_Node000001_Node000005"><a xlink:title=" ">
<path fill="none" stroke="#63b8ff" d="M60.3,-156.76C90.31,-188.44 151.32,-252.85 174.77,-277.62"/>
<polygon fill="#63b8ff" stroke="#63b8ff" points="62.84,-154.35 53.43,-149.5 57.76,-159.17 62.84,-154.35"/>
</a>
</g>
</g>
<!-- Node11 -->
<g id="Node000011" class="node">
<title>Node11</title>
<g id="a_Node000011"><a xlink:href="class_module_interface.html" target="_top" xlink:title=" ">
<polygon fill="white" stroke="#666666" points="245.75,-204.25 124.75,-204.25 124.75,-185 245.75,-185 245.75,-204.25"/>
<text text-anchor="middle" x="185.25" y="-190.75" font-family="Helvetica,sans-Serif" font-size="10.00">ModuleInterface&lt; char &gt;</text>
</a>
</g>
</g>
<!-- Node1&#45;&gt;Node11 -->
<g id="edge10_Node000001_Node000011" class="edge">
<title>Node1&#45;&gt;Node11</title>
<g id="a_edge10_Node000001_Node000011"><a xlink:title=" ">
<path fill="none" stroke="#63b8ff" d="M70.88,-153.85C85.32,-161.36 103.43,-170.18 120.25,-176.62 127.79,-179.52 136,-182.17 143.94,-184.51"/>
<polygon fill="#63b8ff" stroke="#63b8ff" points="72.9,-150.95 62.43,-149.36 69.62,-157.14 72.9,-150.95"/>
</a>
</g>
</g>
<!-- Node13 -->
<g id="Node000013" class="node">
<title>Node13</title>
<g id="a_Node000013"><a xlink:href="class_module_interface.html" target="_top" xlink:title=" ">
<polygon fill="white" stroke="#666666" points="250.25,-167.25 120.25,-167.25 120.25,-148 250.25,-148 250.25,-167.25"/>
<text text-anchor="middle" x="185.25" y="-153.75" font-family="Helvetica,sans-Serif" font-size="10.00">ModuleInterface&lt; float ** &gt;</text>
</a>
</g>
</g>
<!-- Node1&#45;&gt;Node13 -->
<g id="edge12_Node000001_Node000013" class="edge">
<title>Node1&#45;&gt;Node13</title>
<g id="a_edge12_Node000001_Node000013"><a xlink:title=" ">
<path fill="none" stroke="#63b8ff" d="M95.91,-145.73C103.75,-146.79 111.89,-147.88 119.93,-148.97"/>
<polygon fill="#63b8ff" stroke="#63b8ff" points="96.58,-142.29 86.2,-144.42 95.65,-149.23 96.58,-142.29"/>
</a>
</g>
</g>
<!-- Node15 -->
<g id="Node000015" class="node">
<title>Node15</title>
<g id="a_Node000015"><a xlink:href="class_module_interface.html" target="_top" xlink:title=" ">
<polygon fill="white" stroke="#666666" points="245.38,-130.25 125.12,-130.25 125.12,-111 245.38,-111 245.38,-130.25"/>
<text text-anchor="middle" x="185.25" y="-116.75" font-family="Helvetica,sans-Serif" font-size="10.00">ModuleInterface&lt; bool &gt;</text>
</a>
</g>
</g>
<!-- Node1&#45;&gt;Node15 -->
<g id="edge14_Node000001_Node000015" class="edge">
<title>Node1&#45;&gt;Node15</title>
<g id="a_edge14_Node000001_Node000015"><a xlink:title=" ">
<path fill="none" stroke="#63b8ff" d="M95.88,-131.9C105.27,-130.7 115.11,-129.44 124.67,-128.22"/>
<polygon fill="#63b8ff" stroke="#63b8ff" points="95.68,-128.39 86.21,-133.13 96.57,-135.34 95.68,-128.39"/>
</a>
</g>
</g>
<!-- Node17 -->
<g id="Node000017" class="node">
<title>Node17</title>
<g id="a_Node000017"><a xlink:href="class_module_interface.html" target="_top" xlink:title=" ">
<polygon fill="white" stroke="#666666" points="244.62,-93.25 125.88,-93.25 125.88,-74 244.62,-74 244.62,-93.25"/>
<text text-anchor="middle" x="185.25" y="-79.75" font-family="Helvetica,sans-Serif" font-size="10.00">ModuleInterface&lt; int * &gt;</text>
</a>
</g>
</g>
<!-- Node1&#45;&gt;Node17 -->
<g id="edge16_Node000001_Node000017" class="edge">
<title>Node1&#45;&gt;Node17</title>
<g id="a_edge16_Node000001_Node000017"><a xlink:title=" ">
<path fill="none" stroke="#63b8ff" d="M71.93,-123.34C86.21,-116.15 103.86,-107.81 120.25,-101.62 127.92,-98.73 136.25,-96.06 144.3,-93.71"/>
<polygon fill="#63b8ff" stroke="#63b8ff" points="70.39,-120.2 63.09,-127.88 73.58,-126.43 70.39,-120.2"/>
</a>
</g>
</g>
<!-- Node19 -->
<g id="Node000019" class="node">
<title>Node19</title>
<g id="a_Node000019"><a xlink:href="class_module_interface.html" target="_top" xlink:title=" ">
<polygon fill="white" stroke="#666666" points="241.62,-56.25 128.88,-56.25 128.88,-37 241.62,-37 241.62,-56.25"/>
<text text-anchor="middle" x="185.25" y="-42.75" font-family="Helvetica,sans-Serif" font-size="10.00">ModuleInterface&lt; int &gt;</text>
</a>
</g>
</g>
<!-- Node1&#45;&gt;Node19 -->
<g id="edge18_Node000001_Node000019" class="edge">
<title>Node1&#45;&gt;Node19</title>
<g id="a_edge18_Node000001_Node000019"><a xlink:title=" ">
<path fill="none" stroke="#63b8ff" d="M57.71,-120.18C71.95,-103.36 95.11,-79 120.25,-64.62 125.76,-61.47 131.86,-58.85 138.03,-56.66"/>
<polygon fill="#63b8ff" stroke="#63b8ff" points="55.36,-117.52 51.72,-127.47 60.77,-121.97 55.36,-117.52"/>
</a>
</g>
</g>
<!-- Node21 -->
<g id="Node000021" class="node">
<title>Node21</title>
<g id="a_Node000021"><a xlink:href="class_module_interface.html" target="_top" xlink:title=" ">
<polygon fill="white" stroke="#666666" points="239.38,-19.25 131.12,-19.25 131.12,0 239.38,0 239.38,-19.25"/>
<text text-anchor="middle" x="185.25" y="-5.75" font-family="Helvetica,sans-Serif" font-size="10.00">ModuleInterface&lt; T &gt;</text>
</a>
</g>
</g>
<!-- Node1&#45;&gt;Node21 -->
<g id="edge20_Node000001_Node000021" class="edge">
<title>Node1&#45;&gt;Node21</title>
<g id="a_edge20_Node000001_Node000021"><a xlink:title=" ">
<path fill="none" stroke="#63b8ff" d="M51.85,-118.43C63.7,-93.38 87.27,-51.12 120.25,-27.62 124.67,-24.48 129.62,-21.88 134.77,-19.74"/>
<polygon fill="#63b8ff" stroke="#63b8ff" points="48.81,-116.66 47.86,-127.22 55.18,-119.56 48.81,-116.66"/>
</a>
</g>
</g>
<!-- Node3 -->
<g id="Node000003" class="node">
<title>Node3</title>
<g id="a_Node000003"><a xlink:href="class_bread_slicer.html" target="_top" xlink:title=" ">
<polygon fill="white" stroke="#666666" points="372.38,-463.25 306.12,-463.25 306.12,-444 372.38,-444 372.38,-463.25"/>
<text text-anchor="middle" x="339.25" y="-449.75" font-family="Helvetica,sans-Serif" font-size="10.00">BreadSlicer</text>
</a>
</g>
</g>
<!-- Node2&#45;&gt;Node3 -->
<g id="edge2_Node000002_Node000003" class="edge">
<title>Node2&#45;&gt;Node3</title>
<g id="a_edge2_Node000002_Node000003"><a xlink:title=" ">
<path fill="none" stroke="#63b8ff" d="M238.8,-429.42C261.11,-434.85 286.42,-441.01 305.92,-445.76"/>
<polygon fill="#63b8ff" stroke="#63b8ff" points="239.8,-426.06 229.26,-427.09 238.14,-432.86 239.8,-426.06"/>
</a>
</g>
</g>
<!-- Node4 -->
<g id="Node000004" class="node">
<title>Node4</title>
<g id="a_Node000004"><a xlink:href="class_delta_amplitudes.html" target="_top" xlink:title=" ">
<polygon fill="white" stroke="#666666" points="382.88,-426.25 295.62,-426.25 295.62,-407 382.88,-407 382.88,-426.25"/>
<text text-anchor="middle" x="339.25" y="-412.75" font-family="Helvetica,sans-Serif" font-size="10.00">DeltaAmplitudes</text>
</a>
</g>
</g>
<!-- Node2&#45;&gt;Node4 -->
<g id="edge3_Node000002_Node000004" class="edge">
<title>Node2&#45;&gt;Node4</title>
<g id="a_edge3_Node000002_Node000004"><a xlink:title=" ">
<path fill="none" stroke="#63b8ff" d="M259.68,-416.62C271.9,-416.62 284.22,-416.62 295.35,-416.62"/>
<polygon fill="#63b8ff" stroke="#63b8ff" points="260.03,-413.13 250.03,-416.63 260.03,-420.13 260.03,-413.13"/>
</a>
</g>
</g>
<!-- Node6 -->
<g id="Node000006" class="node">
<title>Node6</title>
<g id="a_Node000006"><a xlink:href="class_centroid.html" target="_top" xlink:title=" ">
<polygon fill="white" stroke="#666666" points="365.25,-389.25 313.25,-389.25 313.25,-370 365.25,-370 365.25,-389.25"/>
<text text-anchor="middle" x="339.25" y="-375.75" font-family="Helvetica,sans-Serif" font-size="10.00">Centroid</text>
</a>
</g>
</g>
<!-- Node5&#45;&gt;Node6 -->
<g id="edge5_Node000005_Node000006" class="edge">
<title>Node5&#45;&gt;Node6</title>
<g id="a_edge5_Node000005_Node000006"><a xlink:title=" ">
<path fill="none" stroke="#63b8ff" d="M205.99,-305.09C225.33,-321.48 256.2,-345.79 286.25,-361.62 294.62,-366.04 304.29,-369.73 313.01,-372.6"/>
<polygon fill="#63b8ff" stroke="#63b8ff" points="208.48,-302.61 198.62,-298.74 203.91,-307.92 208.48,-302.61"/>
</a>
</g>
</g>
<!-- Node7 -->
<g id="Node000007" class="node">
<title>Node7</title>
<g id="a_Node000007"><a xlink:href="class_max_amplitude.html" target="_top" xlink:title=" ">
<polygon fill="white" stroke="#666666" points="378,-352.25 300.5,-352.25 300.5,-333 378,-333 378,-352.25"/>
<text text-anchor="middle" x="339.25" y="-338.75" font-family="Helvetica,sans-Serif" font-size="10.00">MaxAmplitude</text>
</a>
</g>
</g>
<!-- Node5&#45;&gt;Node7 -->
<g id="edge6_Node000005_Node000007" class="edge">
<title>Node5&#45;&gt;Node7</title>
<g id="a_edge6_Node000005_Node000007"><a xlink:title=" ">
<path fill="none" stroke="#63b8ff" d="M223.71,-301.7C242.45,-308.69 265.51,-317.2 286.25,-324.62 293.54,-327.23 301.42,-329.99 308.79,-332.55"/>
<polygon fill="#63b8ff" stroke="#63b8ff" points="224.94,-298.42 214.35,-298.2 222.49,-304.98 224.94,-298.42"/>
</a>
</g>
</g>
<!-- Node8 -->
<g id="Node000008" class="node">
<title>Node8</title>
<g id="a_Node000008"><a xlink:href="class_mean_amplitude.html" target="_top" xlink:title=" ">
<polygon fill="white" stroke="#666666" points="381,-315.25 297.5,-315.25 297.5,-296 381,-296 381,-315.25"/>
<text text-anchor="middle" x="339.25" y="-301.75" font-family="Helvetica,sans-Serif" font-size="10.00">MeanAmplitude</text>
</a>
</g>
</g>
<!-- Node5&#45;&gt;Node8 -->
<g id="edge7_Node000005_Node000008" class="edge">
<title>Node5&#45;&gt;Node8</title>
<g id="a_edge7_Node000005_Node000008"><a xlink:title=" ">
<path fill="none" stroke="#63b8ff" d="M256.55,-295.95C270.51,-297.6 284.72,-299.29 297.29,-300.77"/>
<polygon fill="#63b8ff" stroke="#63b8ff" points="257.3,-292.51 246.96,-294.81 256.47,-299.47 257.3,-292.51"/>
</a>
</g>
</g>
<!-- Node9 -->
<g id="Node000009" class="node">
<title>Node9</title>
<g id="a_Node000009"><a xlink:href="class_noisiness.html" target="_top" xlink:title=" ">
<polygon fill="white" stroke="#666666" points="369,-278.25 309.5,-278.25 309.5,-259 369,-259 369,-278.25"/>
<text text-anchor="middle" x="339.25" y="-264.75" font-family="Helvetica,sans-Serif" font-size="10.00">Noisiness</text>
</a>
</g>
</g>
<!-- Node5&#45;&gt;Node9 -->
<g id="edge8_Node000005_Node000009" class="edge">
<title>Node5&#45;&gt;Node9</title>
<g id="a_edge8_Node000005_Node000009"><a xlink:title=" ">
<path fill="none" stroke="#63b8ff" d="M256.85,-278.8C275.3,-276.49 294.18,-274.13 309.1,-272.27"/>
<polygon fill="#63b8ff" stroke="#63b8ff" points="256.44,-275.32 246.95,-280.04 257.31,-282.27 256.44,-275.32"/>
</a>
</g>
</g>
<!-- Node10 -->
<g id="Node000010" class="node">
<title>Node10</title>
<g id="a_Node000010"><a xlink:href="class_total_amplitude.html" target="_top" xlink:title=" ">
<polygon fill="white" stroke="#666666" points="379.88,-241.25 298.62,-241.25 298.62,-222 379.88,-222 379.88,-241.25"/>
<text text-anchor="middle" x="339.25" y="-227.75" font-family="Helvetica,sans-Serif" font-size="10.00">TotalAmplitude</text>
</a>
</g>
</g>
<!-- Node5&#45;&gt;Node10 -->
<g id="edge9_Node000005_Node000010" class="edge">
<title>Node5&#45;&gt;Node10</title>
<g id="a_edge9_Node000005_Node000010"><a xlink:title=" ">
<path fill="none" stroke="#63b8ff" d="M222.63,-273.5C241.55,-266.23 265.09,-257.31 286.25,-249.62 293.52,-246.98 301.4,-244.21 308.77,-241.66"/>
<polygon fill="#63b8ff" stroke="#63b8ff" points="221.56,-270.16 213.48,-277.03 224.07,-276.7 221.56,-270.16"/>
</a>
</g>
</g>
<!-- Node12 -->
<g id="Node000012" class="node">
<title>Node12</title>
<g id="a_Node000012"><a xlink:href="class_formants.html" target="_top" xlink:title=" ">
<polygon fill="white" stroke="#666666" points="367.88,-204.25 310.62,-204.25 310.62,-185 367.88,-185 367.88,-204.25"/>
<text text-anchor="middle" x="339.25" y="-190.75" font-family="Helvetica,sans-Serif" font-size="10.00">Formants</text>
</a>
</g>
</g>
<!-- Node11&#45;&gt;Node12 -->
<g id="edge11_Node000011_Node000012" class="edge">
<title>Node11&#45;&gt;Node12</title>
<g id="a_edge11_Node000011_Node000012"><a xlink:title=" ">
<path fill="none" stroke="#63b8ff" d="M257.25,-194.62C276.15,-194.62 295.47,-194.62 310.5,-194.62"/>
<polygon fill="#63b8ff" stroke="#63b8ff" points="257.4,-191.13 247.4,-194.63 257.4,-198.13 257.4,-191.13"/>
</a>
</g>
</g>
<!-- Node14 -->
<g id="Node000014" class="node">
<title>Node14</title>
<g id="a_Node000014"><a xlink:href="class_major_peaks.html" target="_top" xlink:title=" ">
<polygon fill="white" stroke="#666666" points="373.12,-167.25 305.38,-167.25 305.38,-148 373.12,-148 373.12,-167.25"/>
<text text-anchor="middle" x="339.25" y="-153.75" font-family="Helvetica,sans-Serif" font-size="10.00">MajorPeaks</text>
</a>
</g>
</g>
<!-- Node13&#45;&gt;Node14 -->
<g id="edge13_Node000013_Node000014" class="edge">
<title>Node13&#45;&gt;Node14</title>
<g id="a_edge13_Node000013_Node000014"><a xlink:title=" ">
<path fill="none" stroke="#63b8ff" d="M261.79,-157.62C277.05,-157.62 292.34,-157.62 305.19,-157.62"/>
<polygon fill="#63b8ff" stroke="#63b8ff" points="262.23,-154.13 252.23,-157.63 262.23,-161.13 262.23,-154.13"/>
</a>
</g>
</g>
<!-- Node16 -->
<g id="Node000016" class="node">
<title>Node16</title>
<g id="a_Node000016"><a xlink:href="class_percussion_detection.html" target="_top" xlink:title=" ">
<polygon fill="white" stroke="#666666" points="392.25,-130.25 286.25,-130.25 286.25,-111 392.25,-111 392.25,-130.25"/>
<text text-anchor="middle" x="339.25" y="-116.75" font-family="Helvetica,sans-Serif" font-size="10.00">PercussionDetection</text>
</a>
</g>
</g>
<!-- Node15&#45;&gt;Node16 -->
<g id="edge15_Node000015_Node000016" class="edge">
<title>Node15&#45;&gt;Node16</title>
<g id="a_edge15_Node000015_Node000016"><a xlink:title=" ">
<path fill="none" stroke="#63b8ff" d="M256.84,-120.62C266.62,-120.62 276.52,-120.62 285.89,-120.62"/>
<polygon fill="#63b8ff" stroke="#63b8ff" points="256.97,-117.13 246.97,-120.63 256.97,-124.13 256.97,-117.13"/>
</a>
</g>
</g>
<!-- Node18 -->
<g id="Node000018" class="node">
<title>Node18</title>
<g id="a_Node000018"><a xlink:href="class_salient_freqs.html" target="_top" xlink:title=" ">
<polygon fill="white" stroke="#666666" points="374.62,-93.25 303.88,-93.25 303.88,-74 374.62,-74 374.62,-93.25"/>
<text text-anchor="middle" x="339.25" y="-79.75" font-family="Helvetica,sans-Serif" font-size="10.00">SalientFreqs</text>
</a>
</g>
</g>
<!-- Node17&#45;&gt;Node18 -->
<g id="edge17_Node000017_Node000018" class="edge">
<title>Node17&#45;&gt;Node18</title>
<g id="a_edge17_Node000017_Node000018"><a xlink:title=" ">
<path fill="none" stroke="#63b8ff" d="M256.34,-83.62C272.83,-83.62 289.7,-83.62 303.81,-83.62"/>
<polygon fill="#63b8ff" stroke="#63b8ff" points="256.53,-80.13 246.53,-83.63 256.53,-87.13 256.53,-80.13"/>
</a>
</g>
</g>
<!-- Node20 -->
<g id="Node000020" class="node">
<title>Node20</title>
<g id="a_Node000020"><a xlink:href="class_vocal_detection.html" target="_top" xlink:title=" ">
<polygon fill="white" stroke="#666666" points="380.25,-56.25 298.25,-56.25 298.25,-37 380.25,-37 380.25,-56.25"/>
<text text-anchor="middle" x="339.25" y="-42.75" font-family="Helvetica,sans-Serif" font-size="10.00">VocalDetection</text>
</a>
</g>
</g>
<!-- Node19&#45;&gt;Node20 -->
<g id="edge19_Node000019_Node000020" class="edge">
<title>Node19&#45;&gt;Node20</title>
<g id="a_edge19_Node000019_Node000020"><a xlink:title=" ">
<path fill="none" stroke="#63b8ff" d="M253.41,-46.62C268.53,-46.62 284.12,-46.62 297.75,-46.62"/>
<polygon fill="#63b8ff" stroke="#63b8ff" points="253.5,-43.13 243.5,-46.63 253.5,-50.13 253.5,-43.13"/>
</a>
</g>
</g>
</g>
</svg>
