<?xml version="1.0" encoding="UTF-8" standalone="no"?>
<!DOCTYPE svg PUBLIC "-//W3C//DTD SVG 1.1//EN"
 "http://www.w3.org/Graphics/SVG/1.1/DTD/svg11.dtd">
<!-- Generated by graphviz version 12.2.0 (20241103.1931)
 -->
<!-- Title: Graphical Class Hierarchy Pages: 1 -->
<svg width="400pt" height="434pt"
 viewBox="0.00 0.00 400.25 434.25" xmlns="http://www.w3.org/2000/svg" xmlns:xlink="http://www.w3.org/1999/xlink">
<g id="graph0" class="graph" transform="scale(1 1) rotate(0) translate(4 430.25)">
<title>Graphical Class Hierarchy</title>
<!-- Node0 -->
<g id="Node000000" class="node">
<title>Node0</title>
<g id="a_Node000000"><a xlink:href="class_analysis_module.html" target="_top" xlink:title=" ">
<polygon fill="white" stroke="#666666" points="84.25,-130.25 0,-130.25 0,-111 84.25,-111 84.25,-130.25"/>
<text text-anchor="middle" x="42.12" y="-116.75" font-family="Helvetica,sans-Serif" font-size="10.00">AnalysisModule</text>
</a>
</g>
</g>
<!-- Node1 -->
<g id="Node000001" class="node">
<title>Node1</title>
<g id="a_Node000001"><a xlink:href="class_module_interface.html" target="_top" xlink:title=" ">
<polygon fill="white" stroke="#666666" points="248.38,-389.25 122.12,-389.25 122.12,-370 248.38,-370 248.38,-389.25"/>
<text text-anchor="middle" x="185.25" y="-375.75" font-family="Helvetica,sans-Serif" font-size="10.00">ModuleInterface&lt; float * &gt;</text>
</a>
</g>
</g>
<!-- Node0&#45;&gt;Node1 -->
<g id="edge1_Node000000_Node000001" class="edge">
<title>Node0&#45;&gt;Node1</title>
<g id="a_edge1_Node000000_Node000001"><a xlink:title=" ">
<path fill="none" stroke="#63b8ff" d="M53,-140.45C67.38,-169.16 95.12,-223.87 120.25,-269.62 140.78,-307 166.73,-350.54 178.26,-369.71"/>
<polygon fill="#63b8ff" stroke="#63b8ff" points="56.29,-139.21 48.69,-131.83 50.03,-142.34 56.29,-139.21"/>
</a>
</g>
</g>
<!-- Node4 -->
<g id="Node000004" class="node">
<title>Node4</title>
<g id="a_Node000004"><a xlink:href="class_module_interface.html" target="_top" xlink:title=" ">
<polygon fill="white" stroke="#666666" points="245.38,-260.25 125.12,-260.25 125.12,-241 245.38,-241 245.38,-260.25"/>
<text text-anchor="middle" x="185.25" y="-246.75" font-family="Helvetica,sans-Serif" font-size="10.00">ModuleInterface&lt; float &gt;</text>
</a>
</g>
</g>
<!-- Node0&#45;&gt;Node4 -->
<g id="edge4_Node000000_Node000004" class="edge">
<title>Node0&#45;&gt;Node4</title>
<g id="a_edge4_Node000000_Node000004"><a xlink:title=" ">
<path fill="none" stroke="#63b8ff" d="M62.11,-138.11C92.15,-165.79 149.7,-218.8 173.52,-240.74"/>
<polygon fill="#63b8ff" stroke="#63b8ff" points="64.57,-135.62 54.85,-131.42 59.83,-140.77 64.57,-135.62"/>
</a>
</g>
</g>
<!-- Node10 -->
<g id="Node000010" class="node">
<title>Node10</title>
<g id="a_Node000010"><a xlink:href="class_module_interface.html" target="_top" xlink:title=" ">
<polygon fill="white" stroke="#666666" points="245.75,-167.25 124.75,-167.25 124.75,-148 245.75,-148 245.75,-167.25"/>
<text text-anchor="middle" x="185.25" y="-153.75" font-family="Helvetica,sans-Serif" font-size="10.00">ModuleInterface&lt; char &gt;</text>
</a>
</g>
</g>
<!-- Node0&#45;&gt;Node10 -->
<g id="edge10_Node000000_Node000010" class="edge">
<title>Node0&#45;&gt;Node10</title>
<g id="a_edge10_Node000000_Node000010"><a xlink:title=" ">
<path fill="none" stroke="#63b8ff" d="M92.79,-133.65C110.17,-138.2 129.4,-143.25 145.73,-147.53"/>
<polygon fill="#63b8ff" stroke="#63b8ff" points="93.71,-130.27 83.15,-131.12 91.94,-137.04 93.71,-130.27"/>
</a>
</g>
</g>
<!-- Node12 -->
<g id="Node000012" class="node">
<title>Node12</title>
<g id="a_Node000012"><a xlink:href="class_module_interface.html" target="_top" xlink:title=" ">
<polygon fill="white" stroke="#666666" points="250.25,-130.25 120.25,-130.25 120.25,-111 250.25,-111 250.25,-130.25"/>
<text text-anchor="middle" x="185.25" y="-116.75" font-family="Helvetica,sans-Serif" font-size="10.00">ModuleInterface&lt; float ** &gt;</text>
</a>
</g>
</g>
<!-- Node0&#45;&gt;Node12 -->
<g id="edge12_Node000000_Node000012" class="edge">
<title>Node0&#45;&gt;Node12</title>
<g id="a_edge12_Node000000_Node000012"><a xlink:title=" ">
<path fill="none" stroke="#63b8ff" d="M96.18,-120.62C103.94,-120.62 111.99,-120.62 119.93,-120.62"/>
<polygon fill="#63b8ff" stroke="#63b8ff" points="96.22,-117.13 86.22,-120.63 96.22,-124.13 96.22,-117.13"/>
</a>
</g>
</g>
<!-- Node14 -->
<g id="Node000014" class="node">
<title>Node14</title>
<g id="a_Node000014"><a xlink:href="class_module_interface.html" target="_top" xlink:title=" ">
<polygon fill="white" stroke="#666666" points="245.38,-93.25 125.12,-93.25 125.12,-74 245.38,-74 245.38,-93.25"/>
<text text-anchor="middle" x="185.25" y="-79.75" font-family="Helvetica,sans-Serif" font-size="10.00">ModuleInterface&lt; bool &gt;</text>
</a>
</g>
</g>
<!-- Node0&#45;&gt;Node14 -->
<g id="edge14_Node000000_Node000014" class="edge">
<title>Node0&#45;&gt;Node14</title>
<g id="a_edge14_Node000000_Node000014"><a xlink:title=" ">
<path fill="none" stroke="#63b8ff" d="M92.79,-107.6C110.17,-103.05 129.4,-98 145.73,-93.72"/>
<polygon fill="#63b8ff" stroke="#63b8ff" points="91.94,-104.21 83.15,-110.13 93.71,-110.98 91.94,-104.21"/>
</a>
</g>
</g>
<!-- Node16 -->
<g id="Node000016" class="node">
<title>Node16</title>
<g id="a_Node000016"><a xlink:href="class_module_interface.html" target="_top" xlink:title=" ">
<polygon fill="white" stroke="#666666" points="244.62,-56.25 125.88,-56.25 125.88,-37 244.62,-37 244.62,-56.25"/>
<text text-anchor="middle" x="185.25" y="-42.75" font-family="Helvetica,sans-Serif" font-size="10.00">ModuleInterface&lt; int * &gt;</text>
</a>
</g>
</g>
<!-- Node0&#45;&gt;Node16 -->
<g id="edge16_Node000000_Node000016" class="edge">
<title>Node0&#45;&gt;Node16</title>
<g id="a_edge16_Node000000_Node000016"><a xlink:title=" ">
<path fill="none" stroke="#63b8ff" d="M63.09,-103.06C77.96,-90.77 99.24,-74.8 120.25,-64.62 126.59,-61.56 133.54,-58.93 140.45,-56.7"/>
<polygon fill="#63b8ff" stroke="#63b8ff" points="60.83,-100.39 55.47,-109.52 65.36,-105.72 60.83,-100.39"/>
</a>
</g>
</g>
<!-- Node18 -->
<g id="Node000018" class="node">
<title>Node18</title>
<g id="a_Node000018"><a xlink:href="class_module_interface.html" target="_top" xlink:title=" ">
<polygon fill="white" stroke="#666666" points="239.38,-19.25 131.12,-19.25 131.12,0 239.38,0 239.38,-19.25"/>
<text text-anchor="middle" x="185.25" y="-5.75" font-family="Helvetica,sans-Serif" font-size="10.00">ModuleInterface&lt; T &gt;</text>
</a>
</g>
</g>
<!-- Node0&#45;&gt;Node18 -->
<g id="edge18_Node000000_Node000018" class="edge">
<title>Node0&#45;&gt;Node18</title>
<g id="a_edge18_Node000000_Node000018"><a xlink:title=" ">
<path fill="none" stroke="#63b8ff" d="M54.41,-100.92C67.55,-79.71 91.21,-46.5 120.25,-27.62 125.09,-24.48 130.48,-21.88 136.02,-19.72"/>
<polygon fill="#63b8ff" stroke="#63b8ff" points="51.58,-98.83 49.45,-109.21 57.58,-102.42 51.58,-98.83"/>
</a>
</g>
</g>
<!-- Node2 -->
<g id="Node000002" class="node">
<title>Node2</title>
<g id="a_Node000002"><a xlink:href="class_bread_slicer.html" target="_top" xlink:title=" ">
<polygon fill="white" stroke="#666666" points="372.38,-426.25 306.12,-426.25 306.12,-407 372.38,-407 372.38,-426.25"/>
<text text-anchor="middle" x="339.25" y="-412.75" font-family="Helvetica,sans-Serif" font-size="10.00">BreadSlicer</text>
</a>
</g>
</g>
<!-- Node1&#45;&gt;Node2 -->
<g id="edge2_Node000001_Node000002" class="edge">
<title>Node1&#45;&gt;Node2</title>
<g id="a_edge2_Node000001_Node000002"><a xlink:title=" ">
<path fill="none" stroke="#63b8ff" d="M238.8,-392.42C261.11,-397.85 286.42,-404.01 305.92,-408.76"/>
<polygon fill="#63b8ff" stroke="#63b8ff" points="239.8,-389.06 229.26,-390.09 238.14,-395.86 239.8,-389.06"/>
</a>
</g>
</g>
<!-- Node3 -->
<g id="Node000003" class="node">
<title>Node3</title>
<g id="a_Node000003"><a xlink:href="class_delta_amplitudes.html" target="_top" xlink:title=" ">
<polygon fill="white" stroke="#666666" points="382.88,-389.25 295.62,-389.25 295.62,-370 382.88,-370 382.88,-389.25"/>
<text text-anchor="middle" x="339.25" y="-375.75" font-family="Helvetica,sans-Serif" font-size="10.00">DeltaAmplitudes</text>
</a>
</g>
</g>
<!-- Node1&#45;&gt;Node3 -->
<g id="edge3_Node000001_Node000003" class="edge">
<title>Node1&#45;&gt;Node3</title>
<g id="a_edge3_Node000001_Node000003"><a xlink:title=" ">
<path fill="none" stroke="#63b8ff" d="M259.68,-379.62C271.9,-379.62 284.22,-379.62 295.35,-379.62"/>
<polygon fill="#63b8ff" stroke="#63b8ff" points="260.03,-376.13 250.03,-379.63 260.03,-383.13 260.03,-376.13"/>
</a>
</g>
</g>
<!-- Node5 -->
<g id="Node000005" class="node">
<title>Node5</title>
<g id="a_Node000005"><a xlink:href="class_centroid.html" target="_top" xlink:title=" ">
<polygon fill="white" stroke="#666666" points="365.25,-352.25 313.25,-352.25 313.25,-333 365.25,-333 365.25,-352.25"/>
<text text-anchor="middle" x="339.25" y="-338.75" font-family="Helvetica,sans-Serif" font-size="10.00">Centroid</text>
</a>
</g>
</g>
<!-- Node4&#45;&gt;Node5 -->
<g id="edge5_Node000004_Node000005" class="edge">
<title>Node4&#45;&gt;Node5</title>
<g id="a_edge5_Node000004_Node000005"><a xlink:title=" ">
<path fill="none" stroke="#63b8ff" d="M205.99,-268.09C225.33,-284.48 256.2,-308.79 286.25,-324.62 294.62,-329.04 304.29,-332.73 313.01,-335.6"/>
<polygon fill="#63b8ff" stroke="#63b8ff" points="208.48,-265.61 198.62,-261.74 203.91,-270.92 208.48,-265.61"/>
</a>
</g>
</g>
<!-- Node6 -->
<g id="Node000006" class="node">
<title>Node6</title>
<g id="a_Node000006"><a xlink:href="class_max_amplitude.html" target="_top" xlink:title=" ">
<polygon fill="white" stroke="#666666" points="378,-315.25 300.5,-315.25 300.5,-296 378,-296 378,-315.25"/>
<text text-anchor="middle" x="339.25" y="-301.75" font-family="Helvetica,sans-Serif" font-size="10.00">MaxAmplitude</text>
</a>
</g>
</g>
<!-- Node4&#45;&gt;Node6 -->
<g id="edge6_Node000004_Node000006" class="edge">
<title>Node4&#45;&gt;Node6</title>
<g id="a_edge6_Node000004_Node000006"><a xlink:title=" ">
<path fill="none" stroke="#63b8ff" d="M223.71,-264.7C242.45,-271.69 265.51,-280.2 286.25,-287.62 293.54,-290.23 301.42,-292.99 308.79,-295.55"/>
<polygon fill="#63b8ff" stroke="#63b8ff" points="224.94,-261.42 214.35,-261.2 222.49,-267.98 224.94,-261.42"/>
</a>
</g>
</g>
<!-- Node7 -->
<g id="Node000007" class="node">
<title>Node7</title>
<g id="a_Node000007"><a xlink:href="class_mean_amplitude.html" target="_top" xlink:title=" ">
<polygon fill="white" stroke="#666666" points="381,-278.25 297.5,-278.25 297.5,-259 381,-259 381,-278.25"/>
<text text-anchor="middle" x="339.25" y="-264.75" font-family="Helvetica,sans-Serif" font-size="10.00">MeanAmplitude</text>
</a>
</g>
</g>
<!-- Node4&#45;&gt;Node7 -->
<g id="edge7_Node000004_Node000007" class="edge">
<title>Node4&#45;&gt;Node7</title>
<g id="a_edge7_Node000004_Node000007"><a xlink:title=" ">
<path fill="none" stroke="#63b8ff" d="M256.55,-258.95C270.51,-260.6 284.72,-262.29 297.29,-263.77"/>
<polygon fill="#63b8ff" stroke="#63b8ff" points="257.3,-255.51 246.96,-257.81 256.47,-262.47 257.3,-255.51"/>
</a>
</g>
</g>
<!-- Node8 -->
<g id="Node000008" class="node">
<title>Node8</title>
<g id="a_Node000008"><a xlink:href="class_noisiness.html" target="_top" xlink:title=" ">
<polygon fill="white" stroke="#666666" points="369,-241.25 309.5,-241.25 309.5,-222 369,-222 369,-241.25"/>
<text text-anchor="middle" x="339.25" y="-227.75" font-family="Helvetica,sans-Serif" font-size="10.00">Noisiness</text>
</a>
</g>
</g>
<!-- Node4&#45;&gt;Node8 -->
<g id="edge8_Node000004_Node000008" class="edge">
<title>Node4&#45;&gt;Node8</title>
<g id="a_edge8_Node000004_Node000008"><a xlink:title=" ">
<path fill="none" stroke="#63b8ff" d="M256.85,-241.8C275.3,-239.49 294.18,-237.13 309.1,-235.27"/>
<polygon fill="#63b8ff" stroke="#63b8ff" points="256.44,-238.32 246.95,-243.04 257.31,-245.27 256.44,-238.32"/>
</a>
</g>
</g>
<!-- Node9 -->
<g id="Node000009" class="node">
<title>Node9</title>
<g id="a_Node000009"><a xlink:href="class_total_amplitude.html" target="_top" xlink:title=" ">
<polygon fill="white" stroke="#666666" points="379.88,-204.25 298.62,-204.25 298.62,-185 379.88,-185 379.88,-204.25"/>
<text text-anchor="middle" x="339.25" y="-190.75" font-family="Helvetica,sans-Serif" font-size="10.00">TotalAmplitude</text>
</a>
</g>
</g>
<!-- Node4&#45;&gt;Node9 -->
<g id="edge9_Node000004_Node000009" class="edge">
<title>Node4&#45;&gt;Node9</title>
<g id="a_edge9_Node000004_Node000009"><a xlink:title=" ">
<path fill="none" stroke="#63b8ff" d="M222.63,-236.5C241.55,-229.23 265.09,-220.31 286.25,-212.62 293.52,-209.98 301.4,-207.21 308.77,-204.66"/>
<polygon fill="#63b8ff" stroke="#63b8ff" points="221.56,-233.16 213.48,-240.03 224.07,-239.7 221.56,-233.16"/>
</a>
</g>
</g>
<!-- Node11 -->
<g id="Node000011" class="node">
<title>Node11</title>
<g id="a_Node000011"><a xlink:href="class_formants.html" target="_top" xlink:title=" ">
<polygon fill="white" stroke="#666666" points="367.88,-167.25 310.62,-167.25 310.62,-148 367.88,-148 367.88,-167.25"/>
<text text-anchor="middle" x="339.25" y="-153.75" font-family="Helvetica,sans-Serif" font-size="10.00">Formants</text>
</a>
</g>
</g>
<!-- Node10&#45;&gt;Node11 -->
<g id="edge11_Node000010_Node000011" class="edge">
<title>Node10&#45;&gt;Node11</title>
<g id="a_edge11_Node000010_Node000011"><a xlink:title=" ">
<path fill="none" stroke="#63b8ff" d="M257.25,-157.62C276.15,-157.62 295.47,-157.62 310.5,-157.62"/>
<polygon fill="#63b8ff" stroke="#63b8ff" points="257.4,-154.13 247.4,-157.63 257.4,-161.13 257.4,-154.13"/>
</a>
</g>
</g>
<!-- Node13 -->
<g id="Node000013" class="node">
<title>Node13</title>
<g id="a_Node000013"><a xlink:href="class_major_peaks.html" target="_top" xlink:title="Finds the N largest amplitude peaks in the current window.">
<polygon fill="white" stroke="#666666" points="373.12,-130.25 305.38,-130.25 305.38,-111 373.12,-111 373.12,-130.25"/>
<text text-anchor="middle" x="339.25" y="-116.75" font-family="Helvetica,sans-Serif" font-size="10.00">MajorPeaks</text>
</a>
</g>
</g>
<!-- Node12&#45;&gt;Node13 -->
<g id="edge13_Node000012_Node000013" class="edge">
<title>Node12&#45;&gt;Node13</title>
<g id="a_edge13_Node000012_Node000013"><a xlink:title=" ">
<path fill="none" stroke="#63b8ff" d="M261.79,-120.62C277.05,-120.62 292.34,-120.62 305.19,-120.62"/>
<polygon fill="#63b8ff" stroke="#63b8ff" points="262.23,-117.13 252.23,-120.63 262.23,-124.13 262.23,-117.13"/>
</a>
</g>
</g>
<!-- Node15 -->
<g id="Node000015" class="node">
<title>Node15</title>
<g id="a_Node000015"><a xlink:href="class_percussion_detection.html" target="_top" xlink:title=" ">
<polygon fill="white" stroke="#666666" points="392.25,-93.25 286.25,-93.25 286.25,-74 392.25,-74 392.25,-93.25"/>
<text text-anchor="middle" x="339.25" y="-79.75" font-family="Helvetica,sans-Serif" font-size="10.00">PercussionDetection</text>
</a>
</g>
</g>
<!-- Node14&#45;&gt;Node15 -->
<g id="edge15_Node000014_Node000015" class="edge">
<title>Node14&#45;&gt;Node15</title>
<g id="a_edge15_Node000014_Node000015"><a xlink:title=" ">
<path fill="none" stroke="#63b8ff" d="M256.84,-83.62C266.62,-83.62 276.52,-83.62 285.89,-83.62"/>
<polygon fill="#63b8ff" stroke="#63b8ff" points="256.97,-80.13 246.97,-83.63 256.97,-87.13 256.97,-80.13"/>
</a>
</g>
</g>
<!-- Node17 -->
<g id="Node000017" class="node">
<title>Node17</title>
<g id="a_Node000017"><a xlink:href="class_salient_freqs.html" target="_top" xlink:title=" ">
<polygon fill="white" stroke="#666666" points="374.62,-56.25 303.88,-56.25 303.88,-37 374.62,-37 374.62,-56.25"/>
<text text-anchor="middle" x="339.25" y="-42.75" font-family="Helvetica,sans-Serif" font-size="10.00">SalientFreqs</text>
</a>
</g>
</g>
<!-- Node16&#45;&gt;Node17 -->
<g id="edge17_Node000016_Node000017" class="edge">
<title>Node16&#45;&gt;Node17</title>
<g id="a_edge17_Node000016_Node000017"><a xlink:title=" ">
<path fill="none" stroke="#63b8ff" d="M256.34,-46.62C272.83,-46.62 289.7,-46.62 303.81,-46.62"/>
<polygon fill="#63b8ff" stroke="#63b8ff" points="256.53,-43.13 246.53,-46.63 256.53,-50.13 256.53,-43.13"/>
</a>
</g>
</g>
</g>
</svg>
